<svg xmlns="http://www.w3.org/2000/svg" width="117" height="45" fill="none"><path stroke="#DBDBDB" d="M94.719 2.638c9.679-.093 17.661 7.128 19.227 16.272 1.178 6.872-.652 12.986-5.606 17.957-3.621 3.633-8.116 5.468-13.258 5.473-5.579.005-11.159 0-16.735 0-16.296 0-32.57-.078-48.847.002l-6.976.044c-9.619.076-17.907-6.736-19.55-16.383C1.5 17.34 5.725 8.5 13.725 4.549c2.637-1.303 5.425-1.891 8.328-1.888 12.151.014 24.302.006 36.456.006 12.091 0 24.146.086 36.21-.03Z"/><path fill="#DBDBDB" fill-rule="evenodd" d="M24.175 10.54c1.294.071 2.887-.12 4.471.104 3.703.522 5.893 3.755 5.405 7.455-.198 1.499-.8 2.79-2.04 3.722-.207.155-.25.246.012.396 2.464 1.416 3.082 4.315 2.502 7.197-.536 2.664-2.468 4.453-5.19 4.943a13 13 0 0 1-2.286.197q-3.278.005-6.555.001c-2.574-.002-3.868-1.288-3.868-3.843q-.001-8.193 0-16.385c0-2.465 1.332-3.787 3.806-3.788zM74.752 26.76v-.628q-.001-6.24.002-12.478c0-.535.008-1.075.19-1.589.391-1.098 1.365-1.724 2.55-1.644 1.021.068 1.963.93 2.161 2.003.06.318.087.646.088.97.005 5.711.002 11.423.005 17.135 0 .48-.03.96-.158 1.422-.401 1.457-1.284 2.436-2.826 2.66-1.618.234-2.938-.37-3.796-1.727-.878-1.389-1.614-2.868-2.402-4.314-1.888-3.463-3.769-6.93-5.653-10.396-.072-.132-.152-.26-.32-.548v.744c0 4.523-.005 9.046.005 13.57.001.697-.162 1.33-.59 1.88a2.35 2.35 0 0 1-2.523.81c-.993-.303-1.763-1.285-1.835-2.35-.011-.171-.006-.344-.006-.516q.001-8.481-.003-16.962c0-.54.032-1.072.181-1.592.456-1.6 1.569-2.57 3.315-2.721 1.666-.143 2.935.604 3.758 2.047.758 1.33 1.466 2.69 2.195 4.037l5.301 9.802c.079.145.164.286.247.429zM89.297 10.536c1.683.008 3.371-.082 5.036.272 4.116.874 6.675 3.36 7.536 7.472.685 3.264.723 6.553-.365 9.752-1.266 3.721-3.984 5.756-7.812 6.31-2.585.376-5.199.3-7.795.12-1.705-.118-2.866-1.495-2.906-3.22-.026-1.11-.01-2.221-.01-3.332 0-4.675-.008-9.35.009-14.024.006-1.778 1.042-2.996 2.747-3.303.224-.04.457-.043.686-.044.958-.005 1.916-.003 2.874-.003M46.95 27.829c-1.247 0-2.493.012-3.738-.01-.372-.005-.535.121-.647.476a201 201 0 0 1-1.47 4.47c-.35 1.024-1.03 1.72-2.143 1.825-1.926.18-3.192-1.626-2.52-3.598.989-2.897 2.007-5.784 3.013-8.676.98-2.82 1.965-5.638 2.94-8.46.507-1.47 1.307-2.694 2.805-3.306 2.39-.977 4.972.028 6.043 2.445.619 1.395 1.053 2.872 1.552 4.319 1.544 4.467 3.074 8.939 4.622 13.404.266.767.381 1.512.064 2.292-.41 1.01-1.232 1.588-2.305 1.579-1.05-.01-1.923-.614-2.27-1.629a204 204 0 0 1-1.524-4.635c-.117-.373-.285-.514-.684-.505-1.246.025-2.493.008-3.739.008" clip-rule="evenodd"/><path fill="#123121" fill-rule="evenodd" d="M24.763 29.552c-.881 0-1.763-.015-2.644.008-.387.01-.54-.09-.533-.507.024-1.341.018-2.683.002-4.023-.004-.338.078-.472.445-.467 1.724.018 3.449-.018 5.172.02 2.05.044 3.164 1.951 2.243 3.793-.382.763-1.066 1.097-1.871 1.137-.936.046-1.876.01-2.815.01zM24.595 15.592c.842 0 1.686-.03 2.526.006 1.273.056 1.925.69 2.02 1.899.103 1.307-.481 2.124-1.713 2.383-.853.179-1.717.068-2.576.085-.92.019-1.84-.016-2.757.014-.417.014-.514-.133-.505-.524.024-1.11.033-2.221-.003-3.33-.016-.48.167-.576.595-.561.803.028 1.608.008 2.412.008zM87.95 22.562c0-2.127.016-4.254-.012-6.381-.007-.492.146-.613.612-.59 1.376.067 2.761-.106 4.132.1 2.548.383 3.99 1.734 4.42 4.272.308 1.82.31 3.669-.082 5.485-.511 2.382-2.21 3.787-4.64 3.976-1.322.103-2.644.032-3.964.076-.394.014-.477-.136-.474-.499.016-2.146.007-4.293.007-6.439M46.923 23.185c-.766 0-1.533-.011-2.299.005-.293.007-.368-.069-.273-.355.78-2.34 1.55-4.684 2.33-7.025.045-.138.083-.318.281-.318.196 0 .233.165.281.312.767 2.345 1.53 4.692 2.309 7.033.103.311.003.355-.272.352-.785-.012-1.571-.005-2.357-.005" clip-rule="evenodd"/></svg>