<svg width="174" height="33" viewBox="0 0 174 33" fill="none" xmlns="http://www.w3.org/2000/svg">
<path fill-rule="evenodd" clip-rule="evenodd" d="M20.3686 1.43984C20.2316 1.40547 20.0666 1.40547 19.9296 1.43984L10.9608 4.181L10.9562 4.18256C10.5361 4.32313 10.3304 4.747 10.4326 5.1574L10.4349 5.16681L10.4382 5.17594C10.5754 5.55453 10.9924 5.80824 11.4203 5.6666L20.1622 2.99908L29.0916 5.74708C29.5235 5.89017 29.9408 5.63076 30.0756 5.22487C30.2192 4.79225 29.9621 4.3721 29.556 4.23619L20.3776 1.4421L20.3686 1.43984ZM6.77941 6.14537C6.73802 5.82644 6.90958 5.51391 7.17461 5.35427L7.18378 5.34875L7.19351 5.34431C7.28201 5.30393 7.37443 5.28042 7.46678 5.27293C7.54306 5.26215 7.62259 5.26276 7.70344 5.27628C8.02946 5.33083 8.27331 5.57674 8.3346 5.88206L13.4654 15.9331H27.0627C27.0904 15.9331 27.1177 15.9346 27.1447 15.9375L31.9877 5.89822C32.0254 5.69186 32.1483 5.51188 32.3304 5.40426C32.5515 5.25118 32.8486 5.22746 33.1047 5.34431C33.3608 5.4612 33.5066 5.69454 33.5337 5.94621L33.6921 6.8741C33.7283 7.03648 33.8828 8.11832 33.8828 9.75711C33.8828 11.3804 33.7212 13.5168 33.1286 15.9236C32.5628 18.1959 31.5383 20.9304 29.6772 23.611C27.8161 26.2917 25.1201 28.9433 21.2419 31.0255L21.2407 31.0261L20.5231 31.4263L20.5221 31.427C20.2778 31.5666 20.0204 31.5666 19.776 31.427L19.775 31.4263L19.0574 31.0261L19.0562 31.0255C15.178 28.9433 12.482 26.2917 10.621 23.611C8.76047 20.9312 7.73541 18.197 7.22255 15.8948C6.63031 13.4887 6.46875 11.3261 6.46875 9.73026C6.46875 8.09148 6.62331 7.00966 6.65955 6.84726L6.77941 6.14537ZM14.2598 17.4894H26.32L20.1659 29.0592L14.2598 17.4894ZM8.04288 8.71542C8.02931 9.01886 8.02042 9.35891 8.02042 9.73026C8.02042 11.2233 8.15326 13.2748 8.71024 15.5114C9.2408 17.6686 10.1956 20.1978 11.9186 22.6994C13.3882 24.8101 15.4177 26.9222 18.256 28.7214L8.04288 8.71542ZM22.1093 28.6915C24.9122 26.9039 26.9458 24.8196 28.406 22.6997C30.129 20.1983 31.0839 17.6427 31.6146 15.5114C32.1716 13.2748 32.3045 11.2233 32.3045 9.73026C32.3045 9.39886 32.2973 9.0924 32.2862 8.81462L28.5339 16.5929V16.6237L22.1093 28.6915Z" fill="white"/>
<path fill-rule="evenodd" clip-rule="evenodd" d="M20.0091 1.98386L11.2164 4.67122L11.2153 4.6716C10.9516 4.75983 10.8159 5.02261 10.8812 5.29399C10.9729 5.54016 11.2377 5.68784 11.4958 5.60238L11.4989 5.60136L20.1643 2.95719L29.0134 5.68047L29.0162 5.68141C29.2737 5.76673 29.5404 5.61991 29.6318 5.34456C29.7178 5.08546 29.5721 4.81808 29.3002 4.72534L20.3012 1.98589L20.299 1.98534C20.2109 1.96322 20.0984 1.96274 20.0091 1.98386ZM20.434 1.4477L20.4495 1.4516L29.4692 4.19738L29.4728 4.19858C29.9962 4.3737 30.3535 4.93006 30.1578 5.51923C29.985 6.03984 29.4341 6.40195 28.8449 6.20859L20.1636 3.53695L11.6667 6.12971C11.0876 6.31937 10.5371 5.9717 10.3583 5.47826L10.3502 5.45581L10.3444 5.43265C10.2118 4.9 10.4798 4.33317 11.0394 4.14594L11.0474 4.14324L19.8614 1.44941L19.8682 1.4477C20.0469 1.40285 20.2553 1.40285 20.434 1.4477ZM7.67154 5.20352C7.77188 5.19016 7.87565 5.19152 7.98017 5.20901C8.40057 5.27935 8.72152 5.58984 8.81682 5.98228L13.7601 15.666H26.8459L31.5072 6.00341C31.5657 5.74325 31.7256 5.51536 31.9586 5.37448C32.2586 5.17118 32.6503 5.14506 32.9833 5.29699C33.329 5.45474 33.5253 5.76971 33.5639 6.10119L33.717 6.99807C33.7609 7.20513 33.9093 8.28209 33.9093 9.88073C33.9093 11.4922 33.7488 13.6121 33.1609 16.0001C32.5992 18.2556 31.5815 20.9731 29.7315 23.6378C27.8813 26.3028 25.2028 28.9359 21.3555 31.0016L21.3536 31.0026L20.6561 31.3916L20.6551 31.3922C20.33 31.5781 19.9723 31.5782 19.6474 31.3924L19.6461 31.3917L18.9483 31.0025L18.9472 31.0019C15.0999 28.9363 12.4207 26.3028 10.5706 23.6378C8.72204 20.9751 7.70293 18.2582 7.19254 15.9687C6.60551 13.5826 6.44531 11.4382 6.44531 9.85438C6.44531 8.2558 6.59369 7.17887 6.63759 6.97174L6.74778 6.32651C6.71245 5.91042 6.93928 5.52212 7.27233 5.32151L7.29488 5.30792L7.31884 5.29699C7.4326 5.24509 7.55183 5.21416 7.67154 5.20352ZM7.8887 5.75572C7.83734 5.74713 7.78779 5.74688 7.74095 5.7535L7.73278 5.75466L7.72456 5.75532C7.66735 5.75997 7.6097 5.77426 7.55381 5.79909C7.38115 5.9055 7.27739 6.10811 7.30226 6.2998L7.30763 6.34109L7.18179 7.07797L7.18027 7.08481C7.15077 7.21695 6.99963 8.25666 6.99963 9.85438C6.99963 11.4029 7.15647 13.503 7.73151 15.8392L7.73225 15.8422L7.73292 15.8452C8.2296 18.0748 9.22279 20.7244 11.0259 23.3217C12.8293 25.9192 15.4434 28.4916 19.2094 30.5135L19.2145 30.5162L19.9215 30.9107L19.9225 30.9111C20.077 30.9996 20.225 30.9996 20.3796 30.9111L20.3833 30.9091L21.0915 30.5141L21.0927 30.5135C24.8586 28.4916 27.4728 25.9192 29.2762 23.3217C31.0798 20.7237 32.0735 18.0723 32.6228 15.8668C33.198 13.5301 33.3549 11.4558 33.3549 9.88073C33.3549 8.283 33.2038 7.24328 33.1743 7.11116L33.1728 7.10433L33.0146 6.17813L33.0138 6.16957C32.9966 6.01031 32.9071 5.87155 32.7531 5.80129C32.5865 5.72522 32.399 5.74378 32.2659 5.83587L32.2577 5.84155L32.2491 5.84661C32.1411 5.91043 32.0674 6.01734 32.0444 6.14274L32.0377 6.17956L27.1825 16.2439L26.9882 16.223C26.9715 16.2212 26.9546 16.2202 26.9374 16.2202H13.4207L8.28977 6.16899L8.28225 6.13155C8.24448 5.94344 8.09411 5.7901 7.8887 5.75572ZM8.0376 7.79807L19.0006 29.2727L18.1445 28.7301C15.3249 26.9428 13.3066 24.843 11.8446 22.7432L11.8438 22.7421C10.13 20.2538 9.18082 17.7389 8.65363 15.5956C8.10011 13.3725 7.96843 11.3354 7.96843 9.85438C7.96843 9.48545 7.97726 9.14752 7.99075 8.84583L8.0376 7.79807ZM32.2972 7.83602L32.3418 8.94446C32.3529 9.22059 32.3599 9.52513 32.3599 9.85438C32.3599 11.3355 32.2282 13.3729 31.6746 15.596C31.1474 17.7128 30.1984 20.2538 28.4842 22.7424C27.0304 24.8532 25.0075 26.9254 22.2243 28.7004L21.3349 29.2677L28.1044 16.5518V16.5274L32.2972 7.83602ZM8.52301 9.96799C8.5297 11.4073 8.6658 13.3505 9.19165 15.4621C9.70603 17.5536 10.6314 20.0044 12.2999 22.4271C13.567 24.2468 15.2642 26.0685 17.5638 27.6774L8.52301 9.96799ZM28.6587 16.6541V16.6902L22.8398 27.6203C25.0936 26.0312 26.7784 24.2419 28.0278 22.4279C29.6962 20.0057 30.6218 17.5295 31.1367 15.4621C31.6426 13.4307 31.7877 11.5552 31.804 10.1342L28.6587 16.6541ZM13.9175 17.1936H26.6699L20.1625 29.4273L13.9175 17.1936ZM14.8228 17.7479L20.1726 28.2279L25.7471 17.7479H14.8228Z" fill="white"/>
<path d="M20.3665 1.71652L20.434 1.4477M20.434 1.4477C20.2553 1.40285 20.0469 1.40285 19.8682 1.4477L19.8614 1.44941L11.0474 4.14324L11.0394 4.14594C10.4798 4.33317 10.2118 4.9 10.3444 5.43265L10.3502 5.45581L10.3583 5.47826C10.5371 5.9717 11.0876 6.31937 11.6667 6.12971L20.1636 3.53695L28.8449 6.20859C29.4341 6.40195 29.985 6.03984 30.1578 5.51923C30.3535 4.93006 29.9962 4.3737 29.4728 4.19858L29.4692 4.19738L20.4495 1.4516L20.434 1.4477ZM7.31884 5.29699L7.4339 5.54914M7.31884 5.29699C7.4326 5.24509 7.55183 5.21416 7.67154 5.20352C7.77188 5.19016 7.87565 5.19152 7.98017 5.20901C8.40057 5.27935 8.72152 5.58984 8.81682 5.98228L13.7601 15.666H26.8459L31.5072 6.00341C31.5657 5.74325 31.7256 5.51536 31.9586 5.37448C32.2586 5.17118 32.6503 5.14506 32.9833 5.29699C33.329 5.45474 33.5253 5.76971 33.5639 6.10119L33.717 6.99807C33.7609 7.20513 33.9093 8.28209 33.9093 9.88073C33.9093 11.4922 33.7488 13.6121 33.1609 16.0001C32.5992 18.2556 31.5815 20.9731 29.7315 23.6378C27.8813 26.3028 25.2028 28.9359 21.3555 31.0016L21.3536 31.0026L20.6561 31.3916L20.6551 31.3922C20.33 31.5781 19.9723 31.5782 19.6474 31.3924L19.6461 31.3917L18.9483 31.0025L18.9472 31.0019C15.0999 28.9363 12.4207 26.3028 10.5706 23.6378C8.72204 20.9751 7.70293 18.2582 7.19254 15.9687C6.60551 13.5826 6.44531 11.4382 6.44531 9.85438C6.44531 8.2558 6.59369 7.17887 6.63759 6.97174L6.74778 6.32651C6.71245 5.91042 6.93928 5.52212 7.27233 5.32151L7.29488 5.30792L7.31884 5.29699ZM7.43497 5.5515L7.47196 5.63255M11.2164 4.67122L20.0091 1.98386C20.0984 1.96274 20.2109 1.96322 20.299 1.98534L20.3012 1.98589L29.3002 4.72534C29.5721 4.81808 29.7178 5.08546 29.6318 5.34456C29.5404 5.61991 29.2737 5.76673 29.0162 5.68141L29.0134 5.68047L20.1643 2.95719L11.4989 5.60136L11.4958 5.60238C11.2377 5.68784 10.9729 5.54016 10.8812 5.29399C10.8159 5.02261 10.9516 4.75983 11.2153 4.6716L11.2164 4.67122ZM7.74095 5.7535C7.78779 5.74688 7.83734 5.74713 7.8887 5.75572C8.09411 5.7901 8.24448 5.94344 8.28225 6.13155L8.28977 6.16899L13.4207 16.2202H26.9374C26.9546 16.2202 26.9715 16.2212 26.9882 16.223L27.1825 16.2439L32.0377 6.17956L32.0444 6.14274C32.0674 6.01734 32.1411 5.91043 32.2491 5.84661L32.2577 5.84155L32.2659 5.83587C32.399 5.74378 32.5865 5.72522 32.7531 5.80129C32.9071 5.87155 32.9966 6.01031 33.0138 6.16957L33.0146 6.17813L33.1728 7.10433L33.1743 7.11116C33.2038 7.24328 33.3549 8.283 33.3549 9.88073C33.3549 11.4558 33.198 13.5301 32.6228 15.8668C32.0735 18.0723 31.0798 20.7237 29.2762 23.3217C27.4728 25.9192 24.8586 28.4916 21.0927 30.5135L21.0915 30.5141L20.3833 30.9091L20.3804 30.9108C20.2259 30.9992 20.077 30.9996 19.9225 30.9111L19.9215 30.9107L19.2145 30.5162L19.2094 30.5135C15.4434 28.4916 12.8293 25.9192 11.0259 23.3217C9.22279 20.7244 8.2296 18.0748 7.73292 15.8452L7.73225 15.8422L7.73151 15.8392C7.15647 13.503 6.99963 11.4029 6.99963 9.85438C6.99963 8.25666 7.15077 7.21695 7.18027 7.08481L7.18179 7.07797L7.30763 6.34109L7.30226 6.2998C7.27739 6.10811 7.38115 5.9055 7.55381 5.79909C7.6097 5.77426 7.66735 5.75997 7.72456 5.75532L7.73278 5.75466L7.74095 5.7535ZM8.0376 7.79807L7.99075 8.84583C7.97726 9.14752 7.96843 9.48545 7.96843 9.85438C7.96843 11.3354 8.10011 13.3725 8.65363 15.5956C9.18082 17.7389 10.13 20.2538 11.8438 22.7421L11.8446 22.7432C13.3066 24.843 15.3249 26.9428 18.1445 28.7301L19.0006 29.2727L8.0376 7.79807ZM32.3418 8.94446L32.2972 7.83602L28.1044 16.5274V16.5518L21.3349 29.2677L22.2243 28.7004C25.0075 26.9254 27.0304 24.8532 28.4842 22.7424C30.1984 20.2538 31.1474 17.7128 31.6746 15.596C32.2282 13.3729 32.3599 11.3355 32.3599 9.85438C32.3599 9.52513 32.3529 9.22059 32.3418 8.94446ZM9.19165 15.4621C8.6658 13.3505 8.5297 11.4073 8.52301 9.96799L17.5638 27.6774C15.2642 26.0685 13.567 24.2468 12.2999 22.4271C10.6314 20.0044 9.70603 17.5536 9.19165 15.4621ZM28.6587 16.6902V16.6541L31.804 10.1342C31.7877 11.5552 31.6426 13.4307 31.1367 15.4621C30.6218 17.5295 29.6962 20.0057 28.0278 22.4279C26.7784 24.2419 25.0936 26.0312 22.8398 27.6203L28.6587 16.6902ZM13.9175 17.1936H26.6699L20.1625 29.4273L13.9175 17.1936ZM20.1726 28.2279L14.8228 17.7479H25.7471L20.1726 28.2279Z" stroke="white" strokeWidth="0.369543" stroke-miterlimit="10"/>
<path d="M60.6733 10.6623H48.2833C48.0652 10.6623 47.8836 10.7353 47.7019 10.9176C47.5566 11.0636 47.4476 11.2824 47.4476 11.5012V21.4593C47.4476 21.6783 47.5203 21.8607 47.7019 22.043C47.8472 22.1889 48.0652 22.2983 48.2833 22.2983H60.6733V23.9762H48.2833C47.5929 23.9762 47.0116 23.7209 46.5392 23.2467C46.0668 22.7726 45.8125 22.1889 45.8125 21.4959V11.4648C45.8125 10.7717 46.0668 10.1881 46.5392 9.71391C47.0116 9.23972 47.5929 8.98438 48.2833 8.98438H60.6733V10.6623Z" fill="white"/>
<path d="M60.1343 23.5935H60.2904V23.4373V22.8302V22.674H60.1343H48.2797C47.9429 22.674 47.6324 22.5107 47.4296 22.3071C47.1817 22.0582 47.0647 21.7813 47.0647 21.4558V11.4977C47.0647 11.1611 47.2268 10.85 47.4296 10.6465C47.6775 10.3975 47.954 10.2795 48.2797 10.2795H60.1343H60.2904V10.1234V9.51624V9.36008H60.1343H48.2797C47.694 9.36008 47.2082 9.57252 46.8043 9.97804C46.4003 10.3835 46.1882 10.8719 46.1882 11.4612V21.4923C46.1882 22.0817 46.4003 22.57 46.8043 22.9755C47.2082 23.3811 47.694 23.5935 48.2797 23.5935H60.1343ZM46.2669 9.4427C46.8077 8.89976 47.4847 8.60156 48.2797 8.60156H61.049V11.038H48.2797C48.2387 11.038 48.1855 11.0406 48.1255 11.0663C48.0684 11.0907 48.018 11.1305 47.967 11.1817C47.9199 11.2291 47.8851 11.2837 47.8619 11.3354C47.8396 11.3851 47.8232 11.4427 47.8232 11.4977V21.4558C47.8232 21.4982 47.8261 21.552 47.8517 21.6122C47.8762 21.6697 47.9159 21.7204 47.967 21.7718C48.0143 21.8192 48.0685 21.8539 48.1197 21.8771C48.1686 21.8992 48.2255 21.9155 48.2797 21.9155H61.049V24.352H48.2797C47.4847 24.352 46.8077 24.0538 46.2669 23.5108C45.7261 22.968 45.4297 22.289 45.4297 21.4923V11.4612C45.4297 10.6645 45.7261 9.98557 46.2669 9.4427Z" fill="white" stroke="white" strokeWidth="0.312331" stroke-miterlimit="10"/>
<path d="M83.925 8.98438V10.6623H72.0074V15.6231H81.5997V17.3376H72.0074V22.2983H83.925V23.9762H70.3359V9.02086H83.925V8.98438Z" fill="white"/>
<path d="M72.5392 11.0406H72.3831V11.1967V15.0867V15.2429H72.5392H81.9753V17.7158H72.5392H72.3831V17.872V21.762V21.9181H72.5392H84.3008V24.3546H69.9531V8.64062H84.3008V8.98341V11.0406H72.5392ZM83.5423 9.55531V9.39915H83.3861H70.8679H70.7117V9.55531V23.4399V23.5961H70.8679H83.3861H83.5423V23.4399V22.8328V22.6766H83.3861H71.6246V16.9573H81.0607H81.2168V16.8011V16.1576V16.0014H81.0607H71.6246V10.2821H83.3861H83.5423V10.1259V9.55531Z" fill="white" stroke="white" strokeWidth="0.312331" stroke-miterlimit="10"/>
<path d="M108.483 11.4648V15.842C108.483 16.535 108.229 17.1186 107.757 17.5929C107.284 18.0671 106.703 18.3224 106.013 18.3224H103.724L108.411 23.9033H106.194L101.507 18.3588H96.0567C95.9477 18.3588 95.657 18.3224 95.2574 18.2859V23.9398H93.5859V8.98438H106.013C106.703 8.98438 107.284 9.23972 107.757 9.71391C108.229 10.1881 108.483 10.7717 108.483 11.4648ZM96.0567 16.6445H105.976C106.194 16.6445 106.376 16.5715 106.521 16.4257C106.667 16.2797 106.739 16.0973 106.739 15.8785V11.5012C106.739 11.2824 106.667 11.1 106.521 10.9176C106.376 10.7717 106.194 10.6623 105.976 10.6623H96.0567C95.8387 10.6623 95.657 10.7353 95.4753 10.9176C95.33 11.0636 95.221 11.2824 95.221 11.5012V15.8785C95.221 16.0973 95.2937 16.2797 95.4753 16.4257C95.6207 16.5715 95.8387 16.6445 96.0567 16.6445Z" fill="white"/>
<path d="M104.757 18.9547L109.228 24.279H106.023L101.382 18.7899L101.336 18.7346H101.263H96.0609C96.0005 18.7346 95.9115 18.7273 95.812 18.7177L95.6409 18.7012V18.8732V24.3155H93.2109V8.60156H106.017C106.811 8.60156 107.489 8.89976 108.029 9.4427C108.57 9.98557 108.867 10.6645 108.867 11.4612V15.8385C108.867 16.6351 108.57 17.314 108.029 17.8569C107.489 18.3999 106.811 18.6981 106.017 18.6981H104.876H104.541L104.757 18.9547ZM93.9694 23.4008V23.557H94.1257H94.7261H94.8823V23.4008V17.8669L95.296 17.9046C95.4509 17.9188 95.5908 17.9331 95.708 17.945L95.8081 17.9552C95.8761 17.9619 95.9321 17.9673 95.9771 17.9711C95.9995 17.9729 96.0179 17.9742 96.0328 17.975L96.0511 17.9759L96.0567 17.976L96.0586 17.9761H96.0597H96.061H101.688L106.328 23.4652L106.375 23.5205H106.447H107.266H107.601L107.385 23.2639L102.914 17.9395H106.017C106.602 17.9395 107.088 17.7271 107.492 17.3217C107.896 16.9161 108.108 16.4278 108.108 15.8385V11.4612C108.108 10.8719 107.896 10.3835 107.492 9.97804C107.088 9.57252 106.602 9.36008 106.017 9.36008H94.1257H93.9694V9.51624V23.4008ZM95.2298 16.7082L95.2224 16.7015C94.955 16.4774 94.8459 16.187 94.8459 15.8749V11.4977C94.8459 11.1611 95.008 10.85 95.2108 10.6465C95.4588 10.3975 95.7354 10.2795 96.0609 10.2795H105.98C106.335 10.2795 106.607 10.459 106.794 10.6465L106.808 10.6613L106.822 10.6777C107.012 10.9159 107.123 11.1795 107.123 11.4977V15.8749C107.123 16.1872 107.015 16.4679 106.794 16.6897C106.573 16.9115 106.293 17.0202 105.98 17.0202H96.0609C95.775 17.0202 95.4605 16.9282 95.2298 16.7082ZM95.7171 16.1264L95.7335 16.1395L95.7483 16.1544C95.8059 16.2121 95.9175 16.2616 96.0609 16.2616H105.98C106.037 16.2616 106.089 16.2542 106.139 16.2341C106.19 16.2136 106.227 16.184 106.257 16.1544C106.286 16.1247 106.316 16.087 106.336 16.0357C106.357 15.9857 106.364 15.9321 106.364 15.8749V11.4977C106.364 11.3898 106.336 11.2945 106.25 11.1789L106.242 11.167L106.231 11.157C106.136 11.0695 106.053 11.038 105.98 11.038H96.0609C96.02 11.038 95.9667 11.0406 95.9067 11.0663C95.8497 11.0907 95.7993 11.1305 95.7483 11.1817C95.7011 11.2291 95.6664 11.2837 95.6432 11.3354C95.6209 11.3851 95.6045 11.4427 95.6045 11.4977V15.8749C95.6045 15.9422 95.6155 15.9876 95.6304 16.0207C95.6445 16.0523 95.6688 16.0876 95.7171 16.1264Z" fill="white"/>
<path d="M96.0328 17.975C96.0179 17.9742 95.9995 17.9729 95.9771 17.9711C95.9321 17.9673 95.8761 17.9619 95.8081 17.9552L95.708 17.945C95.5908 17.9331 95.4509 17.9188 95.296 17.9046L94.8823 17.8669V23.4008V23.557H94.7261H94.1257H93.9694V23.4008V9.51624V9.36008H94.1257H106.017C106.602 9.36008 107.088 9.57252 107.492 9.97804C107.896 10.3835 108.108 10.8719 108.108 11.4612V15.8385C108.108 16.4278 107.896 16.9161 107.492 17.3217C107.088 17.7271 106.602 17.9395 106.017 17.9395H102.914L107.385 23.2639L107.601 23.5205H107.266H106.447H106.375L106.328 23.4652L101.688 17.9761H96.061H96.0597M96.0328 17.975L96.0413 17.8219M96.0328 17.975L96.0511 17.9759L96.0567 17.976L96.0586 17.9761H96.0597M96.0597 17.9761L96.061 17.8199M106.794 10.6465C106.607 10.459 106.335 10.2795 105.98 10.2795H96.0609C95.7354 10.2795 95.4588 10.3975 95.2108 10.6465C95.008 10.85 94.8459 11.1611 94.8459 11.4977V15.8749C94.8459 16.187 94.955 16.4774 95.2224 16.7015L95.2298 16.7082C95.4605 16.9282 95.775 17.0202 96.0609 17.0202H105.98C106.293 17.0202 106.573 16.9115 106.794 16.6897C107.015 16.4679 107.123 16.1872 107.123 15.8749V11.4977C107.123 11.1795 107.012 10.9159 106.822 10.6777M106.794 10.6465L106.901 10.54M106.794 10.6465L106.808 10.6613L106.822 10.6777M106.822 10.6777L106.944 10.5804M95.7171 16.1264L95.8136 16.0062M95.7171 16.1264L95.7335 16.1395L95.7483 16.1544C95.8059 16.2121 95.9175 16.2616 96.0609 16.2616H105.98C106.037 16.2616 106.089 16.2542 106.139 16.2341C106.19 16.2136 106.227 16.184 106.257 16.1544C106.286 16.1247 106.316 16.087 106.336 16.0357C106.357 15.9857 106.364 15.9321 106.364 15.8749V11.4977C106.364 11.3898 106.336 11.2945 106.25 11.1789L106.242 11.167L106.231 11.157C106.136 11.0695 106.053 11.038 105.98 11.038H96.0609C96.02 11.038 95.9667 11.0406 95.9067 11.0663C95.8497 11.0907 95.7993 11.1305 95.7483 11.1817C95.7011 11.2291 95.6664 11.2837 95.6432 11.3354C95.6209 11.3851 95.6045 11.4427 95.6045 11.4977V15.8749C95.6045 15.9422 95.6155 15.9876 95.6304 16.0207M95.7171 16.1264C95.6688 16.0876 95.6445 16.0523 95.6304 16.0207M95.6304 16.0207L95.7624 15.9615M104.757 18.9547L109.228 24.279H106.023L101.382 18.7899L101.336 18.7346H101.263H96.0609C96.0005 18.7346 95.9115 18.7273 95.812 18.7177L95.6409 18.7012V18.8732V24.3155H93.2109V8.60156H106.017C106.811 8.60156 107.489 8.89976 108.029 9.4427C108.57 9.98557 108.867 10.6645 108.867 11.4612V15.8385C108.867 16.6351 108.57 17.314 108.029 17.8569C107.489 18.3999 106.811 18.6981 106.017 18.6981H104.876H104.541L104.757 18.9547Z" stroke="white" strokeWidth="0.312331" stroke-miterlimit="10"/>
<path d="M117.391 8.98438H132.288V10.6623H125.675V23.9398H124.003V10.6623H117.391V8.98438Z" fill="white"/>
<path d="M126.207 11.038H126.051V11.1941V24.3155H123.621V11.1941V11.038H123.464H117.008V8.60156H132.663V11.038H126.207ZM117.766 10.1234V10.2795H117.923H124.379V23.4008V23.557H124.535H125.136H125.292V23.4008V10.2795H131.749H131.905V10.1234V9.51624V9.36008H131.749H117.923H117.766V9.51624V10.1234Z" fill="white" stroke="white" strokeWidth="0.312331" stroke-miterlimit="10"/>
<path d="M141.297 23.9398V8.98438H142.968V23.9398H141.297Z" fill="white"/>
<path d="M141.673 23.4008V23.557H141.829H142.429H142.586V23.4008V9.51624V9.36008H142.429H141.829H141.673V9.51624V23.4008ZM140.914 24.3155V8.60156H143.344V24.3155H140.914Z" fill="white" stroke="white" strokeWidth="0.312331" stroke-miterlimit="10"/>
<path d="M165.352 8.98438H167.496L161.282 16.4621L167.533 23.9398H165.352L159.794 17.301H154.997V23.9398H153.289V8.98438H154.997V15.6231H159.794L165.352 8.98438Z" fill="white"/>
<path d="M165.172 8.60156H168.301L161.856 16.3577L161.773 16.4579L161.857 16.5577L168.34 24.3155H165.172L159.659 17.7327L159.612 17.6768H159.54H155.529H155.373V17.8329V24.3155H152.906V8.60156H155.373V15.0841V15.2403H155.529H159.54H159.612L159.659 15.1844L165.172 8.60156ZM153.665 23.4008V23.557H153.821H154.458H154.614V23.4008V16.9182H159.967L165.479 23.5011L165.526 23.557H165.599H166.384H166.718L166.503 23.3007L160.786 16.4593L166.471 9.61605L166.684 9.36008H166.352H165.599H165.526L165.479 9.41598L159.967 15.9988H154.614V9.51624V9.36008H154.458H153.821H153.665V9.51624V23.4008Z" fill="white" stroke="white" strokeWidth="0.312331" stroke-miterlimit="10"/>
</svg>
