<svg width="150" height="32" viewBox="0 0 150 32" fill="none" xmlns="http://www.w3.org/2000/svg">
<g clipPath="url(#clip0_2486_10930)">
<path fill-rule="evenodd" clip-rule="evenodd" d="M43.4707 17.5947C43.4707 21.0987 45.0957 24.0818 48.9547 24.0818C51.9757 24.0818 53.9687 22.1777 53.9817 19.7917H54.9967V19.8288C54.9967 22.6348 52.6237 25.0208 48.9547 25.0208C44.3717 25.0208 42.4297 21.6828 42.4297 17.4808V14.5487C42.4297 10.3587 44.4607 6.96875 48.9037 6.96875C52.7507 6.96875 54.8837 9.69875 54.8837 12.2388V12.2758H53.8677C53.8417 10.2198 52.0647 7.92175 48.9037 7.92175C45.1587 7.92175 43.4707 10.8918 43.4707 14.4338V17.5947ZM59.6157 17.4167V19.0667C59.6157 22.3427 61.4317 24.0818 63.9577 24.0818C66.4457 24.0818 68.2867 22.3808 68.2867 19.0678V17.4177C68.2867 14.1417 66.4457 12.3647 63.9447 12.3647C61.4447 12.3647 59.6157 14.1168 59.6157 17.4167ZM69.3147 17.3158V19.1817C69.3147 22.9017 67.0547 25.0217 63.9447 25.0217C60.8347 25.0217 58.6007 22.9017 58.6007 19.1817V17.3158C58.6007 13.5708 60.8097 11.4377 63.9447 11.4377C67.0297 11.4377 69.3147 13.6218 69.3147 17.3158Z" fill="white"/>
<mask id="mask0_2486_10930" style="mask-type:luminance" maskUnits="userSpaceOnUse" x="0" y="0" width="150" height="32">
<path d="M0 31.941H149.993V0H0V31.941Z" fill="white"/>
</mask>
<g mask="url(#mask0_2486_10930)">
<path fill-rule="evenodd" clip-rule="evenodd" d="M73.642 25.0239H74.659V11.8859H73.642V25.0239ZM74.151 7.51887C74.659 7.51887 75.065 7.92488 75.065 8.43288C75.065 8.94088 74.659 9.33388 74.151 9.33388C73.643 9.33388 73.25 8.94088 73.25 8.43288C73.25 7.92488 73.644 7.51887 74.151 7.51887ZM79.596 11.8859H80.611V14.3229H80.662C81.094 13.0789 82.439 11.6699 84.889 11.6699C87.529 11.6699 89.459 13.3579 89.459 16.4299V25.0239H88.432V16.5569C88.432 14.2719 87.086 12.6219 84.738 12.6219C81.983 12.6219 80.612 14.7799 80.612 17.0139V25.0239H79.597L79.596 11.8859ZM94.764 20.0609C94.929 21.7749 96.364 23.2979 99.219 23.2979C101.733 23.2979 103.383 22.0539 103.383 20.0609C103.383 18.4999 102.418 17.6489 100.375 17.1159L97.379 16.3159C95.322 15.7699 93.38 14.4759 93.38 11.8349C93.38 8.66087 96.198 6.92188 99.257 6.92188C102.164 6.92188 105.059 8.45787 105.122 11.7459H103.218C103.066 10.0449 101.784 8.64887 99.219 8.64887C96.947 8.64887 95.309 9.75287 95.309 11.7079C95.309 13.0659 96.135 14.0059 97.874 14.4629L100.806 15.2629C103.536 15.9989 105.326 17.2049 105.326 19.9339C105.326 23.2849 102.495 25.0239 98.978 25.0239C94.484 25.0239 92.91 22.2439 92.847 20.0609H94.764ZM109.824 8.26788H111.69V11.6059H114.407V13.1929H111.69V21.3809C111.69 23.0189 112.223 23.4249 113.912 23.4249C114.14 23.4249 114.331 23.4249 114.521 23.3989V24.9359C114.331 24.9739 113.886 25.0239 113.441 25.0239C110.408 25.0239 109.824 23.8309 109.824 21.2669V8.26687V8.26788ZM126.337 20.3779V18.7409H122.783C120.841 18.7409 120.015 19.6669 120.015 20.9619C120.015 22.6119 121.374 23.4119 122.872 23.4119C124.852 23.4119 126.337 22.1679 126.337 20.3779ZM122.427 25.0239C119.851 25.0239 118.086 23.4369 118.086 20.9999C118.086 18.7019 119.686 17.2299 122.719 17.2169H126.337V15.7829C126.337 13.9169 125.246 12.9129 123.354 12.9129C121.526 12.9129 120.524 13.8149 120.371 15.2239H118.606C118.759 12.9139 120.346 11.3019 123.43 11.3019C126.198 11.3019 128.204 12.8379 128.204 15.5669V24.8079H126.388V23.0829H126.338C125.703 24.1489 124.458 25.0249 122.428 25.0249M132.259 8.26788H134.125V11.6059H136.841V13.1929H134.125V21.3809C134.125 23.0189 134.658 23.4249 136.346 23.4249C136.575 23.4249 136.766 23.4249 136.956 23.3989V24.9359C136.766 24.9739 136.321 25.0239 135.876 25.0239C132.843 25.0239 132.259 23.8309 132.259 21.2669V8.26687V8.26788ZM145.031 11.3019C148.166 11.3019 149.664 13.1419 149.664 15.2239H147.9C147.836 14.1839 147.164 12.9009 144.955 12.9009C143.292 12.9009 142.061 13.6249 142.061 15.0469C142.061 16.5829 143.749 16.9509 145.361 17.2679C147.836 17.7249 149.995 18.3469 149.995 20.9619C149.995 23.5899 147.849 25.0239 144.828 25.0239C141.921 25.0239 139.966 23.5639 139.966 21.2789H141.794C141.972 22.4989 143.038 23.4249 144.98 23.4249C147.1 23.4249 148.141 22.4349 148.141 21.1779C148.141 19.6039 146.694 19.2989 144.739 18.8929C142.239 18.3469 140.219 17.6229 140.219 15.2499C140.219 12.5199 142.505 11.3019 145.031 11.3019Z" fill="white"/>
</g>
<mask id="mask1_2486_10930" style="mask-type:luminance" maskUnits="userSpaceOnUse" x="0" y="0" width="150" height="32">
<path d="M0 31.941H149.993V0H0V31.941Z" fill="white"/>
</mask>
<g mask="url(#mask1_2486_10930)">
<path fill-rule="evenodd" clip-rule="evenodd" d="M7.46 23.4964L4.18 26.7764C1.484 23.8424 0 20.0064 0 15.9664C0 11.6794 1.65 7.66738 4.648 4.67138C6.454 2.86538 8.693 1.50437 11.128 0.734375L12.142 5.28538C10.562 5.84638 9.106 6.76538 7.917 7.95538C5.845 10.0274 4.669 12.7854 4.605 15.7234C4.545 18.6014 5.558 21.3594 7.461 23.4974" fill="#FFB347"/>
</g>
<mask id="mask2_2486_10930" style="mask-type:luminance" maskUnits="userSpaceOnUse" x="0" y="0" width="150" height="32">
<path d="M0 31.941H149.993V0H0V31.941Z" fill="white"/>
</mask>
<g mask="url(#mask2_2486_10930)">
<path fill-rule="evenodd" clip-rule="evenodd" d="M15.9377 15.9608L12.4688 0.372798C15.0528 -0.201202 17.7747 -0.111202 20.3467 0.634798C22.9577 1.3918 25.3538 2.8078 27.2758 4.7298C29.2428 6.6968 30.6617 9.1518 31.3797 11.8298C32.0427 14.3098 32.0977 16.9408 31.5397 19.4448L15.9377 15.9598V15.9608Z" fill="#FF9332"/>
</g>
<mask id="mask3_2486_10930" style="mask-type:luminance" maskUnits="userSpaceOnUse" x="0" y="0" width="150" height="32">
<path d="M0 31.941H149.993V0H0V31.941Z" fill="white"/>
</mask>
<g mask="url(#mask3_2486_10930)">
<path fill-rule="evenodd" clip-rule="evenodd" d="M23.9138 29.7708C20.2008 31.9148 15.9018 32.4908 11.8078 31.3948C9.32881 30.7298 7.02181 29.4628 5.13281 27.7268L8.41281 24.4468C10.4848 26.2848 13.1528 27.2958 15.9328 27.2948C18.9568 27.2928 21.8018 26.1148 23.9408 23.9758C25.1278 22.7888 26.0458 21.3358 26.6068 19.7578L31.1748 20.7778C29.9788 24.5648 27.4018 27.7558 23.9138 29.7708Z" fill="#EA5237"/>
</g>
</g>
<defs>
<clipPath id="clip0_2486_10930">
<rect width="150" height="32" fill="white"/>
</clipPath>
</defs>
</svg>
