<svg width="128" height="55" viewBox="0 0 128 55" fill="none" xmlns="http://www.w3.org/2000/svg">
<g clipPath="url(#clip0_2454_6984)">
<path d="M46.6994 39.0831L62.7539 48.3203C63.1783 48.5671 63.6557 48.6905 64.1331 48.6905C64.6104 48.6905 65.0878 48.5671 65.5122 48.3203L81.5667 39.0831C82.0087 38.8187 82.38 38.4485 82.6099 38.0078H79.551L64.5397 46.6456C64.2922 46.7867 63.974 46.7867 63.7264 46.6456L48.7151 38.0078H45.6562C45.8861 38.4485 46.2574 38.8187 46.6994 39.0831Z" fill="white"/>
<path d="M62.702 12.7584L55.5234 16.901H59.4133L63.6744 14.4507C63.9573 14.2921 64.311 14.2921 64.5939 14.4507L68.855 16.901H72.7449L65.5664 12.7584C64.7 12.2472 63.586 12.2472 62.702 12.7584Z" fill="white"/>
<path d="M41.9059 16.9072V15.1445C41.9059 14.8447 42.065 14.5627 42.3302 14.4216L63.7244 2.09956C63.9896 1.95853 64.3079 1.95853 64.5731 2.09956L85.9673 14.4216C86.2325 14.5627 86.3917 14.8447 86.3917 15.1445V16.9072H88.3366V15.1445C88.3366 14.1572 87.8062 13.2406 86.9398 12.747L65.5456 0.42488C64.6792 -0.06871 63.6183 -0.06871 62.752 0.42488L41.3577 12.747C40.4914 13.2406 39.9609 14.1572 39.9609 15.1621V16.9249H41.9059V16.9072Z" fill="white"/>
<path d="M64.1321 42.5148C64.6272 42.5148 65.1222 42.3914 65.5643 42.127L72.7428 37.9844H68.853L64.6095 40.4523C64.3266 40.611 63.973 40.611 63.6901 40.4523L59.4289 38.002H55.5391L62.7176 42.1446C63.142 42.3914 63.6371 42.5148 64.1321 42.5148Z" fill="white"/>
<path d="M86.3761 38.002V39.7648C86.3761 40.0645 86.2169 40.3466 85.9517 40.4876L64.5575 52.8097C64.2923 52.9508 63.974 52.9508 63.7088 52.8097L42.3146 40.4876C42.0494 40.3466 41.8902 40.0645 41.8902 39.7648V38.002H39.9453V39.7648C39.9453 40.752 40.4757 41.6687 41.3421 42.1623L62.7364 54.4844C63.1607 54.7312 63.6557 54.8546 64.1331 54.8546C64.6105 54.8546 65.1056 54.7312 65.53 54.4844L86.9242 42.1623C87.7905 41.6687 88.321 40.752 88.321 39.7472V37.9844H86.3761V38.002Z" fill="white"/>
<path d="M81.5823 15.8339L65.5278 6.59675C64.6792 6.10317 63.6182 6.10317 62.7695 6.59675L46.7151 15.8339C46.273 16.0983 45.9017 16.4685 45.6719 16.9092H48.7307L63.742 8.27143C63.9896 8.13041 64.3078 8.13041 64.5554 8.27143L79.5666 16.9092H82.6255C82.378 16.4685 82.0243 16.0807 81.5823 15.8339Z" fill="white"/>
<path d="M2.29839 35.5487H0.140625V19.3438H2.29839V35.5487Z" fill="white"/>
<path d="M17.825 32.2014C17.9479 32.2014 18.0531 32.2549 18.1408 32.3439L18.9829 33.2877C18.3338 34.0534 17.5444 34.6588 16.5971 35.0862C15.6497 35.5136 14.5446 35.7273 13.2288 35.7273C12.071 35.7273 11.036 35.5314 10.1062 35.1219C9.17646 34.7122 8.36949 34.1602 7.72041 33.4301C7.07133 32.7 6.54504 31.8275 6.17664 30.8124C5.80824 29.7974 5.63281 28.6755 5.63281 27.4467C5.63281 26.218 5.82578 25.114 6.21172 24.0811C6.59766 23.0661 7.14149 22.1935 7.86075 21.4634C8.56246 20.7333 9.40451 20.1635 10.3869 19.7539C11.3693 19.3443 12.457 19.1484 13.6499 19.1484C14.8252 19.1484 15.8427 19.3265 16.6848 19.7005C17.5268 20.0744 18.2988 20.573 18.9478 21.1963L18.2461 22.2113C18.1935 22.2826 18.1408 22.3538 18.0707 22.3894C18.0005 22.4428 17.9128 22.4606 17.7724 22.4606C17.6672 22.4606 17.5795 22.425 17.4742 22.3538C17.3689 22.2826 17.2462 22.1935 17.0883 22.0867C16.9479 21.9798 16.7725 21.873 16.5619 21.7483C16.3514 21.6237 16.1234 21.5168 15.8427 21.41C15.5621 21.3032 15.2463 21.2141 14.8778 21.1429C14.5095 21.0717 14.0885 21.036 13.6148 21.036C12.7552 21.036 11.9833 21.1785 11.2641 21.4812C10.5623 21.784 9.94834 22.2113 9.4396 22.7456C8.93086 23.2976 8.52737 23.9743 8.24669 24.7578C7.96601 25.5414 7.82566 26.4317 7.82566 27.4112C7.82566 28.4262 7.96601 29.3166 8.24669 30.1179C8.52737 30.9192 8.93086 31.5781 9.42206 32.1302C9.91326 32.6822 10.4922 33.0918 11.1763 33.3767C11.8605 33.6616 12.5798 33.8041 13.3516 33.8041C13.8253 33.8041 14.2464 33.7685 14.6322 33.7151C15.0182 33.6616 15.3691 33.5725 15.6848 33.448C16.0006 33.3233 16.3164 33.1809 16.5795 32.9849C16.8602 32.8069 17.1409 32.5754 17.4215 32.326C17.597 32.2549 17.7198 32.2014 17.825 32.2014Z" fill="white"/>
<path fill-rule="evenodd" clip-rule="evenodd" d="M36.1023 30.8159C36.4707 29.8008 36.6637 28.679 36.6637 27.468C36.6637 26.2571 36.4707 25.1353 36.1023 24.1202C35.7339 23.1052 35.1901 22.2326 34.5059 21.5025C33.8218 20.7724 32.9797 20.2025 32.0148 19.793C31.05 19.3834 29.9798 19.1875 28.8045 19.1875C27.6291 19.1875 26.559 19.3834 25.5942 19.793C24.6293 20.2025 23.7873 20.7724 23.1031 21.5025C22.4189 22.2326 21.8926 23.1052 21.5067 24.1202C21.1383 25.1353 20.9453 26.2571 20.9453 27.468C20.9453 28.6968 21.1207 29.8008 21.5067 30.8159C21.8751 31.8309 22.4189 32.7035 23.1031 33.4335C23.8048 34.1815 24.6293 34.7335 25.5942 35.1431C26.559 35.5526 27.6291 35.7486 28.8045 35.7486C29.9798 35.7486 31.05 35.5526 32.0148 35.1431C32.9797 34.7335 33.8218 34.1637 34.5059 33.4335C35.1901 32.7035 35.7163 31.8309 36.1023 30.8159ZM34.0498 24.7969C34.3129 25.5804 34.4533 26.4708 34.4533 27.468C34.4533 28.4653 34.3129 29.3556 34.0498 30.1392C33.7866 30.9227 33.4007 31.5816 32.9095 32.1336C32.4183 32.6678 31.8218 33.0952 31.1202 33.3802C30.436 33.6651 29.6466 33.8075 28.7869 33.8075C27.9273 33.8075 27.1555 33.6651 26.4537 33.3802C25.752 33.0952 25.1556 32.6857 24.6644 32.1336C24.1732 31.5994 23.7873 30.9227 23.5241 30.1392C23.261 29.3556 23.1206 28.4653 23.1206 27.468C23.1206 26.4886 23.261 25.5804 23.5241 24.7969C23.7873 23.9956 24.1732 23.3367 24.6644 22.7846C25.1556 22.2326 25.752 21.823 26.4537 21.5203C27.1555 21.2176 27.9273 21.0751 28.7869 21.0751C29.6466 21.0751 30.4184 21.2176 31.1202 21.5203C31.8218 21.823 32.4183 22.2326 32.9095 22.7846C33.4007 23.3367 33.7866 24.0134 34.0498 24.7969Z" fill="white"/>
<path d="M52.556 35.5487H50.3807V28.1764H41.7847V35.5487H39.6094V19.3438H41.7847V26.5736H50.3807V19.3438H52.556V35.5487Z" fill="white"/>
<path fill-rule="evenodd" clip-rule="evenodd" d="M70.7117 30.8159C71.0801 29.8008 71.273 28.679 71.273 27.468C71.273 26.2571 71.0801 25.1353 70.7117 24.1202C70.3433 23.1052 69.7994 22.2326 69.1153 21.5025C68.4311 20.7724 67.5891 20.2025 66.6242 19.793C65.6594 19.3834 64.5892 19.1875 63.4139 19.1875C62.2385 19.1875 61.1684 19.3834 60.2035 19.793C59.2387 20.2025 58.3966 20.7724 57.7125 21.5025C57.0283 22.2326 56.502 23.1052 56.1161 24.1202C55.7477 25.1353 55.5547 26.2571 55.5547 27.468C55.5547 28.6968 55.7301 29.8008 56.1161 30.8159C56.4845 31.8309 57.0283 32.7035 57.7125 33.4335C58.4142 34.1815 59.2387 34.7335 60.2035 35.1431C61.1684 35.5526 62.2385 35.7486 63.4139 35.7486C64.5892 35.7486 65.6594 35.5526 66.6242 35.1431C67.5891 34.7335 68.4311 34.1637 69.1153 33.4335C69.7994 32.7035 70.3257 31.8309 70.7117 30.8159ZM68.6417 24.7969C68.9048 25.5804 69.0451 26.4708 69.0451 27.468C69.0451 28.4653 68.9223 29.3556 68.6417 30.1392C68.3785 30.9227 67.9926 31.5816 67.5013 32.1336C67.0102 32.6678 66.3961 33.0952 65.712 33.3802C65.0278 33.6651 64.2384 33.8075 63.3788 33.8075C62.5192 33.8075 61.7473 33.6651 61.0456 33.3802C60.3439 33.0952 59.7474 32.6857 59.2562 32.1336C58.765 31.5994 58.3791 30.9227 58.1159 30.1392C57.8528 29.3556 57.7125 28.4653 57.7125 27.468C57.7125 26.4886 57.8528 25.5804 58.1159 24.7969C58.3791 23.9956 58.765 23.3367 59.2562 22.7846C59.7474 22.2326 60.3439 21.823 61.0456 21.5203C61.7473 21.2176 62.5192 21.0751 63.3788 21.0751C64.2384 21.0751 65.0102 21.2176 65.712 21.5203C66.4137 21.823 67.0102 22.2326 67.5013 22.7846C67.9926 23.3367 68.3785 24.0134 68.6417 24.7969Z" fill="white"/>
<path d="M76.3843 33.7145H83.2962V35.5487H74.2266V19.3438H76.3843V33.7145Z" fill="white"/>
<path fill-rule="evenodd" clip-rule="evenodd" d="M98.942 30.7762C99.3104 29.779 99.5034 28.6749 99.5034 27.4641C99.5034 26.2531 99.3104 25.149 98.942 24.1518C98.5737 23.1545 98.0474 22.2998 97.3457 21.5875C96.644 20.8752 95.8195 20.3231 94.8546 19.9314C93.8898 19.5396 92.8196 19.3438 91.6442 19.3438H85.6797V35.5487H91.6442C92.8196 35.5487 93.8898 35.3527 94.8546 34.961C95.8195 34.587 96.6615 34.035 97.3457 33.3227C98.0298 32.6282 98.5561 31.7734 98.942 30.7762ZM96.8896 24.7929C97.1527 25.5764 97.2931 26.4668 97.2931 27.4641C97.2931 28.4613 97.1527 29.3338 96.8896 30.1174C96.6264 30.9009 96.2405 31.5598 95.7492 32.094C95.2581 32.6461 94.6616 33.0556 93.9599 33.3405C93.2582 33.6255 92.4863 33.7679 91.6267 33.7679H87.8375V21.1245H91.6267C92.4863 21.1245 93.2582 21.267 93.9599 21.5519C94.6616 21.8368 95.2581 22.2642 95.7492 22.7984C96.2405 23.3505 96.6264 24.0094 96.8896 24.7929Z" fill="white"/>
<path d="M112.277 19.3637V21.1445H104.611V26.5224H110.821V28.2319H104.611V33.7522H112.277V35.533H102.453V19.3281H112.277V19.3637Z" fill="white"/>
<path fill-rule="evenodd" clip-rule="evenodd" d="M117.75 35.5643V28.7975V28.7796H119.434C119.732 28.7796 119.96 28.833 120.1 28.9043C120.241 28.9933 120.381 29.118 120.504 29.296L124.644 35.0835C124.837 35.3862 125.135 35.5464 125.521 35.5464H127.433L122.784 29.118C122.574 28.8152 122.328 28.5837 122.065 28.4235C122.679 28.281 123.223 28.0672 123.714 27.7823C124.188 27.4975 124.609 27.1591 124.942 26.7673C125.276 26.3756 125.539 25.9304 125.714 25.4318C125.89 24.9331 125.977 24.3989 125.977 23.8291C125.977 23.1524 125.854 22.5291 125.626 21.9771C125.398 21.4251 125.03 20.9442 124.556 20.5525C124.083 20.1607 123.469 19.8758 122.732 19.6621C121.995 19.4662 121.135 19.3594 120.118 19.3594H115.609V35.5643H117.75ZM120.013 27.1947H117.75V21.0689H120.118C121.363 21.0689 122.293 21.3004 122.925 21.799C123.556 22.2976 123.872 23.0277 123.872 23.9893C123.872 24.4701 123.784 24.8975 123.626 25.2893C123.451 25.6811 123.205 26.0194 122.89 26.3043C122.556 26.5892 122.153 26.8029 121.679 26.9632C121.206 27.1235 120.644 27.1947 120.013 27.1947Z" fill="white"/>
</g>
<defs>
<clipPath id="clip0_2454_6984">
<rect width="127.536" height="55" fill="white"/>
</clipPath>
</defs>
</svg>
