<svg width="132" height="30" viewBox="0 0 132 30" fill="none" xmlns="http://www.w3.org/2000/svg">
<g clipPath="url(#clip0_2486_10965)">
<mask id="mask0_2486_10965" style="mask-type:luminance" maskUnits="userSpaceOnUse" x="0" y="0" width="36" height="30">
<path d="M35.1641 0.5H0.164062V29.5H35.1641V0.5Z" fill="white"/>
</mask>
<g mask="url(#mask0_2486_10965)">
<path d="M33.0028 18.1482C33.0028 18.8161 32.8785 19.455 32.651 20.044C31.8728 22.0559 29.8955 23.4849 27.5783 23.4849C25.2068 23.4849 23.1916 21.9879 22.4539 19.9017C18.0729 20.2115 15.5678 18.285 14.5262 14.613C11.8949 13.9089 9.96094 11.5419 9.96094 8.7298C9.96094 6.91105 10.7704 5.27794 12.0542 4.16159C13.1466 3.21005 14.5833 2.63281 16.1572 2.63281C17.9604 2.63281 19.5841 3.3903 20.715 4.60113C21.4757 4.1117 22.3847 3.828 23.3611 3.828C24.0425 3.828 24.6919 3.96673 25.2804 4.21685C26.9833 4.94001 28.1806 6.5965 28.2073 8.53138C28.2082 8.55396 28.2082 8.57571 28.2082 8.59846L28.2073 8.67913V8.68005C28.4549 8.62655 28.7119 8.59846 28.9763 8.59846C30.1569 8.59846 31.2059 9.15488 31.8671 10.0158H31.8682C32.3268 10.613 32.5984 11.357 32.5984 12.1635C32.6001 13 32.3006 13.81 31.753 14.4498C31.7119 14.4992 31.6691 14.5472 31.6249 14.594C32.4824 15.5373 33.0028 16.7833 33.0028 18.1482Z" fill="#F1F3F3"/>
<path d="M23.2962 8.29195C22.3148 9.34143 21.7155 10.7423 21.7155 12.281C21.7155 15.5353 24.3966 18.1734 27.7039 18.1734C28.1306 18.1736 28.5561 18.1292 28.9733 18.0408M15.8906 6.38991C16.0405 8.51809 17.8425 10.1988 20.0433 10.1988M26.6634 9.40843C27.1085 9.04451 27.6365 8.79209 28.2024 8.67268M20.71 4.59375C20.013 5.04043 19.44 5.65947 19.0543 6.38991" stroke="#103849" strokeWidth="0.736807" stroke-miterlimit="10" strokeLinecap="round" strokeLinejoin="round"/>
<path d="M32.995 18.1481C32.995 21.096 30.5664 23.4849 27.5705 23.4849C25.199 23.4849 23.1839 21.9879 22.446 19.9017C18.0651 20.2116 15.56 18.285 14.5184 14.613C11.8871 13.9089 9.95312 11.5419 9.95312 8.72973C9.95312 5.36235 12.727 2.63281 16.1494 2.63281C17.9525 2.63281 19.5763 3.3903 20.7072 4.60113C21.468 4.1117 22.377 3.828 23.3533 3.828C26.0305 3.828 28.2004 5.96406 28.2004 8.59848L28.1995 8.67915C28.4471 8.62565 28.704 8.59848 28.9685 8.59848C30.9688 8.59848 32.5907 10.1942 32.5907 12.1635C32.5907 13.1033 32.2214 13.957 31.6171 14.5939C32.4746 15.5373 32.995 16.7832 32.995 18.1481Z" stroke="#103849" strokeWidth="0.644662" stroke-miterlimit="10" strokeLinejoin="round"/>
<path d="M31.6166 14.5872C31.6166 14.5872 31.1961 14.1579 30.6209 13.7109M15.4414 24.2657C15.204 23.7777 15.0522 23.2538 14.9922 22.7159" stroke="#103849" strokeWidth="0.736807" stroke-miterlimit="10" strokeLinecap="round" strokeLinejoin="round"/>
<path d="M26.083 20.5592C26.2747 21.0827 26.3725 21.6349 26.3721 22.1913C26.3721 25.0532 23.8192 27.3722 20.6693 27.3722C18.3338 27.3722 16.3269 26.0971 15.4465 24.2711C14.7208 24.7559 13.8504 25.0387 12.9157 25.0387C10.8196 25.0387 9.05124 23.6195 8.49682 21.6784C8.10105 21.7755 7.69463 21.8245 7.2867 21.8243C4.54862 21.8243 2.32812 19.6402 2.32812 16.9452C2.32812 14.8753 3.63865 13.1064 5.48796 12.3987C5.41522 12.1023 5.37654 11.7952 5.37654 11.4798C5.37654 9.03575 7.68456 7.05469 10.5322 7.05469C12.1669 7.05469 13.6257 7.70887 14.5697 8.7275C15.3267 8.32785 16.1998 8.09866 17.1301 8.09866C20.0155 8.09866 22.3547 10.2999 22.3547 13.0149C22.355 13.0789 22.3534 13.1429 22.35 13.2069C24.7308 13.6364 26.5405 15.7879 26.5405 18.3778C26.5405 19.1562 26.3777 19.895 26.083 20.5592Z" fill="#F1F3F3"/>
<path d="M24.2291 18.1459C25.079 18.7639 25.7293 19.5995 26.0793 20.5582M8.49322 21.6774C8.37531 21.266 8.31266 20.8319 8.31266 20.3824C8.31266 18.5481 9.36165 16.9615 10.885 16.203M6.77563 12.0914C6.32438 12.1367 5.89149 12.241 5.48438 12.3977M14.5672 8.7274L14.5661 8.72656C13.9187 9.0709 13.357 9.54048 12.9177 10.1005" stroke="#103849" strokeWidth="0.736807" stroke-miterlimit="10" strokeLinecap="round" strokeLinejoin="round"/>
<path d="M26.0829 20.5592C26.2747 21.0827 26.3725 21.6349 26.372 22.1913C26.372 25.0532 23.8192 27.3722 20.6694 27.3722C18.3339 27.3722 16.3269 26.0971 15.4465 24.2711C14.7209 24.7559 13.8504 25.0387 12.9156 25.0387C10.8196 25.0387 9.05127 23.6195 8.49685 21.6784C8.10106 21.7755 7.69463 21.8245 7.2867 21.8243C4.54863 21.8243 2.32812 19.6402 2.32812 16.9452C2.32812 14.8753 3.63866 13.1064 5.48796 12.3987C5.41523 12.1023 5.37654 11.7952 5.37654 11.4798C5.37654 9.03575 7.68457 7.05469 10.5322 7.05469C12.1669 7.05469 13.6257 7.70887 14.5697 8.7275C15.3268 8.32785 16.1999 8.09866 17.1301 8.09866C20.0155 8.09866 22.3547 10.2999 22.3547 13.0149C22.3549 13.0789 22.3534 13.1429 22.35 13.2069C24.7309 13.6364 26.5405 15.7879 26.5405 18.3778C26.5405 19.1562 26.3776 19.895 26.0829 20.5592Z" stroke="#103849" strokeWidth="0.644662" stroke-miterlimit="10" strokeLinejoin="round"/>
<path d="M17.8968 14.6629C18.8141 13.7132 20.0804 13.125 21.4784 13.125C21.7768 13.125 22.0688 13.1513 22.3533 13.2028M22.0253 19.3758C21.3026 20.2651 20.1908 20.8347 18.9436 20.8347C16.7656 20.8347 15 19.0972 15 16.9542C14.9986 16.0594 15.3128 15.1918 15.8891 14.4996" stroke="#103849" strokeWidth="0.736807" stroke-miterlimit="10" strokeLinecap="round" strokeLinejoin="round"/>
<path d="M20.6866 22.7547C20.6866 21.9926 20.4913 21.2759 20.1468 20.6497M12.4447 20.2763C13.0949 19.3283 14.1072 18.6423 15.287 18.4094M5.41406 16.9431C5.9136 16.7483 6.4461 16.6484 6.98341 16.6486C7.84495 16.6474 8.68637 16.9048 9.39537 17.3863M13.5219 13.3717C13.2535 13.4494 12.9695 13.4911 12.6755 13.4911C11.8953 13.4921 11.1457 13.1924 10.5873 12.6562M26.4648 13.1825C26.8776 12.8794 27.379 12.7161 27.8941 12.7168C28.0372 12.7168 28.1801 12.7293 28.321 12.7542" stroke="#103849" strokeWidth="0.736807" stroke-miterlimit="10" strokeLinecap="round" strokeLinejoin="round"/>
<path d="M32.0484 14.5928C32.6121 13.9046 32.9195 13.0513 32.9195 12.1604C32.9195 10.0197 31.1499 8.27807 28.9749 8.27807C28.8229 8.27807 28.6712 8.28677 28.5208 8.3039C28.3669 5.63362 26.1107 3.50777 23.3596 3.50777C22.4423 3.50777 21.5512 3.74408 20.7662 4.19348C19.543 2.99072 17.885 2.31429 16.1557 2.3125C13.2573 2.3125 10.7958 4.18397 9.95089 6.76289C7.20359 7.01579 5.05616 9.0337 5.05616 11.478C5.05616 11.7213 5.07779 11.9649 5.1204 12.2053C3.22047 13.0431 2.00781 14.8746 2.00781 16.9434C2.00781 19.8086 4.37683 22.1397 7.28869 22.1397C7.62121 22.1397 7.95301 22.1091 8.27975 22.0484C8.97089 24.0091 10.8369 25.354 12.9177 25.354C13.762 25.3546 14.5916 25.1362 15.3227 24.7208C16.3522 26.5341 18.4116 27.6875 20.6713 27.6875C23.4226 27.6875 25.7476 25.9952 26.4658 23.6919C26.8271 23.762 27.1988 23.7989 27.5768 23.7989C30.7456 23.7989 33.3237 21.2624 33.3237 18.1449C33.3237 16.8463 32.8728 15.5956 32.0484 14.5928Z" stroke="#103849" strokeWidth="1.28939" stroke-miterlimit="10" strokeLinejoin="round"/>
<path d="M16.154 0.5C14.4513 0.5 12.8136 0.998878 11.4179 1.94259C10.2126 2.75744 9.25731 3.85653 8.62623 5.14709C5.55449 5.87956 3.3583 8.31188 3.21945 11.1881C1.31821 12.487 0.164062 14.6317 0.164062 16.9434C0.164062 20.7674 3.29295 23.886 7.16376 23.951C8.38601 25.9271 10.5649 27.1664 12.9159 27.1664C13.5165 27.1664 14.1067 27.0881 14.6792 26.9329C16.1609 28.5543 18.3378 29.4999 20.6696 29.4999C22.2491 29.4999 23.7791 29.0593 25.0941 28.2258C26.1627 27.5485 27.0237 26.6547 27.6196 25.6112C31.7839 25.5876 35.1639 22.2474 35.1639 18.145C35.1639 16.8775 34.8417 15.6477 34.2261 14.548C34.5779 13.7996 34.76 12.9849 34.7597 12.1603C34.7597 10.6669 34.1747 9.25469 33.1125 8.18397C32.2747 7.33955 31.2144 6.78174 30.0604 6.56589C29.6704 5.31999 28.9235 4.19745 27.9028 3.34189C26.6345 2.27959 25.0236 1.69587 23.358 1.69513C22.5816 1.69513 21.8025 1.82474 21.0684 2.07309C19.6423 1.05427 17.9236 0.5 16.154 0.5ZM16.154 1.67806C17.8802 1.67806 19.5731 2.30886 20.8699 3.42256C21.6477 3.0607 22.4974 2.87312 23.3578 2.87333C26.2236 2.87333 28.6299 4.92402 29.0921 7.64519C31.5676 7.70765 33.5623 9.7091 33.5623 12.1604C33.5615 13.0193 33.3124 13.8602 32.8443 14.5851C33.571 15.6269 33.9666 16.8734 33.9666 18.1451C33.9666 21.6124 31.0992 24.4334 27.575 24.4334C27.3471 24.4334 27.1182 24.4211 26.8906 24.3969C25.907 26.7331 23.4283 28.3219 20.6695 28.3219C18.3943 28.3219 16.3093 27.2719 15.086 25.5457C14.4009 25.8374 13.6624 25.9881 12.9159 25.9884C10.7409 25.9884 8.77373 24.7053 7.8679 22.7462C7.6749 22.7648 7.48074 22.774 7.28692 22.774C4.0196 22.774 1.36138 20.1584 1.36138 16.9434C1.36138 14.8089 2.54861 12.8534 4.42348 11.8379C4.41438 11.7182 4.40982 11.5981 4.4098 11.4779C4.4098 8.84094 6.55936 6.62543 9.47465 6.18174C10.5397 3.47144 13.1734 1.67806 16.154 1.67806Z" fill="#F1F3F3"/>
</g>
<path d="M43.9062 6.66719H47.9562V24.1672H43.9062V6.66719ZM71.0344 26.0422C70.4677 26.7422 69.7761 27.2755 68.9594 27.6422C68.1594 28.0089 67.2761 28.1922 66.3094 28.1922C65.0094 28.1922 63.8344 27.9089 62.7844 27.3422C61.7344 26.7922 60.5344 25.8089 59.1844 24.3922C57.6011 24.1922 56.1844 23.6839 54.9344 22.8672C53.7011 22.0505 52.7344 21.0005 52.0344 19.7172C51.3511 18.4172 51.0094 16.9839 51.0094 15.4172C51.0094 13.7005 51.4177 12.1589 52.2344 10.7922C53.0677 9.40885 54.2094 8.32552 55.6594 7.54219C57.1261 6.75885 58.7677 6.36719 60.5844 6.36719C62.4011 6.36719 64.0344 6.75885 65.4844 7.54219C66.9344 8.32552 68.0761 9.40885 68.9094 10.7922C69.7427 12.1589 70.1594 13.7005 70.1594 15.4172C70.1594 17.4505 69.5844 19.2339 68.4344 20.7672C67.3011 22.3005 65.7927 23.3672 63.9094 23.9672C64.3261 24.4005 64.7261 24.7089 65.1094 24.8922C65.5094 25.0922 65.9344 25.1922 66.3844 25.1922C67.4677 25.1922 68.4177 24.7589 69.2344 23.8922L71.0344 26.0422ZM55.1094 15.4172C55.1094 16.5005 55.3428 17.4672 55.8094 18.3172C56.2928 19.1672 56.9511 19.8339 57.7844 20.3172C58.6177 20.7839 59.5511 21.0172 60.5844 21.0172C61.6177 21.0172 62.5511 20.7839 63.3844 20.3172C64.2177 19.8339 64.8677 19.1672 65.3344 18.3172C65.8177 17.4672 66.0594 16.5005 66.0594 15.4172C66.0594 14.3339 65.8177 13.3672 65.3344 12.5172C64.8677 11.6672 64.2177 11.0089 63.3844 10.5422C62.5511 10.0589 61.6177 9.81719 60.5844 9.81719C59.5511 9.81719 58.6177 10.0589 57.7844 10.5422C56.9511 11.0089 56.2928 11.6672 55.8094 12.5172C55.3428 13.3672 55.1094 14.3339 55.1094 15.4172ZM73.9148 24.3672C73.2315 24.3672 72.6565 24.1339 72.1898 23.6672C71.7232 23.2005 71.4898 22.6172 71.4898 21.9172C71.4898 21.2005 71.7232 20.6255 72.1898 20.1922C72.6565 19.7422 73.2315 19.5172 73.9148 19.5172C74.5982 19.5172 75.1732 19.7422 75.6398 20.1922C76.1065 20.6255 76.3398 21.2005 76.3398 21.9172C76.3398 22.6172 76.1065 23.2005 75.6398 23.6672C75.1732 24.1339 74.5982 24.3672 73.9148 24.3672ZM99.7771 10.7172L94.9021 24.1672H91.1521L88.1271 15.8172L85.0021 24.1672H81.2522L76.4022 10.7172H80.0772L83.2522 19.8172L86.5521 10.7172H89.8521L93.0521 19.8172L96.3271 10.7172H99.7771ZM101.59 10.7172H105.49V24.1672H101.59V10.7172ZM103.54 8.84219C102.824 8.84219 102.24 8.63385 101.79 8.21719C101.34 7.80052 101.115 7.28385 101.115 6.66719C101.115 6.05052 101.34 5.53385 101.79 5.11719C102.24 4.70052 102.824 4.49219 103.54 4.49219C104.257 4.49219 104.84 4.69219 105.29 5.09219C105.74 5.49219 105.965 5.99219 105.965 6.59219C105.965 7.24219 105.74 7.78385 105.29 8.21719C104.84 8.63385 104.257 8.84219 103.54 8.84219ZM114.885 18.8922L113.01 20.7422V24.1672H109.11V5.61719H113.01V16.1172L118.71 10.7172H123.36L117.76 16.4172L123.86 24.1672H119.135L114.885 18.8922ZM125.516 10.7172H129.416V24.1672H125.516V10.7172ZM127.466 8.84219C126.75 8.84219 126.166 8.63385 125.716 8.21719C125.266 7.80052 125.041 7.28385 125.041 6.66719C125.041 6.05052 125.266 5.53385 125.716 5.11719C126.166 4.70052 126.75 4.49219 127.466 4.49219C128.183 4.49219 128.766 4.69219 129.216 5.09219C129.666 5.49219 129.891 5.99219 129.891 6.59219C129.891 7.24219 129.666 7.78385 129.216 8.21719C128.766 8.63385 128.183 8.84219 127.466 8.84219Z" fill="#F1F3F3"/>
</g>
<defs>
<clipPath id="clip0_2486_10965">
<rect width="131.667" height="30" fill="white" transform="translate(0.164062)"/>
</clipPath>
</defs>
</svg>
