<svg width="150" height="24" viewBox="0 0 150 24" fill="none" xmlns="http://www.w3.org/2000/svg">
<g clipPath="url(#clip0_2486_10874)">
<mask id="mask0_2486_10874" style="mask-type:luminance" maskUnits="userSpaceOnUse" x="0" y="0" width="150" height="24">
<path d="M150 0H0V24H150V0Z" fill="white"/>
</mask>
<g mask="url(#mask0_2486_10874)">
<path d="M50.1989 11.9994C50.1989 14.5648 49.2539 16.7026 47.364 18.4129L49.3924 20.47H47.0708L46.0201 19.4051C44.6679 20.228 43.2178 20.6394 41.6701 20.6394C39.4708 20.6394 37.4915 19.8166 35.732 18.1709C33.9887 16.509 33.1172 14.4519 33.1172 11.9994C33.1172 9.54694 33.9887 7.49786 35.732 5.85216C37.4915 4.1903 39.4708 3.35938 41.6701 3.35938C43.9184 3.35938 45.8979 4.18225 47.6085 5.82794C49.3354 7.47368 50.1989 9.53082 50.1989 11.9994ZM41.6701 18.7275C42.7617 18.7275 43.7475 18.4855 44.627 18.0014L41.0104 14.3228H43.332L45.9955 17.0334C47.364 15.7265 48.0483 14.0485 48.0483 11.9994C48.0483 10.031 47.421 8.41752 46.1667 7.15903C44.9285 5.88441 43.4297 5.24709 41.6701 5.24709C40.0084 5.24709 38.526 5.88441 37.2227 7.15903C35.9355 8.43367 35.2922 10.0471 35.2922 11.9994C35.2922 13.9356 35.9355 15.5409 37.2227 16.8156C38.526 18.0902 40.0084 18.7275 41.6701 18.7275Z" fill="white"/>
<path d="M62.0439 7.88281H63.9988V20.4677H62.0439V17.4183C61.881 18.1121 61.3923 18.822 60.5775 19.548C59.763 20.2741 58.7366 20.6371 57.4986 20.6371C56.1301 20.6371 54.9978 20.2015 54.1017 19.3302C53.2056 18.459 52.7578 17.1117 52.7578 15.2885V7.88281H54.7126V15.2401C54.7126 16.5147 54.9895 17.4505 55.5435 18.0475C56.0975 18.6445 56.8467 18.943 57.7918 18.943C58.8508 18.943 59.7712 18.5396 60.5531 17.7329C61.335 16.91 61.832 16.0226 62.0439 15.0707V7.88281Z" fill="white"/>
<path d="M68.9949 3.53125V5.34637H67.0156V3.53125H68.9949ZM68.9949 7.88754V20.4724H67.0156V7.88754H68.9949Z" fill="white"/>
<path d="M74.1667 3.53125V20.4724H72.1875V3.53125H74.1667Z" fill="white"/>
<path d="M79.2295 3.53125V20.4724H77.25V3.53125H79.2295Z" fill="white"/>
<path d="M95.4263 20.4724L93.3002 15.7531H85.6758L83.5498 20.4724H81.375L89.268 3.53125H89.708L97.5767 20.4724H95.4263ZM86.4334 14.059H92.5427L89.4882 7.23409L86.4334 14.059Z" fill="white"/>
<path d="M108.701 7.88281H110.656V20.4677H108.701V17.4183C108.538 18.1121 108.049 18.822 107.234 19.548C106.42 20.2741 105.393 20.6371 104.155 20.6371C102.787 20.6371 101.655 20.2015 100.758 19.3302C99.8622 18.459 99.4141 17.1117 99.4141 15.2885V7.88281H101.369V15.2401C101.369 16.5147 101.646 17.4505 102.2 18.0475C102.754 18.6445 103.504 18.943 104.449 18.943C105.507 18.943 106.428 18.5396 107.21 17.7329C107.992 16.91 108.489 16.0226 108.701 15.0707V7.88281Z" fill="white"/>
<path d="M123.488 3.53125H125.443V20.4724H123.488V18.0038C123.146 18.7783 122.576 19.4156 121.777 19.9158C120.979 20.3998 120.091 20.6418 119.114 20.6418C117.582 20.6418 116.197 20.069 114.959 18.9235C113.721 17.778 113.102 16.1968 113.102 14.18C113.102 13.1474 113.289 12.2116 113.664 11.3726C114.039 10.5175 114.519 9.83982 115.106 9.33966C115.692 8.82335 116.328 8.42804 117.012 8.15377C117.712 7.87948 118.413 7.74234 119.114 7.74234C120.107 7.74234 121.003 7.97629 121.802 8.4442C122.6 8.91208 123.162 9.5252 123.488 10.2835V3.53125ZM116.377 17.6892C117.256 18.5282 118.25 18.9477 119.358 18.9477C120.466 18.9477 121.443 18.5443 122.29 17.7376C123.138 16.9148 123.561 15.7289 123.561 14.18C123.561 12.6311 123.138 11.4533 122.29 10.6465C121.443 9.83982 120.466 9.43645 119.358 9.43645C118.25 9.43645 117.256 9.85595 116.377 10.6949C115.497 11.5339 115.057 12.6956 115.057 14.18C115.057 15.6643 115.497 16.8341 116.377 17.6892Z" fill="white"/>
<path d="M130.3 3.53125V5.34637H128.32V3.53125H130.3ZM130.3 7.88754V20.4724H128.32V7.88754H130.3Z" fill="white"/>
<path d="M137.287 18.925C137.841 18.925 138.403 18.796 138.973 18.5378V20.1835C138.387 20.4739 137.662 20.6192 136.799 20.6192C135.153 20.6192 134.33 19.7237 134.33 17.9328V9.48641H132.766V7.88909H134.33V5.71094H136.285V7.88909H138.949V9.48641H136.285V17.7634C136.285 18.5378 136.619 18.925 137.287 18.925Z" fill="white"/>
<path d="M147.777 10.8884C147.206 9.88808 146.359 9.38789 145.235 9.38789C144.616 9.38789 144.111 9.54924 143.72 9.87192C143.345 10.1785 143.158 10.5577 143.158 11.0094C143.158 11.4289 143.288 11.7839 143.549 12.0743C143.826 12.3647 144.298 12.6229 144.966 12.8488L146.261 13.3086C147.516 13.7442 148.452 14.2202 149.071 14.7365C149.691 15.2528 150 16.0111 150 17.0114C150 18.1086 149.52 18.9879 148.558 19.6494C147.597 20.3109 146.522 20.6417 145.333 20.6417C144.209 20.6417 143.182 20.3432 142.254 19.7462C141.325 19.1492 140.722 18.3506 140.445 17.3502L142.156 16.8904C142.368 17.5197 142.775 18.0279 143.378 18.4151C143.98 18.7862 144.632 18.9718 145.333 18.9718C146.017 18.9718 146.628 18.7943 147.166 18.4393C147.703 18.0682 147.972 17.5923 147.972 17.0114C147.972 16.5113 147.801 16.0998 147.459 15.7772C147.117 15.4545 146.595 15.1721 145.895 14.9301L144.429 14.4219C143.256 14.0024 142.416 13.5345 141.911 13.0181C141.406 12.5018 141.154 11.8403 141.154 11.0336C141.154 10.0978 141.545 9.31527 142.327 8.68604C143.125 8.05678 144.086 7.74219 145.21 7.74219C147.247 7.74219 148.697 8.63765 149.56 10.4286L147.777 10.8884Z" fill="white"/>
<path d="M25.8008 13.4591L14.6214 23.9984L13.6328 22.5088L24.2036 12.2302V12.1929L16.0283 4.07429L16.6367 2.39844L26.2951 12.1184L25.8008 13.4591Z" fill="white"/>
<path d="M0.457675 10.5765L11.6707 0L12.6623 1.48966L2.05954 11.8055V11.8427L10.2977 19.9241L9.68744 21.6L0 11.9172L0.457675 10.5765Z" fill="white"/>
<path fill-rule="evenodd" clip-rule="evenodd" d="M8.52344 17.0409C8.63742 16.6442 8.78942 16.2871 8.94139 15.93C9.58736 14.5413 10.2626 13.3113 11.2125 12.1607C12.4664 10.6927 13.6404 9.12963 15.2695 8.10459C16.0089 7.6394 16.9707 7.25012 17.7687 6.97239C17.8066 6.93272 17.6927 7.01206 17.7687 6.97239L17.3911 7.6394C16.9092 8.41479 16.62 8.99633 16.1609 9.66109C16.1229 9.74043 16.0849 9.74043 16.0089 9.74043C15.7049 9.81977 15.3629 9.89914 15.0209 9.89914C15.1349 10.0578 15.3249 10.1372 15.4769 10.2165C15.5529 10.2562 15.7049 10.2562 15.7429 10.3752C15.7429 10.4546 15.6289 10.5737 15.5909 10.653C15.5149 10.8514 15.3629 10.9704 15.1729 11.0101C14.869 11.0894 14.565 11.1688 14.223 11.1688C14.223 11.2481 14.261 11.2481 14.299 11.2878C14.489 11.4465 14.717 11.5655 14.9449 11.6449C15.0209 11.6846 15.0209 11.7242 14.9829 11.8036C14.9069 12.002 14.755 12.0814 14.565 12.121C14.071 12.2797 13.577 12.3988 13.0831 12.4384H13.0451C13.1591 12.5575 13.273 12.6368 13.3871 12.7162C13.615 12.8352 13.843 12.9145 14.109 12.9939C14.147 12.9939 14.185 13.0336 14.147 13.0733C13.957 13.351 13.767 13.6288 13.501 13.8271C13.3111 14.0255 13.0831 14.0255 12.8171 14.0255H11.9432C11.7152 14.0255 11.4872 14.0255 11.2592 14.0652C11.0692 14.1048 10.9172 14.1842 10.8032 14.3429C10.4233 14.7794 10.1953 15.3348 9.92934 15.8506L9.81533 16.0887C9.73934 16.4061 9.54935 16.5648 9.28337 16.6838C9.0554 16.7235 8.78942 16.8822 8.52344 17.0409Z" fill="white"/>
</g>
</g>
<defs>
<clipPath id="clip0_2486_10874">
<rect width="150" height="24" fill="white"/>
</clipPath>
</defs>
</svg>
