<svg width="150" height="25" viewBox="0 0 150 25" fill="none" xmlns="http://www.w3.org/2000/svg">
<g clipPath="url(#clip0_2454_7040)">
<mask id="mask0_2454_7040" style="mask-type:luminance" maskUnits="userSpaceOnUse" x="0" y="0" width="150" height="25">
<path d="M150 0.476562H0V24.4766H150V0.476562Z" fill="white"/>
</mask>
<g mask="url(#mask0_2454_7040)">
<path d="M50.1989 12.4759C50.1989 15.0413 49.2539 17.1791 47.364 18.8894L49.3924 20.9465H47.0708L46.0201 19.8816C44.6679 20.7045 43.2178 21.1159 41.6701 21.1159C39.4708 21.1159 37.4915 20.2931 35.732 18.6474C33.9887 16.9855 33.1172 14.9284 33.1172 12.4759C33.1172 10.0235 33.9887 7.97443 35.732 6.32872C37.4915 4.66686 39.4708 3.83594 41.6701 3.83594C43.9184 3.83594 45.8979 4.6588 47.6085 6.3045C49.3354 7.95023 50.1989 10.0074 50.1989 12.4759ZM41.6701 19.204C42.7617 19.204 43.7475 18.962 44.627 18.478L41.0104 14.7993H43.332L45.9955 17.5099C47.364 16.203 48.0483 14.525 48.0483 12.4759C48.0483 10.5075 47.421 8.89408 46.1667 7.63559C44.9285 6.36098 43.4297 5.72366 41.6701 5.72366C40.0084 5.72366 38.526 6.36098 37.2227 7.63559C35.9355 8.91023 35.2922 10.5237 35.2922 12.4759C35.2922 14.4121 35.9355 16.0175 37.2227 17.2921C38.526 18.5667 40.0084 19.204 41.6701 19.204Z" fill="white"/>
<path d="M62.0439 8.35938H63.9988V20.9443H62.0439V17.8949C61.881 18.5886 61.3923 19.2986 60.5775 20.0246C59.763 20.7507 58.7366 21.1137 57.4986 21.1137C56.1301 21.1137 54.9978 20.6781 54.1017 19.8068C53.2056 18.9355 52.7578 17.5883 52.7578 15.7651V8.35938H54.7126V15.7167C54.7126 16.9913 54.9895 17.9271 55.5435 18.5241C56.0975 19.1211 56.8467 19.4196 57.7918 19.4196C58.8508 19.4196 59.7712 19.0162 60.5531 18.2095C61.335 17.3866 61.832 16.4992 62.0439 15.5473V8.35938Z" fill="white"/>
<path d="M68.9949 4.00781V5.82293H67.0156V4.00781H68.9949ZM68.9949 8.36409V20.949H67.0156V8.36409H68.9949Z" fill="white"/>
<path d="M74.1667 4.00781V20.949H72.1875V4.00781H74.1667Z" fill="white"/>
<path d="M79.2295 4.00781V20.949H77.25V4.00781H79.2295Z" fill="white"/>
<path d="M95.4263 20.949L93.3002 16.2297H85.6758L83.5498 20.949H81.375L89.268 4.00781H89.708L97.5767 20.949H95.4263ZM86.4334 14.5356H92.5427L89.4882 7.71065L86.4334 14.5356Z" fill="white"/>
<path d="M108.701 8.35938H110.656V20.9443H108.701V17.8949C108.538 18.5886 108.049 19.2986 107.234 20.0246C106.42 20.7507 105.393 21.1137 104.155 21.1137C102.787 21.1137 101.655 20.6781 100.758 19.8068C99.8622 18.9355 99.4141 17.5883 99.4141 15.7651V8.35938H101.369V15.7167C101.369 16.9913 101.646 17.9271 102.2 18.5241C102.754 19.1211 103.504 19.4196 104.449 19.4196C105.507 19.4196 106.428 19.0162 107.21 18.2095C107.992 17.3866 108.489 16.4992 108.701 15.5473V8.35938Z" fill="white"/>
<path d="M123.488 4.00781H125.443V20.949H123.488V18.4805C123.146 19.2549 122.576 19.8922 121.777 20.3924C120.979 20.8764 120.091 21.1184 119.114 21.1184C117.582 21.1184 116.197 20.5457 114.959 19.4001C113.721 18.2546 113.102 16.6734 113.102 14.6566C113.102 13.624 113.289 12.6882 113.664 11.8492C114.039 10.9941 114.519 10.3164 115.106 9.81622C115.692 9.2999 116.328 8.9046 117.012 8.63033C117.712 8.35603 118.413 8.2189 119.114 8.2189C120.107 8.2189 121.003 8.45285 121.802 8.92075C122.6 9.38863 123.162 10.0018 123.488 10.7601V4.00781ZM116.377 18.1658C117.256 19.0048 118.25 19.4243 119.358 19.4243C120.466 19.4243 121.443 19.021 122.29 18.2143C123.138 17.3914 123.561 16.2055 123.561 14.6566C123.561 13.1077 123.138 11.9299 122.29 11.1231C121.443 10.3164 120.466 9.91301 119.358 9.91301C118.25 9.91301 117.256 10.3325 116.377 11.1715C115.497 12.0105 115.057 13.1722 115.057 14.6566C115.057 16.141 115.497 17.3107 116.377 18.1658Z" fill="white"/>
<path d="M130.3 4.00781V5.82293H128.32V4.00781H130.3ZM130.3 8.36409V20.949H128.32V8.36409H130.3Z" fill="white"/>
<path d="M137.287 19.4016C137.841 19.4016 138.403 19.2725 138.973 19.0144V20.6601C138.387 20.9505 137.662 21.0958 136.799 21.0958C135.153 21.0958 134.33 20.2003 134.33 18.4094V9.96296H132.766V8.36564H134.33V6.1875H136.285V8.36564H138.949V9.96296H136.285V18.2399C136.285 19.0144 136.619 19.4016 137.287 19.4016Z" fill="white"/>
<path d="M147.777 11.3649C147.206 10.3646 146.359 9.86445 145.235 9.86445C144.616 9.86445 144.111 10.0258 143.72 10.3485C143.345 10.655 143.158 11.0342 143.158 11.4859C143.158 11.9054 143.288 12.2604 143.549 12.5508C143.826 12.8412 144.298 13.0995 144.966 13.3254L146.261 13.7852C147.516 14.2208 148.452 14.6967 149.071 15.213C149.691 15.7293 150 16.4876 150 17.4879C150 18.5851 149.52 19.4644 148.558 20.1259C147.597 20.7874 146.522 21.1182 145.333 21.1182C144.209 21.1182 143.182 20.8197 142.254 20.2227C141.325 19.6257 140.722 18.8271 140.445 17.8267L142.156 17.3669C142.368 17.9962 142.775 18.5044 143.378 18.8916C143.98 19.2627 144.632 19.4483 145.333 19.4483C146.017 19.4483 146.628 19.2708 147.166 18.9158C147.703 18.5447 147.972 18.0688 147.972 17.4879C147.972 16.9878 147.801 16.5763 147.459 16.2537C147.117 15.931 146.595 15.6487 145.895 15.4067L144.429 14.8984C143.256 14.4789 142.416 14.0111 141.911 13.4947C141.406 12.9784 141.154 12.3168 141.154 11.5101C141.154 10.5743 141.545 9.79183 142.327 9.1626C143.125 8.53334 144.086 8.21875 145.21 8.21875C147.247 8.21875 148.697 9.11421 149.56 10.9051L147.777 11.3649Z" fill="white"/>
<path d="M25.8008 13.9357L14.6214 24.475L13.6328 22.9854L24.2036 12.7067V12.6695L16.0283 4.55085L16.6367 2.875L26.2951 12.595L25.8008 13.9357Z" fill="white"/>
<path d="M0.457675 11.0531L11.6707 0.476562L12.6623 1.96621L2.05954 12.2821V12.3193L10.2977 20.4007L9.68744 22.0766L0 12.3938L0.457675 11.0531Z" fill="white"/>
<path fill-rule="evenodd" clip-rule="evenodd" d="M8.52344 17.5175C8.63742 17.1207 8.78942 16.7637 8.94139 16.4066C9.58736 15.0179 10.2626 13.7879 11.2125 12.6373C12.4664 11.1693 13.6404 9.60619 15.2695 8.58115C16.0089 8.11596 16.9707 7.72668 17.7687 7.44895C17.8066 7.40928 17.6927 7.48863 17.7687 7.44895L17.3911 8.11596C16.9092 8.89135 16.62 9.4729 16.1609 10.1377C16.1229 10.217 16.0849 10.217 16.0089 10.217C15.7049 10.2963 15.3629 10.3757 15.0209 10.3757C15.1349 10.5344 15.3249 10.6138 15.4769 10.6931C15.5529 10.7328 15.7049 10.7328 15.7429 10.8518C15.7429 10.9312 15.6289 11.0502 15.5909 11.1296C15.5149 11.3279 15.3629 11.447 15.1729 11.4867C14.869 11.566 14.565 11.6454 14.223 11.6454C14.223 11.7247 14.261 11.7247 14.299 11.7644C14.489 11.9231 14.717 12.0421 14.9449 12.1215C15.0209 12.1612 15.0209 12.2008 14.9829 12.2802C14.9069 12.4786 14.755 12.5579 14.565 12.5976C14.071 12.7563 13.577 12.8753 13.0831 12.915H13.0451C13.1591 13.0341 13.273 13.1134 13.3871 13.1928C13.615 13.3118 13.843 13.3911 14.109 13.4705C14.147 13.4705 14.185 13.5102 14.147 13.5498C13.957 13.8276 13.767 14.1053 13.501 14.3037C13.3111 14.5021 13.0831 14.5021 12.8171 14.5021H11.9432C11.7152 14.5021 11.4872 14.5021 11.2592 14.5418C11.0692 14.5814 10.9172 14.6608 10.8032 14.8195C10.4233 15.2559 10.1953 15.8114 9.92934 16.3272L9.81533 16.5652C9.73934 16.8827 9.54935 17.0414 9.28337 17.1604C9.0554 17.2001 8.78942 17.3588 8.52344 17.5175Z" fill="white"/>
</g>
</g>
<defs>
<clipPath id="clip0_2454_7040">
<rect width="150" height="24" fill="white" transform="translate(0 0.476562)"/>
</clipPath>
</defs>
</svg>
