<svg width="122" height="36" viewBox="0 0 122 36" fill="none" xmlns="http://www.w3.org/2000/svg">
<g clipPath="url(#clip0_2486_10953)">
<path d="M16.8924 4.8849H17.0831V4.69418V4.10083C17.0831 3.34258 16.8071 2.69288 16.2608 2.16272C15.7146 1.63277 15.0478 1.36719 14.2715 1.36719H3.78813C3.01193 1.36719 2.34508 1.63277 1.79889 2.16271C1.25248 2.69288 0.976562 3.34258 0.976562 4.10083V7.5126C0.976562 8.27085 1.25248 8.92055 1.79889 9.45071C2.34508 9.98066 3.01193 10.2462 3.78813 10.2462H14.2715C14.4574 10.2462 14.6055 10.3063 14.7284 10.4255L14.7345 10.4311C14.8701 10.5518 14.9326 10.6913 14.9326 10.8608V14.2726C14.9326 14.4427 14.8693 14.5923 14.7284 14.729C14.6055 14.8482 14.4574 14.9082 14.2715 14.9082H3.78813C3.60484 14.9082 3.448 14.8496 3.30958 14.7288C3.18556 14.5951 3.12708 14.4456 3.12708 14.2726V13.6792V13.4885H2.93635H1.16728H0.976562V13.6792V14.2726C0.976562 15.0308 1.25248 15.6805 1.79889 16.2107C2.34508 16.7406 3.01193 17.0062 3.78813 17.0062H14.2715C15.0478 17.0062 15.7146 16.7406 16.2608 16.2107C16.8071 15.6805 17.0831 15.0308 17.0831 14.2726V10.8608C17.0831 10.1025 16.8071 9.45282 16.2608 8.92266C15.7146 8.39271 15.0478 8.12713 14.2715 8.12713H3.78813C3.60346 8.12713 3.44566 8.06761 3.30648 7.94501C3.18584 7.82665 3.12708 7.6864 3.12708 7.5126V4.10083C3.12708 3.92562 3.1868 3.78452 3.30941 3.66556C3.45033 3.52883 3.60718 3.4651 3.78813 3.4651H14.2715C14.452 3.4651 14.5984 3.52821 14.7226 3.65965L14.7345 3.67118C14.8701 3.79181 14.9326 3.93136 14.9326 4.10083V4.69418V4.8849H15.1233H16.8924ZM35.0522 1.36719H34.9651L34.9081 1.43307L29.1119 8.12713H24.3228V1.55791V1.36719H24.132H22.3411H22.1504V1.55791V16.8155V17.0062H22.3411H24.132H24.3228V16.8155V10.2462H29.1119L34.9081 16.9403L34.9651 17.0062H35.0522H37.3455H37.7625L37.4898 16.6907L31.0016 9.18647L37.4681 1.68241L37.7398 1.36719H37.3236H35.0522ZM56.9469 1.36719H56.8558L56.7985 1.43803L50.9181 8.71471L44.9731 1.43725L44.9159 1.36719H44.8254H42.7943H42.4099L42.6424 1.67329L49.8328 11.1369V16.8155V17.0062H50.0234H51.7925H51.9833V16.8155V11.1369L59.1735 1.67329L59.4061 1.36719H59.0216H56.9469ZM78.4265 1.36719H78.2358V1.55791V14.3546L67.0389 1.43301L66.9818 1.36719H66.8948H64.4704H64.2798V1.55791V16.8155V17.0062H64.4704H66.2395H66.4303V16.8155V4.01881L77.6271 16.9403L77.6841 17.0062H77.7713H80.1955H80.3863V16.8155V1.55791V1.36719H80.1955H78.4265ZM100.184 1.55791V1.36719H99.9934H85.6442H85.4535V1.55791V16.8155V17.0062H85.6442H99.9934H100.184V16.8155V15.099V14.9082H99.9934H87.604V10.2462H97.5255H97.7161V10.0555V8.31785V8.12713H97.5255H87.604V3.4651H99.9934H100.184V3.27438V1.55791ZM105.442 1.36719H105.251V1.55791V3.27438V3.4651H105.442H112.24V16.8155V17.0062H112.431H114.2H114.391V16.8155V3.4651H121.167H121.358V3.27438V1.55791V1.36719H121.167H105.442Z" fill="#F1F3F3" stroke="#F1F3F3" strokeWidth="0.381439"/>
<path d="M1.16406 30.625H30.3173" stroke="#F1F3F3" strokeWidth="1.2206"/>
<path d="M47.2513 30.3409C47.555 30.6093 47.7069 30.9483 47.7069 31.358V33.0639C47.7069 33.4454 47.5728 33.7702 47.3043 34.0386C47.0359 34.3071 46.7109 34.4412 46.3295 34.4412H40.0781V26.8125H46.0116C46.393 26.8125 46.718 26.9467 46.9864 27.2151C47.2549 27.4836 47.389 27.8085 47.389 28.1899V29.7475C47.389 29.9452 47.3431 30.143 47.2513 30.3409ZM46.0116 27.9569H41.4555C41.392 27.9569 41.3355 27.9815 41.286 28.031C41.2436 28.0734 41.2225 28.1264 41.2225 28.1899V29.7475C41.2225 29.811 41.2436 29.8675 41.286 29.917C41.3355 29.9594 41.392 29.9806 41.4555 29.9806H46.0116C46.0753 29.9806 46.1281 29.9594 46.1705 29.917C46.22 29.8675 46.2448 29.811 46.2448 29.7475V28.1899C46.2448 28.1264 46.22 28.0734 46.1705 28.031C46.1281 27.9815 46.0753 27.9569 46.0116 27.9569ZM46.5626 33.0639V31.358C46.5626 31.2944 46.5379 31.2415 46.4884 31.1991C46.446 31.1496 46.393 31.1249 46.3295 31.1249H41.4555C41.392 31.1249 41.3355 31.1496 41.286 31.1991C41.2436 31.2415 41.2225 31.2944 41.2225 31.358V33.0639C41.2225 33.1275 41.2436 33.184 41.286 33.2334C41.3355 33.2757 41.392 33.297 41.4555 33.297H46.3295C46.393 33.297 46.446 33.2757 46.4884 33.2334C46.5379 33.184 46.5626 33.1275 46.5626 33.0639Z" fill="#F1F3F3"/>
<path d="M57.0266 26.8125H58.3829L54.8651 31.5805V34.4412H53.7209V31.5805L50.2031 26.8125H51.5487L54.293 30.2879L57.0266 26.8125Z" fill="#F1F3F3"/>
<path d="M74.8889 27.9567H68.6588C68.5951 27.9567 68.5386 27.9815 68.4891 28.0309C68.4468 28.0732 68.4256 28.1263 68.4256 28.1899V33.0637C68.4256 33.1274 68.4468 33.1839 68.4891 33.2334C68.5386 33.2757 68.5951 33.2969 68.6588 33.2969H74.8889V34.4412H68.6588C68.2773 34.4412 67.9524 34.307 67.6839 34.0386C67.4155 33.7701 67.2812 33.4452 67.2812 33.0637V28.1899C67.2812 27.8084 67.4155 27.4835 67.6839 27.2151C67.9524 26.9466 68.2773 26.8125 68.6588 26.8125H74.8889V27.9567Z" fill="#F1F3F3"/>
<path d="M85.1259 26.8125V27.9567H79.2772V30.0546H83.9816V31.199H79.2772V33.2969H85.1259V34.4412H78.1328V26.8125H85.1259Z" fill="#F1F3F3"/>
<path d="M95.9569 28.2056V30.3459C95.9569 30.7202 95.8226 31.0451 95.5542 31.3206C95.2857 31.5891 94.9609 31.7232 94.5794 31.7232H93.806L95.9569 34.2874V34.4464H94.6006L92.312 31.7232H89.7055C89.649 31.7232 89.5712 31.7163 89.4724 31.7021V34.4464H88.3281V26.8281H94.5794C94.9609 26.8281 95.2857 26.9659 95.5542 27.2414C95.8226 27.5097 95.9569 27.8312 95.9569 28.2056ZM89.7055 30.579H94.5794C94.643 30.579 94.696 30.5578 94.7384 30.5154C94.7877 30.466 94.8125 30.4095 94.8125 30.3459V28.2056C94.8125 28.142 94.7877 28.089 94.7384 28.0466C94.696 27.9973 94.643 27.9725 94.5794 27.9725H89.7055C89.6419 27.9725 89.5854 27.9973 89.536 28.0466C89.4936 28.089 89.4724 28.142 89.4724 28.2056V30.3459C89.4724 30.4095 89.4936 30.466 89.536 30.5154C89.5854 30.5578 89.6419 30.579 89.7055 30.579Z" fill="#F1F3F3"/>
<path d="M98.8203 26.8125H106.449V27.9567H103.207V34.4412H102.062V27.9567H98.8203V26.8125Z" fill="#F1F3F3"/>
<path d="M109.375 34.4412V26.8125H110.519V34.4412H109.375Z" fill="#F1F3F3"/>
<path d="M119.807 26.8125H121.163V26.9714L118.101 30.6269L121.163 34.2822V34.4412H119.807L117.084 31.199H114.965V34.4412H113.82V26.8125H114.965V30.0546H117.084L119.807 26.8125Z" fill="#F1F3F3"/>
</g>
<defs>
<clipPath id="clip0_2486_10953">
<rect width="121.25" height="35" fill="white" transform="translate(0.664062 0.5)"/>
</clipPath>
</defs>
</svg>
