<svg width="39" height="39" viewBox="0 0 39 39" fill="none" xmlns="http://www.w3.org/2000/svg">
<g clipPath="url(#clip0_2498_6958)">
<path d="M16.5898 1.19234C16.2699 2.44792 15.4954 3.37311 14.6009 3.71801C14.1 3.91113 14.1027 4.61854 14.6031 4.81205C15.4975 5.1579 16.2702 6.08598 16.5875 7.3423C16.7372 7.93488 17.575 7.93477 17.725 7.3423C18.0431 6.08624 18.8156 5.1602 19.7106 4.81663C20.2117 4.62426 20.2147 3.91673 19.715 3.72259C18.8212 3.37528 18.0442 2.44816 17.7249 1.19234C17.6601 0.937584 17.4419 0.749984 17.1574 0.75C16.8728 0.750016 16.6517 0.949727 16.5898 1.19234ZM34.7504 3.6791C34.4305 4.93469 33.656 5.85987 32.7614 6.20477C32.2606 6.39788 32.2634 7.10533 32.7637 7.29881C33.658 7.64469 34.4307 8.57274 34.7481 9.82906C34.8978 10.4216 35.7356 10.4215 35.8856 9.82906C36.2036 8.573 36.9761 7.64695 37.8711 7.30339C38.3723 7.11101 38.3762 6.40374 37.8756 6.20935C36.9817 5.8623 36.2047 4.93493 35.8854 3.6791C35.8206 3.42401 35.602 3.23622 35.318 3.23622C35.0339 3.23622 34.8123 3.43616 34.7504 3.6791ZM3.11331 10.5615C2.79344 11.8171 2.01885 12.7422 1.12434 13.0871C0.623518 13.2802 0.626186 13.9877 1.12656 14.1812C2.02092 14.527 2.79364 15.4551 3.11097 16.7114C3.26064 17.304 4.09849 17.3039 4.2485 16.7114C4.56653 15.4554 5.33904 14.5293 6.23406 14.1858C6.73522 13.9934 6.7392 13.2861 6.23849 13.0917C5.34464 12.7447 4.56763 11.8173 4.24837 10.5615C4.18352 10.3064 3.96486 10.1186 3.68084 10.1186C3.39682 10.1186 3.17521 10.3185 3.11331 10.5615ZM18.0352 11.8821C16.8991 11.8821 15.9845 12.7967 15.9845 13.9328C15.9845 15.069 16.8991 15.9836 18.0352 15.9836H35.0274C36.1635 15.9836 37.0782 15.069 37.0782 13.9328C37.0782 12.7967 36.1635 11.8821 35.0274 11.8821H18.0352ZM11.8841 15.9824C5.74273 15.9824 0.750127 20.9748 0.750127 27.1162C0.750127 33.2577 5.74273 38.25 11.8841 38.25C18.0254 38.25 23.0168 33.2577 23.0168 27.1162C23.0168 20.9748 18.0254 15.9824 11.8841 15.9824ZM19.0732 17.1554C20.5642 18.2358 21.8134 19.6316 22.6987 21.2569H31.5118C32.6479 21.2569 33.5625 20.3423 33.5625 19.2062C33.5625 18.0701 32.6479 17.1554 31.5118 17.1554H19.0732ZM11.8806 18.6214C16.5785 18.6214 20.3801 22.4311 20.3801 27.1162C20.3801 31.8013 16.5688 35.611 11.8806 35.611C7.19241 35.611 3.38683 31.8013 3.38683 27.1162C3.38683 22.4311 7.18271 18.6214 11.8806 18.6214ZM11.8806 19.7933C7.84039 19.7933 4.55872 23.0644 4.55872 27.1162C4.55872 31.168 7.8419 34.4392 11.8806 34.4392C15.9193 34.4392 19.2083 31.168 19.2083 27.1162C19.2083 23.0644 15.9208 19.7933 11.8806 19.7933ZM11.8873 22.1358C12.1744 22.1375 12.4709 22.3338 12.4709 22.7206V23.294C13.4977 23.5545 14.1149 24.2785 14.4049 25.1959C14.6049 25.9634 13.5348 26.2712 13.2846 25.5473C13.0502 24.8059 12.5838 24.4285 11.8655 24.4006C11.0672 24.4081 10.451 25.0052 10.451 25.767C10.451 26.1281 10.5804 26.2406 10.7543 26.3254C10.988 26.4397 11.4427 26.5108 11.9479 26.5635C12.4532 26.6161 13.0111 26.6532 13.5352 26.9091C14.0593 27.165 14.4954 27.6657 14.4954 28.5181C14.4953 29.733 13.6211 30.7449 12.4709 31.0026V31.5118C12.4709 32.2752 11.299 32.3048 11.299 31.5118V30.9968C10.5323 30.7997 9.74774 30.2616 9.37073 29.0937C9.15791 28.3431 10.2329 28.0009 10.4899 28.739C10.7129 29.4734 11.2389 29.8852 11.909 29.8982C12.7074 29.8907 13.3235 29.2662 13.3235 28.5181C13.3235 28.1189 13.1649 28.0412 13.0202 27.9608C12.7865 27.8467 12.3318 27.7789 11.8266 27.7262C11.3214 27.6736 10.7634 27.6365 10.2393 27.3806C9.71525 27.1247 9.27918 26.6308 9.27918 25.767C9.27918 24.5401 10.1512 23.5399 11.299 23.2814C11.299 23.2814 11.299 22.9075 11.299 22.7206C11.299 22.327 11.6001 22.1341 11.8873 22.1358ZM23.2569 22.4288C23.7855 23.7039 24.1064 25.0845 24.1748 26.5303H36.2002C37.3363 26.5303 38.2509 25.6157 38.2509 24.4795C38.2509 23.3434 37.3363 22.4288 36.2002 22.4288H23.2569ZM24.1748 27.7021C24.1063 29.1479 23.7855 30.5286 23.2569 31.8036H36.2002C37.3363 31.8036 38.2509 30.889 38.2509 29.7529C38.2509 28.6168 37.3363 27.7021 36.2002 27.7021H24.1748ZM22.6996 32.9755C21.8174 34.5951 20.574 35.9868 19.0902 37.0655C19.13 37.0678 19.1677 37.0766 19.208 37.0766H36.2001C37.3362 37.0766 38.2509 36.162 38.2509 35.0259C38.2509 33.8898 37.3362 32.9751 36.2001 32.9751L22.6996 32.9755Z" fill="black"/>
</g>
<defs>
<clipPath id="clip0_2498_6958">
<rect width="37.5" height="37.5" fill="white" transform="translate(0.75 0.75)"/>
</clipPath>
</defs>
</svg>
