<svg width="61" height="61" viewBox="0 0 61 61" fill="none" xmlns="http://www.w3.org/2000/svg">
<rect x="0.148438" y="0.476562" width="60" height="60" rx="30" fill="white"/>
<g clipPath="url(#clip0_2454_7241)">
<g clipPath="url(#clip1_2454_7241)">
<g clipPath="url(#clip2_2454_7241)">
<path fill-rule="evenodd" clip-rule="evenodd" d="M12.2605 27.4485C11.8887 27.5485 11.6969 27.6819 11.1834 28.198C10.8053 28.578 10.6639 28.7457 10.548 28.9514C10.2412 29.4964 10.1234 29.9941 10.1528 30.6219C10.1737 31.0672 10.2374 31.3334 10.4151 31.717C10.5962 32.108 10.7801 32.3496 11.2389 32.7993C11.659 33.2112 11.7915 33.3088 12.089 33.426C12.6317 33.6397 13.2946 33.5703 13.7728 33.2496L13.9304 33.1439L13.0588 32.2737C12.5794 31.7952 12.1409 31.3319 12.0843 31.2442C11.8574 30.893 11.7941 30.4226 11.9225 30.0415C12.0225 29.7448 12.1267 29.5977 12.5046 29.2197C12.952 28.7722 13.0782 28.7454 13.4201 29.0255C13.7584 29.3027 14.2001 29.4035 14.5903 29.2925C14.796 29.2339 15.1075 29.0494 15.1076 28.9861C15.1077 28.9662 14.8247 28.6715 14.4788 28.3312C13.8096 27.6728 13.6367 27.5489 13.2448 27.4468C12.999 27.3828 12.5016 27.3836 12.2605 27.4485ZM15.2507 27.4472C15.0512 27.5009 14.7946 27.6241 14.6713 27.7253L14.5878 27.7939L15.4643 28.6764C15.9464 29.1618 16.3797 29.6218 16.4273 29.6988C16.7091 30.1541 16.7209 30.7254 16.458 31.1856C16.3424 31.388 15.7567 31.9865 15.6149 32.0472C15.4528 32.1165 15.2797 32.0774 15.1218 31.9357C15.0495 31.8707 14.8922 31.7697 14.7723 31.7112C14.5765 31.6157 14.5233 31.6049 14.2517 31.6049C13.9786 31.6049 13.9277 31.6154 13.7294 31.713C13.3111 31.919 13.2989 31.8742 13.9524 32.5325C14.265 32.8473 14.6091 33.1631 14.7171 33.2342C15.3544 33.6539 16.1243 33.6585 16.7679 33.2465C16.9619 33.1223 17.6333 32.4547 17.8119 32.2085C17.9758 31.9825 18.2061 31.4898 18.2822 31.2024C18.3295 31.0236 18.3444 30.8475 18.3444 30.4645C18.3444 29.8772 18.2986 29.6584 18.0777 29.1899C17.8928 28.7979 17.7178 28.5717 17.2308 28.0954C16.8161 27.6897 16.6165 27.5583 16.2503 27.4495C16.0243 27.3824 15.4958 27.3812 15.2507 27.4472Z" fill="url(#paint0_linear_2454_7241)"/>
<path d="M14.057 29.4896C13.9451 29.4676 13.8294 29.4735 13.7203 29.5067C13.6112 29.5399 13.5119 29.5994 13.4311 29.6799C13.345 29.7657 13.2829 29.8726 13.2512 29.9899C13.2194 30.1073 13.2191 30.2309 13.2503 30.3484C13.2815 30.3214 13.3191 30.3029 13.3594 30.2944C13.3998 30.286 13.4416 30.288 13.481 30.3001C13.5204 30.3123 13.5561 30.3343 13.5846 30.364C13.6132 30.3938 13.6337 30.4303 13.6443 30.4701C13.6772 30.4654 13.7107 30.4674 13.7429 30.4762C13.7749 30.485 13.8049 30.5002 13.8309 30.521C13.8568 30.5419 13.8782 30.5678 13.8937 30.5972C13.9092 30.6267 13.9185 30.659 13.921 30.6922C13.979 30.6963 14.0336 30.7212 14.0748 30.7623C14.1159 30.8033 14.1409 30.8579 14.1452 30.9159C14.1915 30.9192 14.2359 30.9357 14.2731 30.9634C14.3103 30.9912 14.3387 31.0291 14.3549 31.0726C14.3712 31.1161 14.3746 31.1633 14.3647 31.2087C14.3548 31.2541 14.3321 31.2956 14.2993 31.3284L14.2599 31.3677L14.3758 31.4772C14.3913 31.4919 14.4118 31.4999 14.4331 31.4996C14.4545 31.4993 14.4748 31.4906 14.4898 31.4755C14.5037 31.4616 14.5121 31.443 14.5136 31.4234C14.515 31.4037 14.5093 31.3842 14.4975 31.3684L14.4912 31.362C14.4883 31.3592 14.4857 31.3561 14.4833 31.3529L14.4663 31.3358C14.4506 31.32 14.4418 31.2987 14.4418 31.2764C14.4418 31.2541 14.4506 31.2327 14.4663 31.2169C14.4741 31.2092 14.4833 31.203 14.4935 31.1988C14.5036 31.1946 14.5145 31.1924 14.5255 31.1924C14.5364 31.1924 14.5473 31.1946 14.5575 31.1988C14.5676 31.203 14.5768 31.2092 14.5846 31.2169L14.6081 31.2404C14.6131 31.2454 14.6178 31.2505 14.6221 31.2558L14.6347 31.2686C14.6421 31.276 14.6508 31.2819 14.6605 31.2859C14.6701 31.2899 14.6805 31.292 14.6909 31.292C14.7013 31.292 14.7117 31.2899 14.7213 31.2859C14.731 31.2819 14.7397 31.276 14.7471 31.2686C14.762 31.2536 14.7704 31.2333 14.7704 31.2122C14.7704 31.191 14.762 31.1707 14.7471 31.1557L14.7219 31.1306C14.7139 31.1225 14.7076 31.1129 14.7033 31.1023C14.6991 31.0917 14.6971 31.0804 14.6974 31.069C14.6974 31.0524 14.7023 31.0362 14.7115 31.0224C14.7206 31.0086 14.7337 30.9979 14.749 30.9915C14.7643 30.9851 14.7811 30.9834 14.7973 30.9866C14.8136 30.9897 14.8286 30.9976 14.8403 31.0093L14.8593 31.0284C14.8674 31.0366 14.8771 31.0432 14.8878 31.0476C14.8985 31.052 14.91 31.0543 14.9216 31.0543C14.9332 31.0543 14.9446 31.052 14.9553 31.0476C14.966 31.0432 14.9757 31.0366 14.9839 31.0284C15.0004 31.0118 15.0096 30.9894 15.0096 30.966C15.0096 30.9426 15.0004 30.9201 14.9839 30.9035L14.9797 30.8991C14.9744 30.8946 14.9693 30.8898 14.9644 30.8849L14.8345 30.7544C14.8188 30.7386 14.81 30.7173 14.81 30.695C14.81 30.6728 14.8188 30.6514 14.8345 30.6357C14.8422 30.6279 14.8514 30.6217 14.8616 30.6175C14.8718 30.6132 14.8827 30.6111 14.8937 30.6111C14.9047 30.6111 14.9155 30.6132 14.9257 30.6175C14.9359 30.6217 14.9451 30.6279 14.9529 30.6357L15.0749 30.7581C15.0778 30.7604 15.0806 30.7628 15.0832 30.7655L15.0932 30.7755C15.1192 30.7967 15.1521 30.8075 15.1856 30.8057C15.2191 30.804 15.2507 30.7899 15.2743 30.7661C15.2998 30.7406 15.3141 30.706 15.3141 30.67C15.3141 30.6339 15.2998 30.5993 15.2743 30.5738L15.1506 30.4495C15.1489 30.4481 15.1473 30.4466 15.1457 30.445L14.6439 29.9348H14.5155L14.2284 30.1532C14.0895 30.2588 13.8913 30.232 13.7855 30.0931C13.7603 30.0602 13.7419 30.0225 13.7313 29.9824C13.7206 29.9423 13.718 29.9005 13.7236 29.8594C13.7291 29.8182 13.7428 29.7786 13.7637 29.7428C13.7845 29.7069 13.8123 29.6755 13.8453 29.6504L14.057 29.4894V29.4896ZM14.6792 29.7671C14.6903 29.7672 14.7013 29.7694 14.7115 29.7737C14.7218 29.778 14.7311 29.7843 14.7389 29.7923L15.191 30.2518C15.2232 30.1881 15.2422 30.1185 15.2468 30.0473C15.2514 29.9761 15.2415 29.9046 15.2178 29.8373C15.1941 29.77 15.1569 29.7082 15.1087 29.6556C15.0604 29.603 15.002 29.5607 14.9369 29.5313C14.8809 29.4992 14.8175 29.4824 14.7529 29.4827H14.3421C14.3395 29.4852 14.3367 29.4875 14.3339 29.4896L13.947 29.7839C13.9315 29.7957 13.9184 29.8104 13.9086 29.8272C13.8988 29.844 13.8924 29.8626 13.8898 29.8819C13.8872 29.9011 13.8884 29.9208 13.8934 29.9396C13.8983 29.9584 13.907 29.976 13.9188 29.9915C13.9427 30.0228 13.978 30.0434 14.017 30.0487C14.056 30.054 14.0956 30.0435 14.1269 30.0197L14.4365 29.7842C14.4511 29.7732 14.4688 29.7672 14.4871 29.7671H14.6792ZM13.9562 30.9862L13.846 31.096C13.832 31.11 13.813 31.1179 13.7932 31.1179C13.7734 31.1179 13.7544 31.11 13.7404 31.096C13.7267 31.0824 13.7188 31.064 13.7185 31.0448C13.7181 31.0255 13.7252 31.0068 13.7383 30.9927L13.7405 30.9905L13.8505 30.8807L13.8525 30.8788C13.8667 30.8657 13.8854 30.8586 13.9047 30.859C13.9241 30.8593 13.9425 30.8671 13.9562 30.8807C13.9631 30.8876 13.9687 30.8958 13.9725 30.9049C13.9762 30.9139 13.9782 30.9236 13.9782 30.9334C13.9782 30.9432 13.9762 30.9529 13.9725 30.962C13.9687 30.971 13.9631 30.9793 13.9562 30.9862ZM13.9647 31.3197C13.9788 31.3337 13.9978 31.3416 14.0176 31.3416C14.0374 31.3416 14.0564 31.3337 14.0704 31.3197L14.1806 31.2099C14.1884 31.2021 14.1944 31.1926 14.1982 31.1822C14.2019 31.1718 14.2032 31.1607 14.2021 31.1496C14.201 31.1386 14.1974 31.128 14.1917 31.1186C14.1859 31.1091 14.1781 31.1011 14.1688 31.095C14.1545 31.0856 14.1373 31.0814 14.1202 31.0831C14.1031 31.0848 14.0871 31.0924 14.0749 31.1046L13.9647 31.2144C13.9578 31.2213 13.9523 31.2295 13.9485 31.2386C13.9448 31.2476 13.9429 31.2573 13.9429 31.2671C13.9429 31.2769 13.9448 31.2866 13.9485 31.2956C13.9523 31.3046 13.9578 31.3128 13.9647 31.3197ZM13.4641 30.5823L13.3541 30.6922C13.3401 30.7062 13.3211 30.714 13.3013 30.714C13.2815 30.714 13.2625 30.7062 13.2485 30.6922C13.2348 30.6786 13.2269 30.6602 13.2266 30.6409C13.2262 30.6217 13.2333 30.603 13.2465 30.5889L13.2487 30.5867L13.3587 30.4768L13.3607 30.475C13.3749 30.4619 13.3935 30.4548 13.4128 30.4552C13.4321 30.4556 13.4505 30.4634 13.4641 30.477C13.4711 30.4839 13.4766 30.4921 13.4803 30.5012C13.4841 30.5102 13.486 30.5199 13.486 30.5297C13.486 30.5395 13.4841 30.5492 13.4803 30.5582C13.4766 30.5672 13.4711 30.5754 13.4641 30.5823ZM13.7118 30.769L13.6018 30.8787C13.5878 30.8927 13.5688 30.9005 13.549 30.9005C13.5292 30.9005 13.5102 30.8927 13.4962 30.8787C13.4825 30.8651 13.4747 30.8467 13.4743 30.8275C13.474 30.8083 13.4811 30.7896 13.4942 30.7755L13.4963 30.7734L13.6064 30.6635L13.6084 30.6615C13.6225 30.6484 13.6412 30.6413 13.6605 30.6417C13.6798 30.6421 13.6982 30.6499 13.7118 30.6635C13.7188 30.6704 13.7243 30.6786 13.7281 30.6877C13.7319 30.6967 13.7338 30.7064 13.7338 30.7162C13.7338 30.726 13.7319 30.7358 13.7281 30.7448C13.7243 30.7539 13.7188 30.7621 13.7118 30.769Z" fill="url(#paint1_linear_2454_7241)"/>
<path d="M27.5518 31.9616C27.1211 32.3922 26.5371 32.6341 25.9282 32.6341C25.3193 32.6341 24.7353 32.3922 24.3047 31.9616L24.6647 31.6016C24.9998 31.9367 25.4543 32.1249 25.9282 32.1249C26.4021 32.1249 26.8567 31.9367 27.1918 31.6016L27.5518 31.9616Z" fill="url(#paint2_linear_2454_7241)"/>
<path d="M21.4243 31.1698C21.8821 31.1698 22.2144 30.9039 22.3178 30.4978H22.6206C22.5024 31.0627 22.0409 31.443 21.4243 31.443C20.7006 31.443 20.1172 30.8818 20.1172 30.1396C20.1172 29.3974 20.7006 28.8399 21.4243 28.8399C22.0409 28.8399 22.5024 29.2165 22.6206 29.7814H22.3178C22.2144 29.3716 21.8821 29.1131 21.4243 29.1131C20.8556 29.1131 20.4126 29.5525 20.4126 30.1396C20.4126 30.7267 20.8556 31.1698 21.4243 31.1698ZM23.9169 29.6374C24.4375 29.6374 24.8252 30.0214 24.8252 30.5384C24.8252 31.0553 24.4375 31.4393 23.9169 31.4393C23.3926 31.4393 23.0049 31.0553 23.0049 30.5384C23.0049 30.0214 23.3926 29.6374 23.9169 29.6374ZM23.9169 31.1808C24.275 31.1808 24.5409 30.9076 24.5409 30.5384C24.5409 30.1691 24.275 29.8959 23.9169 29.8959C23.555 29.8959 23.2855 30.1691 23.2855 30.5384C23.2855 30.9076 23.555 31.1808 23.9169 31.1808ZM25.3219 28.7734H25.6025V31.395H25.3219V28.7734ZM26.2053 28.7734H26.4859V31.395H26.2053V28.7734ZM28.4736 29.6818H28.7542V31.395H28.4736V31.2178C28.3222 31.3581 28.1154 31.4393 27.8717 31.4393C27.3807 31.4393 26.9893 31.0405 26.9893 30.5384C26.9893 30.0399 27.3807 29.6374 27.8717 29.6374C28.1154 29.6374 28.3222 29.7187 28.4736 29.859V29.6818ZM27.9087 31.1808C28.1339 31.1808 28.3333 31.0959 28.4736 30.8891V30.1876C28.3333 29.9808 28.1339 29.8959 27.9087 29.8959C27.5468 29.8959 27.2699 30.1839 27.2699 30.5384C27.2699 30.8928 27.5468 31.1808 27.9087 31.1808ZM30.2428 29.6374C30.7339 29.6374 31.1253 30.0362 31.1253 30.5384C31.1253 31.0368 30.7339 31.4393 30.2428 31.4393C29.9991 31.4393 29.7924 31.3581 29.641 31.2178V31.395H29.3604V28.7734H29.641V29.859C29.7924 29.7187 29.9991 29.6374 30.2428 29.6374ZM30.2059 31.1808C30.5677 31.1808 30.8447 30.8928 30.8447 30.5384C30.8447 30.1839 30.5677 29.8959 30.2059 29.8959C29.9807 29.8959 29.7813 29.9808 29.641 30.1876V30.8891C29.7813 31.0959 29.9807 31.1808 30.2059 31.1808ZM31.6248 28.7734H31.9054V31.395H31.6248V28.7734ZM33.964 29.6818H34.2631L33.1037 32.2479H32.8047L33.1628 31.4541L32.2804 29.6818H32.5831L33.2994 31.155L33.964 29.6818ZM37.4202 28.8842H37.7119V31.395H37.4682L35.862 29.4159V31.395H35.5704V28.8842H35.8067L37.4202 30.8891V28.8842ZM39.1468 29.6374C39.697 29.6374 40.0404 30.0621 39.985 30.6233H38.5524C38.5856 30.9408 38.8034 31.1882 39.1616 31.1882C39.3794 31.1882 39.5456 31.1107 39.6194 30.9667H39.9333C39.8262 31.2621 39.5308 31.4393 39.1616 31.4393C38.6336 31.4393 38.268 31.0442 38.268 30.5384C38.268 30.0325 38.6299 29.6374 39.1468 29.6374ZM39.1468 29.8811C38.8071 29.8811 38.5967 30.1211 38.556 30.4239H39.7044C39.6896 30.0842 39.4717 29.8811 39.1468 29.8811ZM41.5988 31.1181L41.6394 31.3765C41.4991 31.4245 41.381 31.4393 41.2776 31.4393C40.8567 31.4393 40.6536 31.2067 40.6536 30.7599V29.9218H40.2068V29.6818H40.6536V29.0504H40.9342V29.6818H41.5804V29.9218H40.9342V30.7599C40.9342 31.0553 41.0597 31.1771 41.3034 31.1771C41.3994 31.1771 41.5065 31.1513 41.5988 31.1181ZM44.1622 29.6818H44.465L43.841 31.395H43.5862L43.1431 30.0842L42.7001 31.395H42.4453L41.8213 29.6818H42.1241L42.5745 30.9704L43.0213 29.6818H43.265L43.7117 30.9667L44.1622 29.6818ZM45.602 29.6374C46.1227 29.6374 46.5104 30.0214 46.5104 30.5384C46.5104 31.0553 46.1227 31.4393 45.602 31.4393C45.0777 31.4393 44.6901 31.0553 44.6901 30.5384C44.6901 30.0214 45.0777 29.6374 45.602 29.6374ZM45.602 31.1808C45.9602 31.1808 46.226 30.9076 46.226 30.5384C46.226 30.1691 45.9602 29.8959 45.602 29.8959C45.2402 29.8959 44.9707 30.1691 44.9707 30.5384C44.9707 30.9076 45.2402 31.1808 45.602 31.1808ZM47.2696 29.9624C47.4284 29.7593 47.6573 29.6411 47.9305 29.6411V29.907C47.6499 29.9144 47.421 30.0436 47.2696 30.2799V31.395H46.989V29.6818H47.2696V29.9624ZM49.6705 31.395L48.969 30.5938L48.6145 30.9371V31.395H48.3339V28.7734H48.6145V30.5679L49.5413 29.6818H49.9031L49.1684 30.3981L50.0361 31.395H49.6705Z" fill="#1E1E1E"/>
</g>
</g>
</g>
<defs>
<linearGradient id="paint0_linear_2454_7241" x1="10.1484" y1="30.4754" x2="18.3023" y2="30.4754" gradientUnits="userSpaceOnUse">
<stop stop-color="#F33982"/>
<stop offset="1" stop-color="#4C44FC"/>
</linearGradient>
<linearGradient id="paint1_linear_2454_7241" x1="13.2233" y1="30.4774" x2="15.3771" y2="30.4774" gradientUnits="userSpaceOnUse">
<stop stop-color="#F63880"/>
<stop offset="1" stop-color="#5044F9"/>
</linearGradient>
<linearGradient id="paint2_linear_2454_7241" x1="24.3047" y1="31.9366" x2="27.5355" y2="32.0136" gradientUnits="userSpaceOnUse">
<stop stop-color="#F33983"/>
<stop offset="1" stop-color="#4F44FA"/>
</linearGradient>
<clipPath id="clip0_2454_7241">
<rect width="40" height="40" fill="white" transform="translate(10.1484 10.4766)"/>
</clipPath>
<clipPath id="clip1_2454_7241">
<rect width="40" height="40" fill="white" transform="translate(10.1484 10.4766)"/>
</clipPath>
<clipPath id="clip2_2454_7241">
<rect width="40" height="6.15385" fill="white" transform="translate(10.1484 27.3984)"/>
</clipPath>
</defs>
</svg>
