<svg width="32" height="33" viewBox="0 0 32 33" fill="none" xmlns="http://www.w3.org/2000/svg">
<path d="M29.6903 21.7302C29.0228 21.407 28.2991 21.2158 27.5591 21.167C27.8819 20.3689 28.0575 19.5189 28.0775 18.6582C28.2279 14.1302 24.6407 10.8438 23.1143 9.43581L22.9543 9.29181C22.7335 9.08701 22.5319 8.88541 22.3431 8.68381C22.538 8.51973 22.6946 8.31494 22.8018 8.08385C22.9091 7.85276 22.9644 7.60097 22.9639 7.34621V7.31421C22.9627 6.96243 22.8559 6.61911 22.6574 6.32871C22.4588 6.03831 22.1777 5.8142 21.8503 5.68541C22.2169 4.66283 22.4733 3.60403 22.6151 2.52701C22.6373 2.34331 22.6073 2.15707 22.5287 1.9896C22.45 1.82213 22.3257 1.68019 22.1701 1.58003C22.0145 1.47987 21.8339 1.42553 21.6489 1.42322C21.4639 1.42092 21.2819 1.47075 21.1239 1.56701C20.6336 1.83853 20.1096 2.04404 19.5655 2.17821C19.0409 2.31468 18.4901 2.31468 17.9655 2.17821C17.4178 2.04402 16.8905 1.8374 16.3975 1.56381C16.2385 1.46779 16.0556 1.41864 15.8699 1.42204C15.6842 1.42544 15.5033 1.48124 15.3479 1.58301C15.1935 1.68149 15.0704 1.8221 14.9933 1.98823C14.9162 2.15437 14.8882 2.33909 14.9127 2.52061C15.0566 3.60171 15.314 4.66465 15.6807 5.69181C15.3525 5.81972 15.0704 6.04352 14.8712 6.33405C14.672 6.62457 14.5649 6.96835 14.5639 7.32061V7.35261C14.5638 7.63698 14.6331 7.91708 14.7659 8.16858C14.8986 8.42009 15.0907 8.63539 15.3255 8.79581C15.1815 8.94941 15.0055 9.11581 14.8199 9.29181L14.6663 9.43581C13.1207 10.8438 9.5527 14.127 9.6999 18.655C9.6999 18.8918 9.7287 19.119 9.7543 19.3462H7.2615V18.319C7.2615 18.1493 7.19407 17.9865 7.07405 17.8665C6.95403 17.7464 6.79124 17.679 6.6215 17.679H2.0775C1.90776 17.679 1.74498 17.7464 1.62495 17.8665C1.50493 17.9865 1.4375 18.1493 1.4375 18.319V29.231C1.4375 29.4007 1.50493 29.5635 1.62495 29.6836C1.74498 29.8036 1.90776 29.871 2.0775 29.871H6.6215C6.79124 29.871 6.95403 29.8036 7.07405 29.6836C7.19407 29.5635 7.2615 29.4007 7.2615 29.231V28.399L14.2311 31.2118C14.7696 31.4144 15.339 31.5226 15.9143 31.5318C17.1943 31.5318 18.3143 30.9782 19.6231 30.3254L19.7703 30.2518H19.8023L29.7223 24.5526C29.9806 24.4172 30.1962 24.2126 30.3448 23.9617C30.4934 23.7108 30.5693 23.4234 30.5639 23.1318C30.5661 22.8394 30.4852 22.5524 30.3305 22.3042C30.1758 22.0561 29.9538 21.857 29.6903 21.7302ZM16.5191 7.83581H16.3207C16.1956 7.83581 16.0757 7.78635 15.9869 7.69823C15.8982 7.6101 15.8479 7.49046 15.8471 7.36541V7.33341C15.8458 7.27041 15.8571 7.20779 15.8804 7.14922C15.9036 7.09065 15.9383 7.0373 15.9824 6.9923C16.0265 6.9473 16.0791 6.91155 16.1372 6.88715C16.1953 6.86276 16.2577 6.8502 16.3207 6.85021H21.2135C21.3383 6.85021 21.4579 6.89977 21.5461 6.98799C21.6343 7.0762 21.6839 7.19585 21.6839 7.32061V7.35261C21.6856 7.41545 21.6747 7.478 21.6518 7.53656C21.629 7.59511 21.5946 7.64849 21.5507 7.69354C21.5069 7.73858 21.4544 7.77438 21.3965 7.79882C21.3386 7.82325 21.2764 7.83583 21.2135 7.83581H16.5191ZM17.6263 3.42621C18.3706 3.62466 19.154 3.62466 19.8983 3.42621C20.3647 3.30378 20.8205 3.14434 21.2615 2.94941C21.093 3.84176 20.85 4.71842 20.5351 5.57021H16.9831C16.6705 4.71795 16.4286 3.84139 16.2599 2.94941C16.7022 3.14381 17.1591 3.30324 17.6263 3.42621ZM15.5303 10.3958L15.6871 10.2518C16.0743 9.89948 16.4358 9.51984 16.7687 9.11581H21.0087C21.3402 9.51407 21.6983 9.88934 22.0807 10.239L22.2439 10.3862C23.6423 11.6662 26.9223 14.6742 26.7911 18.6134C26.782 19.54 26.5388 20.4493 26.0839 21.2566C25.5931 21.3597 25.117 21.523 24.6663 21.743L21.2167 23.4038C21.1241 22.9007 20.8597 22.4454 20.4686 22.1157C20.0776 21.7859 19.5842 21.6022 19.0727 21.5958H15.3607C14.21 20.4109 12.6961 19.645 11.0599 19.4198C11.0165 19.1529 10.9898 18.8836 10.9799 18.6134C10.8519 14.6742 14.1287 11.6758 15.5303 10.3958ZM2.7303 28.6038V18.959H5.9943V28.591L2.7303 28.6038ZM29.1207 23.3974L19.2007 29.0998L19.0727 29.1638C17.3223 30.0374 16.2631 30.5654 14.7047 30.015L7.2615 27.0358V20.6358H10.0263C10.8878 20.6361 11.7396 20.8188 12.5255 21.1718C13.3114 21.5247 14.0137 22.04 14.5863 22.6838C14.6462 22.7511 14.7196 22.805 14.8018 22.8419C14.884 22.8789 14.973 22.898 15.0631 22.8982H19.0727C19.2859 22.9014 19.4911 22.9794 19.6526 23.1187C19.814 23.2579 19.9214 23.4494 19.9559 23.6598C19.9617 23.8367 19.9101 24.0107 19.8087 24.1558C19.8087 24.1558 19.8087 24.1558 19.7895 24.1814C19.7127 24.2783 19.6156 24.3572 19.5051 24.4125C19.3945 24.4678 19.2731 24.4982 19.1495 24.5014H11.9911C11.8214 24.5014 11.6586 24.5688 11.5386 24.6889C11.4185 24.8089 11.3511 24.9717 11.3511 25.1414C11.3511 25.3111 11.4185 25.4739 11.5386 25.594C11.6586 25.714 11.8214 25.7814 11.9911 25.7814H19.1431C19.4177 25.7823 19.6897 25.7288 19.9435 25.6239C20.1973 25.519 20.4277 25.3648 20.6215 25.1702C20.6631 25.1286 20.7047 25.0838 20.7431 25.039L25.2231 22.8822C25.6258 22.6778 26.0575 22.5364 26.5031 22.463C27.3973 22.3335 28.3098 22.4774 29.1207 22.8758C29.1661 22.8964 29.2045 22.9297 29.2312 22.9718C29.2579 23.0138 29.2718 23.0628 29.2711 23.1126C29.2756 23.1695 29.2639 23.2264 29.2372 23.2768C29.2106 23.3273 29.1702 23.3691 29.1207 23.3974Z" fill="white"/>
<path d="M19.8434 18.1887H18.3714C18.3236 18.1891 18.2762 18.1801 18.232 18.1621C18.1878 18.1441 18.1475 18.1175 18.1136 18.0839C18.0797 18.0503 18.0528 18.0103 18.0344 17.9662C18.016 17.9221 18.0066 17.8749 18.0066 17.8271C18.0066 17.6574 17.9391 17.4946 17.8191 17.3746C17.6991 17.2545 17.5363 17.1871 17.3666 17.1871C17.1968 17.1871 17.034 17.2545 16.914 17.3746C16.794 17.4946 16.7266 17.6574 16.7266 17.8271C16.7274 18.2628 16.9011 18.6803 17.2094 18.9881C17.5178 19.2958 17.9357 19.4687 18.3714 19.4687H18.4674V19.9487C18.4674 20.1184 18.5348 20.2812 18.6548 20.4012C18.7748 20.5213 18.9376 20.5887 19.1074 20.5887C19.2771 20.5887 19.4399 20.5213 19.5599 20.4012C19.6799 20.2812 19.7474 20.1184 19.7474 19.9487V19.4687H19.8434C20.0589 19.4687 20.2724 19.4262 20.4716 19.3437C20.6707 19.2612 20.8517 19.1403 21.0041 18.9879C21.1566 18.8355 21.2775 18.6545 21.36 18.4553C21.4425 18.2561 21.485 18.0427 21.485 17.8271V16.7647C21.4841 16.3296 21.3109 15.9125 21.0032 15.6048C20.6955 15.2972 20.2785 15.1239 19.8434 15.1231H18.3714C18.3236 15.1235 18.2762 15.1145 18.232 15.0965C18.1878 15.0785 18.1475 15.0519 18.1136 15.0183C18.0797 14.9847 18.0528 14.9447 18.0344 14.9006C18.016 14.8565 18.0066 14.8093 18.0066 14.7615V13.6991C18.0074 13.6029 18.0462 13.5109 18.1145 13.4432C18.1829 13.3755 18.2752 13.3375 18.3714 13.3375H19.8434C19.939 13.3383 20.0305 13.3767 20.0981 13.4443C20.1658 13.512 20.2041 13.6035 20.205 13.6991C20.205 13.8688 20.2724 14.0316 20.3924 14.1516C20.5124 14.2717 20.6752 14.3391 20.845 14.3391C21.0147 14.3391 21.1775 14.2717 21.2975 14.1516C21.4175 14.0316 21.485 13.8688 21.485 13.6991C21.485 13.4835 21.4425 13.2701 21.36 13.0709C21.2775 12.8717 21.1566 12.6908 21.0041 12.5383C20.8517 12.3859 20.6707 12.265 20.4716 12.1825C20.2724 12.1 20.0589 12.0575 19.8434 12.0575H19.7474V11.5775C19.7474 11.4078 19.6799 11.245 19.5599 11.125C19.4399 11.0049 19.2771 10.9375 19.1074 10.9375C18.9376 10.9375 18.7748 11.0049 18.6548 11.125C18.5348 11.245 18.4674 11.4078 18.4674 11.5775V12.0575H18.3714C17.9357 12.0575 17.5178 12.2304 17.2094 12.5381C16.9011 12.8459 16.7274 13.2634 16.7266 13.6991V14.7615C16.7274 15.1972 16.9011 15.6147 17.2094 15.9225C17.5178 16.2302 17.9357 16.4031 18.3714 16.4031H19.8434C19.939 16.4039 20.0305 16.4423 20.0981 16.5099C20.1658 16.5776 20.2041 16.6691 20.205 16.7647V17.8271C20.205 17.923 20.1669 18.015 20.0991 18.0828C20.0312 18.1506 19.9393 18.1887 19.8434 18.1887Z" fill="white"/>
</svg>
