<svg width="32" height="32" viewBox="0 0 32 32" fill="none" xmlns="http://www.w3.org/2000/svg">
<g clipPath="url(#clip0_1440_1701)">
<path d="M13.3186 15.5623V11.726C13.3186 9.57963 11.7926 7.78296 9.76663 7.35763C10.5016 6.61096 10.9566 5.58796 10.9566 4.45996C10.9566 2.18529 9.10196 0.334961 6.82229 0.334961C4.54763 0.334961 2.69729 2.18529 2.69729 4.45996C2.69729 5.58729 3.15096 6.60996 3.88363 7.35629C1.85963 7.78063 0.334961 9.57796 0.334961 11.726V15.5623C0.334961 15.9303 0.633628 16.229 1.00163 16.229H12.652C13.0203 16.229 13.3186 15.9306 13.3186 15.5623ZM6.82196 1.66829C8.36663 1.66829 9.62296 2.92063 9.62296 4.45996C9.62296 6.00463 8.36629 7.26096 6.82196 7.26096C5.28263 7.26096 4.03029 6.00429 4.03029 4.45996C4.03029 2.92063 5.28263 1.66829 6.82196 1.66829ZM11.9853 14.8956H1.66829V11.726C1.66829 9.99896 3.07296 8.5943 4.79996 8.5943H8.84396C10.576 8.5943 11.9853 9.99896 11.9853 11.726V14.8956ZM17.2523 7.14463C17.5126 7.40496 17.5126 7.82696 17.2523 8.08729C16.992 8.34763 16.5696 8.34763 16.3096 8.08729L14.629 6.40663C14.6253 6.40296 14.622 6.39963 14.6186 6.39596C14.56 6.33496 14.5153 6.26563 14.4843 6.19196C14.451 6.11263 14.4326 6.02529 14.4326 5.93429C14.4326 5.84363 14.4506 5.75729 14.4836 5.67829C14.5163 5.59996 14.5643 5.52663 14.628 5.46296L16.3096 3.78129C16.5696 3.52096 16.9923 3.52096 17.2523 3.78129C17.5126 4.04163 17.5126 4.46363 17.2523 4.72396L16.7086 5.26763H25.1716C25.5396 5.26763 25.8383 5.56629 25.8383 5.93429V12.3026C25.8383 12.6706 25.5396 12.9693 25.1716 12.9693C24.8036 12.9693 24.505 12.6706 24.505 12.3026V6.60063H16.7086L17.2523 7.14463ZM15.5793 25.6256C15.6946 25.7453 15.7656 25.9083 15.766 26.0876V26.089C15.7656 26.2733 15.6906 26.44 15.5696 26.5606L13.8886 28.2413C13.7586 28.3716 13.588 28.4366 13.4173 28.4366C13.2466 28.4366 13.076 28.3716 12.946 28.2413C12.6856 27.981 12.6856 27.559 12.946 27.2986L13.4896 26.7546H5.01729C4.64929 26.7546 4.35063 26.456 4.35063 26.088V19.6913C4.35063 19.3233 4.64929 19.0246 5.01729 19.0246C5.38529 19.0246 5.68396 19.3233 5.68396 19.6913V25.4213H13.4896L12.946 24.8776C12.6856 24.6173 12.6856 24.1953 12.946 23.935C13.206 23.6746 13.6283 23.6746 13.8886 23.935L15.5706 25.6166C15.573 25.619 15.5753 25.6213 15.5776 25.6236C15.578 25.624 15.5783 25.624 15.5783 25.6243C15.579 25.625 15.579 25.6253 15.5793 25.6256ZM28.118 22.788C28.8516 22.0433 29.306 21.0236 29.306 19.899C29.306 17.6193 27.4513 15.7646 25.1716 15.7646C22.897 15.7646 21.0466 17.6193 21.0466 19.899C21.0466 21.023 21.4996 22.042 22.231 22.787C20.2083 23.2126 18.6843 25.0136 18.6843 27.1653V31.0016C18.6843 31.3696 18.983 31.6683 19.351 31.6683H31.0013C31.3693 31.6683 31.668 31.3696 31.668 31.0016V27.1653C31.6683 25.015 30.1433 23.2153 28.118 22.788ZM25.1716 17.0983C26.7163 17.0983 27.9726 18.355 27.9726 19.8993C27.9726 21.4386 26.716 22.691 25.1716 22.691C23.6323 22.691 22.38 21.4386 22.38 19.8993C22.38 18.3546 23.6323 17.0983 25.1716 17.0983ZM30.335 30.335H20.018V27.1653C20.018 25.4333 21.4226 24.0243 23.1496 24.0243H27.1936C28.9256 24.0243 30.335 25.4333 30.335 27.1653V30.335Z" fill="white"/>
</g>
<defs>
<clipPath id="clip0_1440_1701">
<rect width="32" height="32" fill="white"/>
</clipPath>
</defs>
</svg>
