<svg width="61" height="61" viewBox="0 0 61 61" fill="none" xmlns="http://www.w3.org/2000/svg">
<rect x="0.78125" y="0.476562" width="60" height="60" rx="30" fill="black"/>
<g clipPath="url(#clip0_2454_7213)">
<g clipPath="url(#clip1_2454_7213)">
<g clipPath="url(#clip2_2454_7213)">
<path d="M18.1211 24.0781C14.5823 24.0781 10.7812 26.9457 10.7812 30.4784C10.7812 34.011 12.7642 36.8786 16.2968 36.8786C19.8295 36.8786 23.5817 34.011 23.5817 30.4784C23.5817 26.9457 21.6537 24.0781 18.1211 24.0781Z" fill="#00FFFF"/>
<path d="M18.5559 27.7456C18.3851 27.6967 18.1959 27.6723 17.9824 27.6723C17.8542 27.6723 17.72 27.6784 17.5858 27.6967C17.476 27.7089 17.36 27.7273 17.2502 27.7578C16.4571 27.9347 15.7005 28.3862 15.1819 28.9414C14.6328 28.9658 14.1142 29.1611 13.6932 29.4783C13.6688 29.4966 13.6505 29.5149 13.6261 29.5332C13.6261 29.5332 13.62 29.5332 13.62 29.5393C13.5895 29.5637 13.565 29.5881 13.5345 29.6125C13.504 29.637 13.4796 29.6614 13.4491 29.6858L13.443 29.6919C13.4186 29.7163 13.3942 29.7407 13.3698 29.7651C13.3637 29.7712 13.3576 29.7773 13.3576 29.7773C13.3393 29.7956 13.321 29.82 13.3027 29.8383C13.2905 29.8505 13.2844 29.8566 13.2722 29.8688C13.2478 29.8932 13.2295 29.9237 13.2112 29.9481C13.1868 29.9786 13.1624 30.0091 13.1441 30.0396C13.1258 30.064 13.1074 30.0884 13.0891 30.1129C13.0708 30.1373 13.0586 30.1617 13.0403 30.1861C13.0342 30.1983 13.0281 30.2044 13.022 30.2166C13.0037 30.2471 12.9854 30.2776 12.9671 30.3081L12.961 30.3142C12.9427 30.3447 12.9244 30.3813 12.9122 30.4118C12.9 30.4301 12.8878 30.4545 12.8817 30.4728C12.8695 30.5033 12.8573 30.5338 12.8451 30.5643C12.8268 30.601 12.8146 30.6376 12.8024 30.6803C12.7902 30.7169 12.778 30.7535 12.7658 30.7962C12.7658 30.8023 12.7597 30.8084 12.7597 30.8145C12.7475 30.8511 12.7414 30.8816 12.7292 30.9182C12.7109 30.9975 12.6926 31.083 12.6804 31.1684C12.6438 31.4063 12.6438 31.6443 12.6682 31.87C12.5705 31.4246 12.5156 30.9487 12.5156 30.4545C12.5156 29.0024 13.382 27.6967 14.5962 26.8243C14.6511 26.7816 14.706 26.7449 14.7609 26.7083C14.7609 26.7083 14.7609 26.7083 14.767 26.7022C15.1758 26.4338 15.67 26.2812 16.2008 26.2812C16.2496 26.2812 16.2984 26.2813 16.3472 26.2874C16.3899 26.2874 16.4387 26.2935 16.4815 26.2996C16.5059 26.2996 16.5242 26.3057 16.5425 26.3057C16.573 26.3118 16.5974 26.3118 16.6218 26.3179C16.6645 26.324 16.7072 26.3301 16.7499 26.3423C16.7804 26.3484 16.8048 26.3545 16.8353 26.3606C16.8475 26.3606 16.8597 26.3667 16.8719 26.3728C16.9024 26.3789 16.9269 26.385 16.9574 26.3972C16.9818 26.4033 17.0001 26.4094 17.0245 26.4216C17.0428 26.4277 17.0611 26.4338 17.0794 26.4399C17.1038 26.446 17.1282 26.4582 17.1465 26.4643C17.1648 26.4704 17.1892 26.4765 17.2075 26.4887C17.2319 26.5009 17.2502 26.507 17.2746 26.5192C17.2929 26.5253 17.3173 26.5375 17.3356 26.5497C17.4272 26.5924 17.5187 26.6412 17.6041 26.6961C17.6712 26.7388 17.7322 26.7816 17.7932 26.8304C17.8237 26.8548 17.8603 26.8853 17.8909 26.9097C17.9214 26.9402 17.958 26.9646 17.9885 26.9951C18.019 27.0195 18.0434 27.05 18.0678 27.0744C18.0739 27.0744 18.0739 27.0805 18.08 27.0866C18.0922 27.0988 18.1044 27.1171 18.1166 27.1293C18.1471 27.1598 18.1715 27.1842 18.1959 27.2147C18.3423 27.3795 18.4644 27.5564 18.5559 27.7456Z" fill="black"/>
<path d="M21.8849 29.8537C21.8788 29.9025 21.8665 29.9513 21.8543 30.0001C21.8421 30.0428 21.836 30.0856 21.8238 30.1283C21.8238 30.1405 21.8177 30.1527 21.8177 30.1588C21.8055 30.2015 21.7933 30.2442 21.7811 30.2869C21.7506 30.3723 21.7201 30.4516 21.6835 30.5371C21.6835 30.5432 21.6835 30.5432 21.6774 30.5432C21.6652 30.5615 21.6591 30.5859 21.6469 30.6042C21.6286 30.6408 21.6103 30.6774 21.592 30.7079C21.5737 30.7445 21.5554 30.7811 21.531 30.8116C21.5066 30.8543 21.4822 30.8909 21.4517 30.9336C21.4212 30.9824 21.3845 31.0313 21.3479 31.074C21.3296 31.0984 21.3113 31.1228 21.2869 31.1472C21.2808 31.1533 21.2747 31.1594 21.2686 31.1716C21.2442 31.2021 21.2198 31.2265 21.1954 31.257L21.1832 31.2692C21.1527 31.2997 21.1222 31.3363 21.0856 31.3668C21.049 31.3973 21.0124 31.4339 20.9819 31.4644C20.9514 31.495 20.9147 31.5194 20.8842 31.5438C20.8781 31.5499 20.8659 31.556 20.8598 31.5621C20.8293 31.5865 20.7927 31.6109 20.7561 31.6353C20.7195 31.6597 20.6768 31.6902 20.6402 31.7085C20.6158 31.7207 20.5914 31.739 20.567 31.7512C20.5426 31.7634 20.5182 31.7817 20.4938 31.7939C20.4694 31.8061 20.445 31.8183 20.4205 31.8305C20.2253 31.922 20.0118 31.9953 19.7982 32.038C19.7616 32.0441 19.725 32.0502 19.6823 32.0563C19.6518 32.0624 19.6213 32.0624 19.5847 32.0685C19.5603 32.0685 19.5359 32.0746 19.5115 32.0746C19.4932 32.0746 19.4687 32.0807 19.4504 32.0807C19.4138 32.0807 19.3711 32.0868 19.3345 32.0868C19.7738 31.6353 20.0606 31.1045 20.0911 30.5676C20.0911 30.5554 20.0911 30.5371 20.0911 30.5248C20.0911 30.5065 20.0911 30.4882 20.0911 30.4699C20.0911 29.8964 19.9752 28.2003 18.6573 27.7732C18.6268 27.761 18.5963 27.7549 18.5658 27.7488C18.4681 27.5596 18.3522 27.3827 18.218 27.2241C18.1936 27.1935 18.1692 27.1691 18.1387 27.1386C18.1265 27.1264 18.1143 27.1081 18.1021 27.0959C18.096 27.0898 18.096 27.0898 18.0899 27.0837C18.0655 27.0593 18.0349 27.0288 18.0105 27.0044C17.98 26.9739 17.9495 26.9495 17.9129 26.919C17.8824 26.8885 17.8458 26.8641 17.8153 26.8397C17.7543 26.7909 17.6933 26.7482 17.6262 26.7054C17.5407 26.6505 17.4553 26.6017 17.3577 26.559C17.3394 26.5468 17.3211 26.5407 17.2967 26.5285C17.2784 26.5163 17.254 26.5102 17.2296 26.498C17.2113 26.4919 17.193 26.4797 17.1686 26.4736C17.1442 26.4614 17.1198 26.4553 17.1014 26.4492C17.0831 26.4431 17.0648 26.437 17.0465 26.4309C17.0221 26.4248 17.0038 26.4187 16.9794 26.4065C16.9489 26.4004 16.9245 26.3882 16.894 26.3821C16.8818 26.376 16.8696 26.376 16.8574 26.3699C16.8269 26.3638 16.8025 26.3577 16.772 26.3516C16.7293 26.3394 16.6866 26.3333 16.6439 26.3272C16.6194 26.3211 16.5889 26.3211 16.5645 26.315C16.5462 26.3089 16.5218 26.3089 16.5035 26.3089C16.4608 26.3028 16.4181 26.3028 16.3693 26.2967C16.3205 26.2906 16.2717 26.2906 16.2229 26.2906C15.6921 26.2906 15.2039 26.4431 14.7891 26.7115C15.7226 26.0892 16.8696 25.7109 17.98 25.7109C19.7799 25.7109 21.0185 26.7054 21.6225 28.182C21.6713 28.2979 21.714 28.4138 21.7506 28.5358C21.7567 28.5541 21.7628 28.5785 21.7689 28.5968C21.7994 28.7006 21.8299 28.8043 21.8543 28.908C21.9215 29.207 21.9337 29.5303 21.8849 29.8537Z" fill="#626161"/>
<path d="M18.7196 34.806C18.0485 35.0805 17.3285 35.2331 16.6269 35.2331C14.8941 35.2331 13.6617 34.3057 13.021 32.9207C12.8746 32.6034 12.7587 32.2556 12.6733 31.8896C12.6489 31.6638 12.6489 31.4259 12.6855 31.1879C12.6977 31.1025 12.716 31.0232 12.7343 30.9378C12.7404 30.9011 12.7526 30.8645 12.7648 30.834C12.7648 30.8279 12.7648 30.8218 12.7709 30.8157C12.7831 30.7791 12.7953 30.7364 12.8075 30.6998C12.8197 30.6632 12.838 30.6205 12.8502 30.5839C12.8624 30.5534 12.8746 30.5229 12.8868 30.4924C12.8929 30.4741 12.9051 30.4497 12.9173 30.4313C12.9295 30.4008 12.9478 30.3642 12.9661 30.3337C12.9661 30.3337 12.9661 30.3276 12.9722 30.3276C12.9905 30.2971 13.0027 30.2666 13.0271 30.2361C13.0332 30.2239 13.0393 30.2178 13.0454 30.2056C13.0576 30.1812 13.0759 30.1568 13.0942 30.1324C13.1126 30.108 13.1248 30.0836 13.1492 30.0592C13.1736 30.0287 13.1919 29.9982 13.2163 29.9676C13.2346 29.9432 13.259 29.9127 13.2773 29.8883C13.2895 29.8761 13.2956 29.87 13.3078 29.8578C13.3261 29.8334 13.3444 29.8151 13.3627 29.7968C13.3688 29.7907 13.3749 29.7846 13.3749 29.7846C13.3993 29.7602 13.4237 29.7358 13.4481 29.7114C13.4481 29.7053 13.4542 29.7053 13.4542 29.7053C13.4786 29.6809 13.5091 29.6504 13.5396 29.6321C13.5701 29.6077 13.5946 29.5833 13.6251 29.5589L13.6312 29.5528C13.6556 29.5345 13.6739 29.5162 13.6983 29.4979C14.1193 29.1806 14.6379 28.9853 15.187 28.9609C14.7599 29.4246 14.4853 29.9615 14.4853 30.4863C14.4853 30.59 14.4914 30.7364 14.5036 30.9072C14.5036 30.9317 14.5097 30.9561 14.5097 30.9805C14.5769 31.6028 14.7965 32.5058 15.4982 32.9695C15.6141 33.3905 15.8398 33.781 16.1388 34.0921C16.5232 34.4948 17.0479 34.7816 17.6397 34.8731C18.018 34.9219 18.378 34.8975 18.7196 34.806Z" fill="#292A2A"/>
<path d="M22.0406 30.4699C22.0406 32.0074 21.0888 33.3741 19.7709 34.2466C19.4414 34.4662 19.0815 34.6554 18.7154 34.8079C18.3737 34.8994 18.0137 34.9238 17.6415 34.8628C17.0436 34.7713 16.525 34.4845 16.1406 34.0818C15.8417 33.7707 15.6159 33.3802 15.5 32.9592C15.5061 32.9653 15.5122 32.9653 15.5183 32.9714C15.8051 33.1606 16.165 33.2765 16.6287 33.2765C16.885 33.2765 17.1473 33.246 17.4036 33.185C18.0686 33.0263 18.691 32.6908 19.173 32.2515C19.2279 32.2027 19.2767 32.1538 19.3255 32.0989C19.3621 32.0989 19.4048 32.0989 19.4414 32.0928C19.4597 32.0928 19.4841 32.0928 19.5024 32.0867C19.5268 32.0867 19.5513 32.0806 19.5757 32.0806C19.6062 32.0745 19.6367 32.0745 19.6733 32.0684C19.7099 32.0623 19.7526 32.0562 19.7892 32.0501C20.0088 32.0074 20.2163 31.9342 20.4115 31.8427C20.4359 31.8305 20.4664 31.8183 20.4847 31.8061C20.5092 31.7939 20.5336 31.7817 20.558 31.7634C20.5824 31.7512 20.6068 31.7329 20.6312 31.7207C20.6739 31.6962 20.7105 31.6718 20.7471 31.6474C20.7837 31.623 20.8142 31.5986 20.8508 31.5742C20.8569 31.5681 20.863 31.562 20.8752 31.5559C20.9057 31.5315 20.9423 31.501 20.9728 31.4766C21.0095 31.4461 21.0461 31.4156 21.0766 31.379C21.1071 31.3485 21.1437 31.318 21.1742 31.2814L21.1864 31.2692C21.2108 31.2387 21.2413 31.2142 21.2596 31.1837C21.2657 31.1776 21.2718 31.1715 21.2779 31.1593C21.3023 31.1349 21.3206 31.1105 21.3389 31.0861C21.3755 31.0434 21.4121 30.9946 21.4426 30.9458C21.4671 30.9092 21.4976 30.8665 21.522 30.8238C21.5403 30.7872 21.5647 30.7566 21.583 30.72C21.6013 30.6834 21.6196 30.6468 21.6379 30.6163C21.6501 30.598 21.6562 30.5736 21.6684 30.5553C21.6684 30.5553 21.6684 30.5492 21.6745 30.5492C21.7111 30.4699 21.7416 30.3845 21.7721 30.2991C21.7843 30.2563 21.8026 30.2136 21.8087 30.1709C21.8148 30.1587 21.8148 30.1526 21.8148 30.1404C21.827 30.0977 21.8392 30.055 21.8453 30.0123C21.8575 29.9635 21.8636 29.9147 21.8758 29.8659C21.9246 29.5425 21.9124 29.2191 21.8514 28.9141C21.9369 29.2496 21.9918 29.5974 22.0162 29.9574C22.0345 30.116 22.0406 30.293 22.0406 30.4699Z" fill="#4C4C4C"/>
<path d="M23.5464 28.5635H24.7057L24.5471 29.5275C24.7911 29.2224 25.084 28.9784 25.4195 28.8014C25.7551 28.6245 26.1029 28.5391 26.4507 28.5391H27.2255L27.0425 29.6312H26.3713C25.8344 29.6312 25.3768 29.7959 24.9863 30.1254C24.602 30.4549 24.3579 30.8881 24.2603 31.425L23.6014 35.1345H22.375L23.5464 28.5635Z" fill="white"/>
<path d="M29.1687 34.9745C28.8819 34.8036 28.6562 34.5718 28.4976 34.285L28.3511 35.127H27.1797L28.7965 25.9141H30.0229L29.4433 29.2454C29.669 29.0074 29.9253 28.8183 30.212 28.6718C30.4988 28.5254 30.7672 28.4522 31.0235 28.4522H31.9448C32.6098 28.4522 33.1406 28.6291 33.525 28.9891C33.9094 29.3491 34.1046 29.8311 34.1046 30.4351C34.1046 30.5388 34.0863 30.7158 34.0497 30.9598L33.763 32.595C33.6165 33.4125 33.2993 34.0532 32.8173 34.523C32.3353 34.9928 31.7373 35.2246 31.0296 35.2246H30.1205C29.7727 35.2307 29.4555 35.1453 29.1687 34.9745ZM30.9686 34.1569C31.3652 34.1569 31.7007 34.0105 31.9814 33.7237C32.2621 33.4369 32.4451 33.0465 32.5366 32.5523L32.8112 31.0147C32.8356 30.8805 32.8478 30.7585 32.8478 30.6487C32.8478 30.307 32.7563 30.0385 32.5732 29.8372C32.3902 29.6419 32.14 29.5382 31.8228 29.5382H30.9564C30.5293 29.5382 30.1388 29.6908 29.7971 30.0019C29.4555 30.307 29.2236 30.7097 29.1016 31.1978L28.8392 32.6438C28.8026 33.0648 28.9064 33.4247 29.1565 33.7176C29.4006 34.0105 29.7117 34.1569 30.09 34.1569H30.9686Z" fill="white"/>
<path d="M35.5946 34.828C35.32 34.6267 35.1797 34.2911 35.1797 33.8274C35.1797 33.6322 35.198 33.443 35.2346 33.26L36.5281 25.9141H37.7483L36.4732 33.2173C36.4549 33.2966 36.4488 33.3942 36.4488 33.5224C36.4488 33.7176 36.4976 33.8518 36.6013 33.9372C36.705 34.0227 36.8697 34.0593 37.1077 34.0593H37.6324L37.4494 35.127H36.8697C36.2962 35.127 35.8752 35.0294 35.5946 34.828Z" fill="white"/>
<path d="M39.2908 34.7025C38.8698 34.3487 38.6562 33.8728 38.6562 33.2748C38.6562 33.1345 38.6685 32.9881 38.6929 32.8295L39.0223 31.0113C39.1627 30.212 39.486 29.5897 39.9924 29.1382C40.4988 28.6867 41.1273 28.4609 41.8838 28.4609H42.9638C43.641 28.4609 44.184 28.6501 44.5867 29.0223C44.9955 29.3944 45.1968 29.8886 45.1968 30.5049C45.1968 30.6513 45.1846 30.8099 45.1602 30.9686L44.9345 32.2071H40.0351L39.9314 32.8417C39.9131 32.982 39.907 33.0796 39.907 33.1284C39.907 33.4518 40.0046 33.708 40.206 33.8972C40.4012 34.0863 40.6758 34.1778 41.0296 34.1778H42.0303C42.4512 34.1778 42.7929 34.0802 43.0614 33.8789C43.3298 33.6836 43.4946 33.403 43.5556 33.043H44.7636C44.6416 33.7385 44.3365 34.2755 43.8545 34.6598C43.3725 35.0442 42.7563 35.2395 42.012 35.2395H40.9991C40.2792 35.2334 39.7118 35.0564 39.2908 34.7025ZM43.885 31.2187L43.94 30.9686C43.9644 30.8465 43.9766 30.7245 43.9766 30.6147C43.9766 30.2791 43.885 30.0107 43.6959 29.8093C43.5068 29.608 43.2566 29.5043 42.9393 29.5043H41.8594C41.4445 29.5043 41.0968 29.6385 40.81 29.9069C40.5232 30.1754 40.3341 30.5415 40.2365 31.0052L40.1999 31.2187H43.885Z" fill="white"/>
<path d="M47.1011 28.5635H48.2604L48.1017 29.5275C48.3458 29.2224 48.6387 28.9784 48.9742 28.8014C49.3098 28.6245 49.6576 28.5391 50.0053 28.5391H50.7802L50.5972 29.6312H49.926C49.3891 29.6312 48.9315 29.7959 48.541 30.1254C48.1567 30.4549 47.9126 30.8881 47.815 31.425L47.156 35.1345H45.9297L47.1011 28.5635Z" fill="white"/>
</g>
</g>
</g>
<defs>
<clipPath id="clip0_2454_7213">
<rect width="40" height="40" fill="white" transform="translate(10.7812 10.4766)"/>
</clipPath>
<clipPath id="clip1_2454_7213">
<rect width="40" height="40" fill="white" transform="translate(10.7812 10.4766)"/>
</clipPath>
<clipPath id="clip2_2454_7213">
<rect width="40" height="12.8005" fill="white" transform="translate(10.7812 24.0781)"/>
</clipPath>
</defs>
</svg>
