<svg width="39" height="39" viewBox="0 0 39 39" fill="none" xmlns="http://www.w3.org/2000/svg">
<path d="M16.8046 9.82617L7.49406 25.9453C7.10558 26.6182 7.0003 27.4178 7.20139 28.1684C7.40247 28.9189 7.89346 29.5588 8.56633 29.9473L17.4491 35.0801C17.2554 34.5976 17.1559 34.0824 17.1562 33.5625V14.9473C17.1552 13.2777 17.8022 11.6728 18.9609 10.4707L22.6991 6.60938L19.9101 7.39453C18.5994 7.77287 17.4863 8.64445 16.8046 9.82617Z" fill="black"/>
<path d="M3.59215 20.4277C3.04292 20.9771 2.73437 21.7222 2.73438 22.499C2.73438 23.2759 3.04292 24.0209 3.59215 24.5703L5.9359 26.9141C6.01078 26.365 6.19615 25.8368 6.48082 25.3613C7.84605 23.0176 13.8812 12.5469 17.1566 6.92188C16.764 7.22656 17.4789 6.55274 3.59215 20.4277Z" fill="black"/>
<path d="M26.3594 23.6016H26.5293V21.2578H26.3594C26.0486 21.2578 25.7505 21.3813 25.5307 21.601C25.311 21.8208 25.1875 22.1189 25.1875 22.4297C25.1875 22.7405 25.311 23.0386 25.5307 23.2583C25.7505 23.4781 26.0486 23.6016 26.3594 23.6016Z" fill="black"/>
<path d="M30.6328 2.42969C30.397 3.80902 29.803 5.10219 28.9102 6.17969C28.6371 5.89885 28.3106 5.67562 27.9498 5.52318C27.589 5.37075 27.2012 5.29221 26.8096 5.29221C26.4179 5.29221 26.0302 5.37075 25.6694 5.52318C25.3086 5.67562 24.982 5.89885 24.709 6.17969L19.8047 11.2949C18.8596 12.2754 18.3305 13.5835 18.3281 14.9453V33.5605C18.3281 34.3375 18.6368 35.0827 19.1862 35.6321C19.7356 36.1816 20.4808 36.4902 21.2578 36.4902H32.3906C33.1676 36.4902 33.9128 36.1816 34.4622 35.6321C35.0116 35.0827 35.3203 34.3375 35.3203 33.5605V14.9453C35.3179 13.5835 34.7888 12.2754 33.8437 11.2949L30.5566 7.88477C29.8221 8.68433 28.9251 9.31763 27.9258 9.74219C27.8538 9.94464 27.7275 10.1234 27.5608 10.2589C27.3941 10.3945 27.1933 10.4816 26.9804 10.5107C26.7676 10.5398 26.5508 10.5098 26.3538 10.424C26.1568 10.3383 25.9871 10.2 25.8634 10.0243C25.7397 9.8486 25.6667 9.64228 25.6524 9.4279C25.638 9.21352 25.6829 8.99931 25.782 8.8087C25.8812 8.6181 26.0309 8.45843 26.2147 8.34714C26.3985 8.23586 26.6094 8.17726 26.8242 8.17773C26.9868 8.17894 27.1473 8.21394 27.2956 8.28051C27.4438 8.34709 27.5766 8.44378 27.6855 8.56445C28.0456 8.40293 28.389 8.20669 28.7109 7.97852C29.0798 7.7013 29.4248 7.39358 29.7422 7.05859C30.8376 5.78817 31.5524 4.23455 31.8047 2.57617L30.6328 2.42969ZM26.3613 20.084H26.5312V18.6602H27.7031V20.084H27.873C28.4946 20.084 29.0908 20.3309 29.5303 20.7705C29.9699 21.21 30.2168 21.8061 30.2168 22.4277H29.0449C29.0449 22.1169 28.9215 21.8189 28.7017 21.5991C28.4819 21.3793 28.1838 21.2559 27.873 21.2559H27.7031V23.5996H27.873C28.4946 23.5996 29.0908 23.8465 29.5303 24.2861C29.9699 24.7256 30.2168 25.3218 30.2168 25.9434C30.2168 26.565 29.9699 27.1611 29.5303 27.6006C29.0908 28.0402 28.4946 28.2871 27.873 28.2871H27.7031V29.7109H26.5312V28.2871H26.3613C25.7397 28.2871 25.1436 28.0402 24.704 27.6006C24.2645 27.1611 24.0176 26.565 24.0176 25.9434H25.1895C25.1895 26.2542 25.3129 26.5522 25.5327 26.772C25.7525 26.9918 26.0505 27.1152 26.3613 27.1152H26.5312V24.7715H26.3613C25.7397 24.7715 25.1436 24.5246 24.704 24.085C24.2645 23.6455 24.0176 23.0493 24.0176 22.4277C24.0176 21.8061 24.2645 21.21 24.704 20.7705C25.1436 20.3309 25.7397 20.084 26.3613 20.084Z" fill="black"/>
<path d="M29.0449 25.9453C29.0449 25.6345 28.9215 25.3364 28.7017 25.1167C28.4819 24.8969 28.1838 24.7734 27.873 24.7734H27.7031V27.1172H27.873C28.1838 27.1172 28.4819 26.9937 28.7017 26.774C28.9215 26.5542 29.0449 26.2561 29.0449 25.9453Z" fill="black"/>
</svg>
