<svg width="61" height="61" viewBox="0 0 61 61" fill="none" xmlns="http://www.w3.org/2000/svg">
<rect x="0.203125" y="0.476562" width="60" height="60" rx="30" fill="black"/>
<g clipPath="url(#clip0_2454_7268)">
<g clipPath="url(#clip1_2454_7268)">
<g clipPath="url(#clip2_2454_7268)">
<path d="M11.7301 33.5527C11.8637 33.5527 11.9708 33.5983 12.0514 33.6895C12.132 33.7786 12.1723 33.8952 12.1723 34.0394V34.7266C12.1723 34.8751 12.132 34.9938 12.0514 35.0829C11.9708 35.1699 11.8637 35.2134 11.7301 35.2134C11.6707 35.2134 11.6145 35.2028 11.5615 35.1816C11.5084 35.1582 11.4618 35.1232 11.4215 35.0766C11.4172 35.0723 11.413 35.0713 11.4087 35.0734C11.4066 35.0755 11.4056 35.0787 11.4056 35.0829V35.7733C11.4056 35.7945 11.395 35.8051 11.3738 35.8051H11.2115C11.1903 35.8051 11.1797 35.7945 11.1797 35.7733V33.6099C11.1797 33.5887 11.1903 33.5781 11.2115 33.5781H11.3738C11.395 33.5781 11.4056 33.5887 11.4056 33.6099V33.6831C11.4056 33.6874 11.4077 33.6905 11.4119 33.6927C11.4162 33.6927 11.4204 33.6906 11.4247 33.6863C11.4628 33.6418 11.5084 33.6089 11.5615 33.5877C11.6166 33.5643 11.6728 33.5527 11.7301 33.5527ZM11.9496 34.0553C11.9496 33.9641 11.9231 33.891 11.8701 33.8358C11.8191 33.7786 11.7534 33.7499 11.6728 33.7499C11.5943 33.7499 11.5296 33.7786 11.4787 33.8358C11.43 33.891 11.4056 33.9641 11.4056 34.0553V34.7107C11.4056 34.8019 11.43 34.8762 11.4787 34.9334C11.5296 34.9886 11.5943 35.0161 11.6728 35.0161C11.7534 35.0161 11.8191 34.9886 11.8701 34.9334C11.9231 34.8762 11.9496 34.8019 11.9496 34.7107V34.0553ZM13.2754 35.2134C13.1227 35.2134 13.0007 35.1689 12.9095 35.0798C12.8204 34.9907 12.7759 34.873 12.7759 34.7266V34.0426C12.7759 33.8984 12.8215 33.7807 12.9127 33.6895C13.0039 33.5983 13.1248 33.5527 13.2754 33.5527C13.4281 33.5527 13.55 33.5983 13.6413 33.6895C13.7324 33.7807 13.778 33.8984 13.778 34.0426V34.7266C13.778 34.873 13.7324 34.9907 13.6413 35.0798C13.55 35.1689 13.4281 35.2134 13.2754 35.2134ZM13.2754 35.013C13.356 35.013 13.4217 34.9854 13.4726 34.9302C13.5257 34.8751 13.5522 34.8019 13.5522 34.7107V34.0553C13.5522 33.9641 13.5257 33.891 13.4726 33.8358C13.4217 33.7786 13.356 33.7499 13.2754 33.7499C13.1948 33.7499 13.129 33.7786 13.0781 33.8358C13.0272 33.891 13.0018 33.9641 13.0018 34.0553V34.7107C13.0018 34.8019 13.0272 34.8751 13.0781 34.9302C13.129 34.9854 13.1948 35.013 13.2754 35.013ZM14.6287 35.1879C14.6096 35.1879 14.5979 35.1784 14.5936 35.1593L14.2564 33.6131V33.6068C14.2564 33.5877 14.266 33.5781 14.2851 33.5781H14.441C14.4622 33.5781 14.4738 33.5877 14.4759 33.6068L14.705 34.8221C14.7071 34.8263 14.7092 34.8284 14.7114 34.8284C14.7135 34.8284 14.7156 34.8263 14.7177 34.8221L14.9531 33.6068C14.9574 33.5877 14.9691 33.5781 14.9881 33.5781H15.1313C15.1525 33.5781 15.1642 33.5877 15.1663 33.6068L15.4017 34.8221C15.4039 34.8263 15.406 34.8284 15.4081 34.8284C15.4102 34.8284 15.4123 34.8263 15.4145 34.8221L15.6499 33.6068C15.6541 33.5877 15.6658 33.5781 15.6849 33.5781L15.8376 33.5813C15.8609 33.5813 15.8705 33.593 15.8662 33.6163L15.529 35.1593C15.5269 35.1784 15.5152 35.1879 15.494 35.1879H15.3317C15.3127 35.1879 15.301 35.1784 15.2967 35.1593L15.0613 33.9949C15.0592 33.9885 15.0571 33.9853 15.055 33.9853C15.0528 33.9853 15.0507 33.9885 15.0486 33.9949L14.8227 35.1593C14.8206 35.1784 14.8089 35.1879 14.7877 35.1879H14.6287ZM17.3611 34.4371C17.3611 34.4583 17.3505 34.4689 17.3293 34.4689H16.6039C16.5954 34.4689 16.5912 34.4732 16.5912 34.4817V34.7139C16.5912 34.803 16.6156 34.8762 16.6643 34.9334C16.7153 34.9886 16.781 35.0161 16.8616 35.0161C16.9295 35.0161 16.9867 34.996 17.0334 34.9557C17.0822 34.9133 17.114 34.8592 17.1288 34.7934C17.1352 34.7743 17.1469 34.7648 17.1638 34.7648L17.3229 34.7712C17.3314 34.7712 17.3388 34.7743 17.3452 34.7807C17.3515 34.787 17.3536 34.7955 17.3515 34.8061C17.3346 34.9313 17.2826 35.031 17.1956 35.1052C17.1108 35.1773 16.9994 35.2134 16.8616 35.2134C16.711 35.2134 16.5901 35.1689 16.4989 35.0798C16.4098 34.9907 16.3653 34.873 16.3653 34.7266V34.0394C16.3653 33.8952 16.4098 33.7786 16.4989 33.6895C16.5901 33.5983 16.711 33.5527 16.8616 33.5527C17.0143 33.5527 17.1352 33.5983 17.2243 33.6895C17.3155 33.7786 17.3611 33.8952 17.3611 34.0394V34.4371ZM16.8616 33.7499C16.781 33.7499 16.7153 33.7786 16.6643 33.8358C16.6156 33.891 16.5912 33.9641 16.5912 34.0553V34.2685C16.5912 34.277 16.5954 34.2812 16.6039 34.2812H17.1256C17.1341 34.2812 17.1384 34.277 17.1384 34.2685V34.0553C17.1384 33.9641 17.1129 33.891 17.062 33.8358C17.0111 33.7786 16.9443 33.7499 16.8616 33.7499ZM18.5262 33.5622C18.5792 33.5622 18.6248 33.5739 18.663 33.5972C18.6778 33.6057 18.6831 33.6195 18.6789 33.6386L18.6407 33.804C18.6386 33.8231 18.6259 33.8295 18.6025 33.8231C18.5771 33.8104 18.5453 33.804 18.5071 33.804C18.4901 33.804 18.4774 33.8051 18.4689 33.8072C18.3926 33.8115 18.33 33.8517 18.2812 33.9281C18.2324 34.0023 18.208 34.0935 18.208 34.2017V35.1561C18.208 35.1773 18.1974 35.1879 18.1762 35.1879H18.014C17.9928 35.1879 17.9822 35.1773 17.9822 35.1561V33.6099C17.9822 33.5887 17.9928 33.5781 18.014 33.5781H18.1762C18.1974 33.5781 18.208 33.5887 18.208 33.6099V33.8008C18.208 33.8072 18.2091 33.8104 18.2112 33.8104C18.2155 33.8104 18.2197 33.8082 18.224 33.804C18.2855 33.6428 18.3862 33.5622 18.5262 33.5622ZM20.1458 34.4371C20.1458 34.4583 20.1352 34.4689 20.114 34.4689H19.3886C19.3801 34.4689 19.3759 34.4732 19.3759 34.4817V34.7139C19.3759 34.803 19.4003 34.8762 19.4491 34.9334C19.5 34.9886 19.5657 35.0161 19.6463 35.0161C19.7142 35.0161 19.7714 34.996 19.8181 34.9557C19.8669 34.9133 19.8987 34.8592 19.9136 34.7934C19.9199 34.7743 19.9316 34.7648 19.9485 34.7648L20.1076 34.7712C20.1161 34.7712 20.1235 34.7743 20.1299 34.7807C20.1362 34.787 20.1384 34.7955 20.1362 34.8061C20.1193 34.9313 20.0673 35.031 19.9804 35.1052C19.8955 35.1773 19.7842 35.2134 19.6463 35.2134C19.4957 35.2134 19.3748 35.1689 19.2836 35.0798C19.1945 34.9907 19.15 34.873 19.15 34.7266V34.0394C19.15 33.8952 19.1945 33.7786 19.2836 33.6895C19.3748 33.5983 19.4957 33.5527 19.6463 33.5527C19.799 33.5527 19.9199 33.5983 20.009 33.6895C20.1002 33.7786 20.1458 33.8952 20.1458 34.0394V34.4371ZM19.6463 33.7499C19.5657 33.7499 19.5 33.7786 19.4491 33.8358C19.4003 33.891 19.3759 33.9641 19.3759 34.0553V34.2685C19.3759 34.277 19.3801 34.2812 19.3886 34.2812H19.9104C19.9188 34.2812 19.9231 34.277 19.9231 34.2685V34.0553C19.9231 33.9641 19.8976 33.891 19.8467 33.8358C19.7958 33.7786 19.729 33.7499 19.6463 33.7499ZM21.4986 32.9927C21.4986 32.9715 21.5092 32.9609 21.5304 32.9609H21.6927C21.7139 32.9609 21.7245 32.9715 21.7245 32.9927V35.1561C21.7245 35.1773 21.7139 35.1879 21.6927 35.1879H21.5304C21.5092 35.1879 21.4986 35.1773 21.4986 35.1561V35.0861C21.4986 35.0819 21.4965 35.0787 21.4922 35.0766C21.4901 35.0745 21.487 35.0755 21.4827 35.0798C21.4021 35.1689 21.3003 35.2134 21.1773 35.2134C21.0416 35.2134 20.9334 35.1689 20.8528 35.0798C20.7722 34.9886 20.7319 34.8708 20.7319 34.7266V34.0394C20.7319 33.891 20.7722 33.7733 20.8528 33.6863C20.9334 33.5972 21.0416 33.5527 21.1773 33.5527C21.3024 33.5527 21.4042 33.5983 21.4827 33.6895C21.487 33.6937 21.4901 33.6948 21.4922 33.6927C21.4965 33.6905 21.4986 33.6874 21.4986 33.6831V32.9927ZM21.2314 35.0161C21.3099 35.0161 21.3735 34.9886 21.4223 34.9334C21.4732 34.8762 21.4986 34.803 21.4986 34.7139V34.0553C21.4986 33.9641 21.4732 33.891 21.4223 33.8358C21.3735 33.7786 21.3099 33.7499 21.2314 33.7499C21.1508 33.7499 21.084 33.7786 21.031 33.8358C20.98 33.891 20.9546 33.9641 20.9546 34.0553V34.7139C20.9546 34.803 20.98 34.8762 21.031 34.9334C21.084 34.9886 21.1508 35.0161 21.2314 35.0161ZM23.8689 33.5527C24.0025 33.5527 24.1096 33.5972 24.1902 33.6863C24.2729 33.7733 24.3143 33.891 24.3143 34.0394V34.7266C24.3143 34.8708 24.274 34.9886 24.1934 35.0798C24.1128 35.1689 24.0047 35.2134 23.8689 35.2134C23.8116 35.2134 23.7565 35.2028 23.7035 35.1816C23.6504 35.1582 23.6038 35.1243 23.5635 35.0798C23.5593 35.0755 23.555 35.0745 23.5508 35.0766C23.5487 35.0787 23.5476 35.0819 23.5476 35.0861V35.1561C23.5476 35.1773 23.537 35.1879 23.5158 35.1879H23.3535C23.3323 35.1879 23.3217 35.1773 23.3217 35.1561V32.9927C23.3217 32.9715 23.3323 32.9609 23.3535 32.9609H23.5158C23.537 32.9609 23.5476 32.9715 23.5476 32.9927V33.6799C23.5476 33.6842 23.5497 33.6873 23.5539 33.6895C23.5582 33.6916 23.5624 33.6895 23.5667 33.6831C23.6048 33.6407 23.6504 33.6089 23.7035 33.5877C23.7565 33.5643 23.8116 33.5527 23.8689 33.5527ZM24.0884 34.0553C24.0884 33.9641 24.063 33.891 24.0121 33.8358C23.9612 33.7786 23.8943 33.7499 23.8116 33.7499C23.7332 33.7499 23.6695 33.7786 23.6208 33.8358C23.572 33.891 23.5476 33.9641 23.5476 34.0553V34.7139C23.5476 34.803 23.572 34.8762 23.6208 34.9334C23.6695 34.9886 23.7332 35.0161 23.8116 35.0161C23.8943 35.0161 23.9612 34.9886 24.0121 34.9334C24.063 34.8762 24.0884 34.803 24.0884 34.7139V34.0553ZM24.8899 35.8242C24.8856 35.8242 24.8814 35.821 24.8772 35.8146C24.8729 35.8083 24.8708 35.8009 24.8708 35.7924V35.6651C24.8708 35.6439 24.8814 35.6333 24.9026 35.6333C24.9683 35.6312 25.0193 35.6185 25.0553 35.5952C25.0935 35.5718 25.1242 35.5305 25.1476 35.4711C25.1709 35.4117 25.1942 35.3205 25.2176 35.1975C25.2197 35.1932 25.2197 35.19 25.2176 35.1879C25.2176 35.1837 25.2176 35.1805 25.2176 35.1784L24.8135 33.6131L24.8103 33.6036C24.8103 33.5866 24.821 33.5781 24.8422 33.5781H25.014C25.0352 33.5781 25.0468 33.5877 25.049 33.6068L25.3289 34.8571C25.331 34.8634 25.3332 34.8666 25.3353 34.8666C25.3374 34.8666 25.3395 34.8634 25.3416 34.8571L25.6184 33.6068C25.6227 33.5877 25.6343 33.5781 25.6534 33.5781L25.8316 33.5813C25.8422 33.5813 25.8496 33.5845 25.8539 33.5909C25.8602 33.5972 25.8613 33.6057 25.857 33.6163L25.4148 35.3279C25.3766 35.47 25.3385 35.575 25.3003 35.6429C25.2642 35.7107 25.2165 35.7574 25.1571 35.7828C25.0977 35.8104 25.014 35.8242 24.9058 35.8242H24.8899Z" fill="white"/>
<path d="M16.5931 28.9339C16.5938 29.517 16.1221 29.9899 15.5391 29.9906H11.4643V29.3147H15.9165V28.3847H12.3379C11.7549 28.3854 11.2819 27.9131 11.2812 27.33V27.1582C11.2812 26.5752 11.7522 26.1022 12.3353 26.1016H16.4094V26.7775H11.9578V27.7075H15.5364C16.1195 27.7075 16.5924 28.1784 16.5931 28.7615V28.9333V28.9339Z" fill="white"/>
<path d="M22.3078 29.9978H18.2364C17.6533 29.9984 17.1804 29.5268 17.1797 28.9437V27.166C17.179 26.583 17.6507 26.11 18.2337 26.1094H21.2512C21.8342 26.1087 22.3072 26.5803 22.3078 27.1634V28.3919H17.8556V29.3218H22.3078V29.9978ZM21.6319 26.7853H17.8556V27.7153H21.6319V26.7853Z" fill="white"/>
<path d="M28.2297 29.9978H24.1582C23.5752 29.9984 23.1022 29.5268 23.1016 28.9437V27.166C23.1016 26.583 23.5725 26.11 24.1556 26.1094H27.173C27.7561 26.1087 28.229 26.5803 28.2297 27.1634V28.3919H23.7775V29.3218H28.2297V29.9978ZM27.5538 26.7853H23.7775V27.7153H27.5538V26.7853Z" fill="white"/>
<path d="M39.8623 28.9411C39.863 29.5241 39.3914 29.9971 38.8084 29.9978H35.7909C35.2079 29.9984 34.735 29.5268 34.7344 28.9437V27.166C34.7335 26.583 35.2051 26.11 35.7884 26.1094H38.8058C39.3888 26.1087 39.8617 26.5803 39.8623 27.1634V28.9411ZM39.1858 26.7853H35.4094V29.3218H39.1858V26.7853Z" fill="#FFD700"/>
<path d="M41.325 25.5169H40.6484V24.6719H41.325V25.5169ZM41.325 29.9977H40.6484V26.1093H41.325V29.9983V29.9977Z" fill="#FFD700"/>
<path d="M47.246 29.9978H46.5694V26.7853H42.7937V29.9978H42.1172V26.1094H46.1886C46.7716 26.1087 47.2447 26.5803 47.2454 27.1634V29.9978H47.246Z" fill="#FFD700"/>
<path d="M34.1875 29.3125H33.4062V29.9891H34.1875V29.3125Z" fill="#F60407"/>
<path d="M32.5279 29.3453H29.7619V26.8087H34.2141V26.1328H30.1426C29.5596 26.1321 29.0866 26.6038 29.0859 27.1868V28.9645C29.0853 29.5476 29.5569 30.0205 30.14 30.0212H32.5279V29.3453Z" fill="#FFD700"/>
<path d="M47.7051 25.9571C47.3935 25.9571 47.1406 25.7044 47.1406 25.3926C47.1406 25.0808 47.3935 24.8281 47.7051 24.8281C48.017 24.8281 48.2697 25.0808 48.2697 25.3926C48.2697 25.7044 48.017 25.9564 47.7051 25.9571ZM47.7051 24.9309C47.4499 24.9309 47.2436 25.1379 47.2436 25.3926C47.2436 25.6473 47.4505 25.8543 47.7051 25.8543C47.96 25.8543 48.1669 25.6473 48.1669 25.3926C48.1669 25.1379 47.96 24.9309 47.7051 24.9309Z" fill="white"/>
<path d="M47.9188 25.6196H47.8365C47.8234 25.6196 47.81 25.6136 47.8021 25.6024L47.7165 25.4657C47.7133 25.4624 47.7098 25.4558 47.7066 25.4558C47.7012 25.4531 47.6952 25.4518 47.6894 25.4525H47.6548V25.6236H47.5625V25.1719H47.7025C47.7292 25.1719 47.7556 25.1752 47.7814 25.1818C47.8014 25.1871 47.8199 25.1964 47.8365 25.209C47.8505 25.2196 47.861 25.2336 47.8677 25.2501C47.8743 25.2661 47.8778 25.284 47.8778 25.3012C47.8778 25.3152 47.875 25.3291 47.8711 25.3423C47.8677 25.355 47.8619 25.3662 47.8539 25.3768C47.8451 25.3888 47.8352 25.3994 47.8227 25.408C47.8107 25.4173 47.7967 25.4246 47.7814 25.4286C47.7881 25.4319 47.7935 25.4365 47.7986 25.4425C47.8047 25.4465 47.81 25.4525 47.8126 25.4598L47.9188 25.6203V25.6196ZM47.6999 25.3835C47.7133 25.3848 47.7257 25.3821 47.7378 25.3768C47.7477 25.3735 47.7576 25.3676 47.7649 25.3596C47.7715 25.3523 47.7769 25.3443 47.7821 25.3357C47.7849 25.3258 47.7862 25.3152 47.7855 25.3045C47.7868 25.286 47.7788 25.2687 47.7649 25.2568C47.7464 25.2428 47.7231 25.2362 47.6999 25.2395H47.6522V25.3795H47.6999V25.3828V25.3835Z" fill="white"/>
<path d="M29.3877 34.2248H27.7208V33.792H29.7943V33.4766H27.8983C27.6267 33.4762 27.4062 33.6966 27.4062 33.9683V34.0479C27.4062 34.3193 27.6254 34.5394 27.8964 34.54H29.5649V34.9737H27.4918V35.2883H29.388C29.6594 35.2886 29.8795 35.0691 29.8801 34.798V34.7175C29.8804 34.4462 29.6609 34.226 29.3899 34.2254H29.3883" fill="white"/>
<path d="M30.7838 34.2248V34.5394H32.5442V33.9692C32.5448 33.6976 32.325 33.4769 32.0534 33.4766H30.6483C30.3766 33.4766 30.1563 33.6966 30.1563 33.9683V34.7962C30.1559 35.0676 30.3754 35.2876 30.6464 35.2883H32.5442V34.9737H30.4708V33.7923H32.2293V34.2251H30.7838V34.2248Z" fill="white"/>
<path d="M33.5427 34.2248V34.5394H35.3031V33.9692C35.3031 33.6973 35.0827 33.4766 34.8108 33.4766H33.4061C33.1345 33.4766 32.9141 33.6966 32.9141 33.9683V34.7962C32.9141 35.0676 33.1334 35.2876 33.4044 35.2883H35.3029V34.9737H33.2293V33.7923H34.9874V34.2251H33.5422L33.5427 34.2248Z" fill="white"/>
<path d="M36.1568 33.4766C35.8849 33.4766 35.6641 33.6969 35.6641 33.9689V34.7962C35.6641 35.0679 35.8843 35.2883 36.1559 35.2883H37.7378V35.6429H36.3011V35.9575H37.5613C37.8327 35.9578 38.0529 35.7383 38.0533 35.467V33.4766H36.1568ZM37.7376 34.9734H35.9795V33.792H37.7376V34.9734Z" fill="#CCFF33"/>
<path d="M40.2862 33.4766H38.3894V33.792H40.4638V34.2248H38.7969C38.5255 34.2242 38.3051 34.4437 38.3047 34.715V34.7959C38.3045 35.0672 38.524 35.2873 38.795 35.2879H40.778V33.9692C40.7787 33.6976 40.5585 33.4769 40.2868 33.4766H40.2862ZM40.4632 34.9734H38.6191V34.5397H40.4632V34.9734Z" fill="#CCFF33"/>
<path d="M44.1734 33.4766H41.1484V35.2879H41.4631V33.792H42.7491V35.2879H43.0637V33.792H44.3502V35.2879H44.6648V33.9692C44.6654 33.6976 44.4456 33.4769 44.174 33.4766H44.1734Z" fill="#CCFF33"/>
<path d="M45.6687 34.2248V34.5394H47.4196V33.9692C47.4203 33.6976 47.2005 33.4769 46.9287 33.4766H45.5233C45.2517 33.4766 45.0313 33.6966 45.0313 33.9683V34.7962C45.031 35.0676 45.2504 35.2876 45.5214 35.2883H47.4192V34.9737H45.3459V33.7923H47.1048V34.2251H45.6687V34.2248Z" fill="#CCFF33"/>
<path d="M48.0491 34.9766H47.7266V35.2911H48.0491V34.9766Z" fill="#F60407"/>
<path d="M36.0491 35.6406H35.7266V35.9552H36.0491V35.6406Z" fill="#F60407"/>
<path d="M47.7315 33.3691C47.5864 33.3691 47.4688 33.2515 47.4688 33.1065C47.4688 32.9614 47.5864 32.8438 47.7315 32.8438C47.8765 32.8438 47.9941 32.9614 47.9941 33.1065C47.9941 33.2515 47.8765 33.3688 47.7315 33.3691ZM47.7315 32.8916C47.6126 32.8916 47.5167 32.9879 47.5167 33.1065C47.5167 33.225 47.6131 33.3213 47.7315 33.3213C47.85 33.3213 47.9464 33.225 47.9464 33.1065C47.9464 32.9879 47.85 32.8916 47.7315 32.8916Z" fill="white"/>
<path d="M47.8297 33.2084H47.7914C47.7854 33.2084 47.7791 33.2056 47.7755 33.2003L47.7357 33.1368C47.734 33.1352 47.7325 33.1321 47.7309 33.1321C47.7286 33.1309 47.7258 33.1303 47.723 33.1306H47.7069V33.2102H47.6641V33H47.729C47.7415 33 47.7537 33.0015 47.7658 33.0046C47.775 33.0071 47.7836 33.0114 47.7914 33.0173C47.798 33.0222 47.8028 33.0287 47.806 33.0364C47.809 33.0439 47.8105 33.0522 47.8105 33.0602C47.8105 33.0667 47.8094 33.0732 47.8075 33.0793C47.806 33.0852 47.8032 33.0905 47.7995 33.0954C47.7955 33.1009 47.7909 33.1059 47.7849 33.1099C47.7793 33.1142 47.7729 33.1176 47.7658 33.1195C47.769 33.121 47.7714 33.1232 47.774 33.126C47.7765 33.1278 47.7791 33.1306 47.7804 33.134L47.8297 33.2087V33.2084ZM47.7279 33.0985C47.734 33.0991 47.74 33.0979 47.7456 33.0954C47.7501 33.0939 47.7548 33.0911 47.758 33.0874C47.7613 33.084 47.7636 33.0803 47.7662 33.0763C47.7673 33.0716 47.7679 33.0667 47.7677 33.0617C47.7684 33.0531 47.7647 33.0451 47.758 33.0395C47.7494 33.033 47.7387 33.03 47.7279 33.0315H47.7056V33.0966H47.7279V33.0982V33.0985Z" fill="white"/>
</g>
</g>
</g>
<defs>
<clipPath id="clip0_2454_7268">
<rect width="40" height="40" fill="white" transform="translate(10.2031 10.4766)"/>
</clipPath>
<clipPath id="clip1_2454_7268">
<rect width="40" height="40" fill="white" transform="translate(10.2031 10.4766)"/>
</clipPath>
<clipPath id="clip2_2454_7268">
<rect width="40" height="12.043" fill="white" transform="translate(10.2031 24.4531)"/>
</clipPath>
</defs>
</svg>
