<svg width="32" height="33" viewBox="0 0 32 33" fill="none" xmlns="http://www.w3.org/2000/svg">
<g clipPath="url(#clip0_1274_147)">
<path d="M18.6869 12.7573C18.5194 12.4673 18.2099 12.2886 17.875 12.2886H14.125C13.7901 12.2886 13.4806 12.4673 13.3131 12.7573L11.4381 16.0049C11.2706 16.2949 11.2706 16.6523 11.4381 16.9424L13.3131 20.1899C13.4806 20.48 13.7901 20.6587 14.125 20.6587H17.875C18.2099 20.6587 18.5194 20.48 18.6869 20.1899L20.5619 16.9424C20.7294 16.6523 20.7294 16.2949 20.5619 16.0049L18.6869 12.7573ZM17.3338 18.7837H14.6663L13.3325 16.4736L14.6663 14.1636H17.3338L18.6675 16.4736L17.3338 18.7837Z" fill="white"/>
<path d="M31.0625 15.5361H28.1875V14.5986C28.1875 14.0809 27.7677 13.6611 27.25 13.6611H24.4375V11.7861H29.9375C30.4552 11.7861 30.875 11.3664 30.875 10.8486C30.875 10.3309 30.4552 9.91113 29.9375 9.91113H24.4375V8.97363C24.4375 8.45588 24.0177 8.03613 23.5 8.03613H22.5625V2.34863H26C26.5177 2.34863 26.9375 1.92888 26.9375 1.41113C26.9375 0.893383 26.5177 0.473633 26 0.473633H21.625C21.1073 0.473633 20.6875 0.893383 20.6875 1.41113V8.03613H18.8125V5.22363C18.8125 4.70588 18.3927 4.28613 17.875 4.28613H16.9375V1.41113C16.9375 0.893383 16.5177 0.473633 16 0.473633C15.4823 0.473633 15.0625 0.893383 15.0625 1.41113V4.28613H14.125C13.6073 4.28613 13.1875 4.70588 13.1875 5.22363V8.03613H11.3125V1.41113C11.3125 0.893383 10.8927 0.473633 10.375 0.473633H6C5.48225 0.473633 5.0625 0.893383 5.0625 1.41113C5.0625 1.92888 5.48225 2.34863 6 2.34863H9.4375V8.03613H8.5C7.98225 8.03613 7.5625 8.45588 7.5625 8.97363V9.91113H2.0625C1.54475 9.91113 1.125 10.3309 1.125 10.8486C1.125 11.3664 1.54475 11.7861 2.0625 11.7861H7.5625V13.6611H4.75C4.23225 13.6611 3.8125 14.0809 3.8125 14.5986V15.5361H0.9375C0.41975 15.5361 0 15.9559 0 16.4736C0 16.9914 0.41975 17.4111 0.9375 17.4111H3.8125V18.3486C3.8125 18.8664 4.23225 19.2861 4.75 19.2861H7.5625V21.1611H2.0625C1.54475 21.1611 1.125 21.5809 1.125 22.0986C1.125 22.6164 1.54475 23.0361 2.0625 23.0361H7.5625V23.9736C7.5625 24.4914 7.98225 24.9111 8.5 24.9111H9.4375V30.5986H6C5.48225 30.5986 5.0625 31.0184 5.0625 31.5361C5.0625 32.0539 5.48225 32.4736 6 32.4736H10.375C10.8927 32.4736 11.3125 32.0539 11.3125 31.5361V24.9111H13.1875V27.7236C13.1875 28.2414 13.6073 28.6611 14.125 28.6611H15.0625V31.5361C15.0625 32.0539 15.4823 32.4736 16 32.4736C16.5177 32.4736 16.9375 32.0539 16.9375 31.5361V28.6611H17.875C18.3927 28.6611 18.8125 28.2414 18.8125 27.7236V24.9111H20.6875V31.5361C20.6875 32.0539 21.1073 32.4736 21.625 32.4736H26C26.5177 32.4736 26.9375 32.0539 26.9375 31.5361C26.9375 31.0184 26.5177 30.5986 26 30.5986H22.5625V24.9111H23.5C24.0177 24.9111 24.4375 24.4914 24.4375 23.9736V23.0361H29.9375C30.4552 23.0361 30.875 22.6164 30.875 22.0986C30.875 21.5809 30.4552 21.1611 29.9375 21.1611H24.4375V19.2861H27.25C27.7677 19.2861 28.1875 18.8664 28.1875 18.3486V17.4111H31.0625C31.5802 17.4111 32 16.9914 32 16.4736C32 15.9559 31.5802 15.5361 31.0625 15.5361ZM15.0625 6.16113H16.9375V8.03613H15.0625V6.16113ZM5.6875 17.4111V15.5361H7.5625V17.4111H5.6875ZM16.9375 26.7861H15.0625V24.9111H16.9375V26.7861ZM22.5625 23.0361H9.4375V9.91113H22.5625V23.0361ZM26.3125 17.4111H24.4375V15.5361H26.3125V17.4111Z" fill="white"/>
</g>
<defs>
<clipPath id="clip0_1274_147">
<rect width="32" height="32" fill="white" transform="translate(0 0.473633)"/>
</clipPath>
</defs>
</svg>
