<svg width="63" height="63" viewBox="0 0 63 63" fill="none" xmlns="http://www.w3.org/2000/svg">
<g clip-path="url(#clip0_2741_8147)">
<path d="M31.5 62.5781C48.6208 62.5781 62.5 48.6989 62.5 31.5781C62.5 14.4573 48.6208 0.578125 31.5 0.578125C14.3792 0.578125 0.5 14.4573 0.5 31.5781C0.5 48.6989 14.3792 62.5781 31.5 62.5781Z" fill="#34AADF"/>
<path d="M13.4025 31.3075C13.4025 31.3075 28.9025 24.9463 34.2782 22.7063C36.3389 21.8104 43.3273 18.9433 43.3273 18.9433C43.3273 18.9433 46.5528 17.689 46.284 20.7352C46.1943 21.9896 45.4776 26.3797 44.7609 31.1283C43.6857 37.848 42.5209 45.1947 42.5209 45.1947C42.5209 45.1947 42.3418 47.2555 40.8187 47.6138C39.2956 47.9722 36.7868 46.3596 36.3389 46.0011C35.9804 45.7324 29.6192 41.7005 27.2898 39.7294C26.6626 39.1919 25.9459 38.1168 27.3793 36.8624C30.6048 33.9058 34.4573 30.2324 36.7868 27.9029C37.862 26.8277 38.9371 24.3191 34.4573 27.3653C28.0961 31.7555 21.8245 35.8769 21.8245 35.8769C21.8245 35.8769 20.3909 36.7728 17.7031 35.9664C15.0151 35.1601 11.8793 34.0849 11.8793 34.0849C11.8793 34.0849 9.72914 32.741 13.4025 31.3075Z" fill="white"/>
</g>
<defs>
<clipPath id="clip0_2741_8147">
<rect width="62" height="62" fill="white" transform="translate(0.5 0.578125)"/>
</clipPath>
</defs>
</svg>
