<svg width="30" height="30" viewBox="0 0 30 30" fill="none" xmlns="http://www.w3.org/2000/svg">
<g clipPath="url(#clip0_2498_6992)">
<path d="M6.67658 8.31706V7.34717H23.1134C23.4511 7.34717 23.7569 7.14863 23.8944 6.84054C24.0325 6.53246 23.976 6.17246 23.7512 5.92086C21.5125 3.41911 18.3044 1.98424 14.9492 1.98424H6.67658V0.957299C6.67658 0.628106 6.48773 0.328011 6.19106 0.18595C5.89382 0.043319 5.5418 0.0838262 5.28507 0.289785L0.663822 3.99819C0.460716 4.16136 0.342617 4.4084 0.343758 4.66913C0.344899 4.92929 0.464709 5.17575 0.668957 5.33721L5.2902 8.98857C5.44424 9.11009 5.63195 9.17285 5.82079 9.17285C5.94802 9.17285 6.07524 9.14489 6.19391 9.08727C6.48887 8.94407 6.67658 8.64511 6.67658 8.31706Z" fill="black"/>
<path d="M29.2299 24.0779L24.6086 20.4265C24.3513 20.2234 24.0004 20.1846 23.7049 20.3278C23.4099 20.471 23.2222 20.77 23.2222 21.098V22.0679H6.78544C6.44769 22.0679 6.14189 22.2664 6.00439 22.5745C5.86632 22.8826 5.92281 23.2426 6.14759 23.4942C8.38633 25.996 11.5944 27.4308 14.9496 27.4308H23.2222V28.4578C23.2222 28.787 23.4111 29.0871 23.7078 29.2291C23.8259 29.2856 23.9519 29.3136 24.078 29.3136C24.2692 29.3136 24.4586 29.2497 24.6137 29.1253L29.235 25.4169C29.4381 25.2537 29.5562 25.0067 29.5551 24.7459C29.5539 24.4858 29.4341 24.2393 29.2299 24.0779Z" fill="black"/>
<path d="M16.8358 15.6168V13.7942L14.953 12.5391L13.0703 13.7942V15.6168L14.953 16.8719L16.8358 15.6168Z" fill="black"/>
<path d="M21.6186 20.3589C21.8246 19.6839 22.3044 19.106 22.9542 18.7905C22.9936 18.7717 23.0341 18.7534 23.0746 18.7363C23.6782 17.5228 24.0177 16.1558 24.0177 14.7107C24.0177 12.5769 23.2771 10.6132 22.0402 9.0625H8.27405C8.0681 9.73743 7.58828 10.3154 6.93846 10.6309C6.89909 10.6503 6.85858 10.668 6.81808 10.6851C6.21446 11.8986 5.875 13.2656 5.875 14.7107C5.875 16.8444 6.61554 18.8082 7.85244 20.3589H21.6186ZM11.352 13.3414C11.352 13.0553 11.495 12.7881 11.7331 12.6294L14.4717 10.8037C14.7591 10.6121 15.1336 10.6121 15.4211 10.8037L18.1596 12.6294C18.3977 12.7881 18.5407 13.0553 18.5407 13.3414V16.0799C18.5407 16.3661 18.3977 16.6333 18.1596 16.792L15.4211 18.6176C15.2774 18.7135 15.1118 18.7614 14.9464 18.7614C14.7809 18.7614 14.6154 18.7135 14.4717 18.6176L11.7332 16.792C11.4951 16.6333 11.3521 16.3661 11.3521 16.0799V13.3414H11.352Z" fill="black"/>
</g>
<defs>
<clipPath id="clip0_2498_6992">
<rect width="29.2108" height="29.2108" fill="white" transform="translate(0.34375 0.101562)"/>
</clipPath>
</defs>
</svg>
