<svg width="32" height="33" viewBox="0 0 32 33" fill="none" xmlns="http://www.w3.org/2000/svg">
<g clipPath="url(#clip0_1440_1644)">
<path d="M20.859 16.5233L26.5977 6.61397L29.3708 16.5233L26.5976 26.4303L20.859 16.5233ZM18.062 18.1326L23.8015 28.0403L13.8057 25.4796L6.5845 18.1326H18.062ZM23.8002 5.00347L18.062 14.9128H6.5845L13.8057 7.56535L23.8002 5.00347ZM31.9926 13.151L28.4916 0.126221L15.4241 3.61685L13.4897 7.01772L9.56462 6.9896L0 16.5242L9.56462 26.0566H9.565L13.4885 26.0276L15.4256 29.4285L28.4916 32.9185L31.9925 19.8962L30.0042 16.5235L31.9925 13.1512L31.9926 13.151Z" fill="white"/>
</g>
<defs>
<clipPath id="clip0_1440_1644">
<rect width="32" height="32.8812" fill="white" transform="translate(0 0.118896)"/>
</clipPath>
</defs>
</svg>
