<svg width="39" height="39" viewBox="0 0 39 39" fill="none" xmlns="http://www.w3.org/2000/svg">
<g clipPath="url(#clip0_2498_6935)">
<path d="M9.70285 8.53981L24.6523 4.45924L23.8606 2.85902C23.3427 1.81887 22.0793 1.38934 21.0392 1.9073L7.65625 8.53981H9.70285Z" fill="black"/>
<path d="M29.2937 4.57812C29.1084 4.57812 28.9231 4.60339 28.7378 4.65393L25.2258 5.61406L14.5 8.54079H26.6743H31.9803L31.3234 6.13203C31.0707 5.19295 30.2201 4.57812 29.2937 4.57812Z" fill="black"/>
<path d="M34.1716 10.0156H33.6916H33.0388H32.3861H27.4044H9.09864H6.69831H4.67697H4.30218H3.04727C2.38191 10.0156 1.78815 10.323 1.40072 10.8073C1.22386 11.0305 1.0891 11.2874 1.0133 11.5695C0.966978 11.7464 0.9375 11.9317 0.9375 12.1212V12.3739V14.7742V35.5813C0.9375 36.7436 1.88079 37.6869 3.04306 37.6869H34.1674C35.3297 37.6869 36.273 36.7436 36.273 35.5813V29.7068H23.7786C21.8036 29.7068 20.1991 28.1024 20.1991 26.1274V24.1987V23.5459V22.8932V21.4446C20.1991 20.476 20.5865 19.596 21.214 18.9517C21.7699 18.3789 22.5153 17.9915 23.3491 17.8946C23.488 17.8778 23.6312 17.8694 23.7744 17.8694H34.5212H35.1739H35.8266H36.273V12.1212C36.2772 10.9589 35.3339 10.0156 34.1716 10.0156Z" fill="black"/>
<path d="M37.7499 19.8797C37.5394 19.686 37.2909 19.5386 37.013 19.4418C36.7982 19.3702 36.5708 19.3281 36.3308 19.3281H36.276H36.2339H35.5812H33.2272H23.7774C22.6151 19.3281 21.6719 20.2714 21.6719 21.4337V22.4822V23.1349V23.7877V26.1206C21.6719 27.2829 22.6151 28.2262 23.7774 28.2262H36.276H36.3308C36.5708 28.2262 36.7982 28.1841 37.013 28.1125C37.2909 28.0198 37.5394 27.8682 37.7499 27.6745C38.171 27.2913 38.4363 26.7354 38.4363 26.1207V21.4337C38.4363 20.8188 38.171 20.2629 37.7499 19.8797ZM28.1738 24.1961C28.1738 24.7773 27.7022 25.2489 27.1211 25.2489H26.422C25.8409 25.2489 25.3692 24.7773 25.3692 24.1961V23.4971C25.3692 23.1602 25.525 22.8612 25.7735 22.6717C25.9546 22.5327 26.1778 22.4443 26.422 22.4443H26.5989H27.1211C27.7022 22.4443 28.1738 22.9159 28.1738 23.4971V24.1961Z" fill="black"/>
</g>
<defs>
<clipPath id="clip0_2498_6935">
<rect width="37.5" height="37.5" fill="white" transform="translate(0.9375 0.9375)"/>
</clipPath>
</defs>
</svg>
